<svg width="24" height="24" viewBox="0 0 24 24" fill="none" xmlns="http://www.w3.org/2000/svg">
<path d="M16.6477 12.3845C15.9575 11.8401 14.9216 11.4054 13.5402 11.0803L12.4804 10.8302V6.30382L12.6239 6.36238C13.5234 6.8179 14.0068 7.67998 14.073 8.63998H17.6807C17.6149 6.71998 16.9055 5.30014 15.5524 4.29694C14.6533 3.63022 13.628 3.20158 12.4804 2.98558V0.47998H9.12035V2.90878C7.56659 3.10078 6.33443 3.60094 5.42963 4.41406C4.24499 5.4787 3.65283 6.81534 3.65315 8.42398C3.65315 10.1872 4.25843 11.4832 5.46899 12.312C6.14675 12.7819 7.36835 13.2182 9.12035 13.6224V18.5261C8.48147 18.3499 7.98083 18.06 7.62803 17.6409C7.28771 17.2339 7.05971 16.8 6.94355 15.84H3.36035C3.36035 17.76 4.03763 19.1376 5.39267 20.2061C6.37091 20.9769 7.61603 21.4454 9.12035 21.6485V23.52H12.4804V21.6801C14.0802 21.4886 15.3719 20.9779 16.3501 20.1422C17.6189 19.0574 18.2533 17.6944 18.2533 16.0531C18.2533 14.4525 17.7181 13.2296 16.6477 12.3845ZM8.00099 9.5923C7.41795 9.27518 7.12643 8.79518 7.12643 8.1523C7.12643 7.45342 7.42211 6.90574 8.01347 6.51598C8.32547 6.31006 8.69699 6.1603 9.12035 6.06142V10.0089C8.59955 9.85726 8.22371 9.71806 8.00099 9.5923ZM13.029 18.4277C12.8492 18.4874 12.666 18.5365 12.4804 18.5745V14.4C13.0592 14.5715 13.5149 14.7577 13.8474 14.9587C14.3716 15.2837 14.6341 15.7459 14.6341 16.3387C14.6336 17.3544 14.0984 18.0537 13.029 18.4277Z" fill="#253439"/>
</svg>
