<svg width="24" height="24" viewBox="0 0 24 24" fill="none" xmlns="http://www.w3.org/2000/svg">
<path fill-rule="evenodd" clip-rule="evenodd" d="M14.5 3V4C14.5 4.653 14.9175 5.209 15.5 5.415V6H15C14.8674 6 14.7402 6.05268 14.6464 6.14645C14.5527 6.24021 14.5 6.36739 14.5 6.5V9.5C14.5 9.63261 14.5527 9.75979 14.6464 9.85355C14.7402 9.94732 14.8674 10 15 10H17C17.1326 10 17.2598 9.94732 17.3536 9.85355C17.4473 9.75979 17.5 9.63261 17.5 9.5V6.5C17.5 6.36739 17.4473 6.24021 17.3536 6.14645C17.2598 6.05268 17.1326 6 17 6H16.5V5.5H19V11.533H10.055C10.0347 11.5333 10.0146 11.5294 9.99589 11.5217C9.97716 11.5139 9.96019 11.5025 9.946 11.488L9.763 11.303L9.9475 11.1195C10.1227 10.9445 10.2617 10.7367 10.3565 10.5079C10.4513 10.2792 10.5002 10.034 10.5002 9.78635C10.5003 9.53873 10.4515 9.29352 10.3568 9.06474C10.262 8.83596 10.1231 8.62808 9.948 8.453L9.048 7.553C8.87305 7.37776 8.66528 7.2387 8.43657 7.14378C8.20786 7.04886 7.96269 6.99993 7.71506 6.99979C7.46743 6.99965 7.22221 7.04831 6.99339 7.14297C6.76457 7.23763 6.55665 7.37645 6.3815 7.5515L6.0295 7.9035C5.68915 7.80642 5.32897 7.80259 4.98663 7.89239C4.64429 7.9822 4.33237 8.16235 4.0835 8.414C3.70964 8.79166 3.49993 9.30159 3.49993 9.833C3.49993 10.3644 3.70964 10.8743 4.0835 11.252L4.5 11.6715V17H3V18H4.525C4.27669 18.2433 4.10647 18.555 4.03604 18.8955C3.96561 19.2359 3.99817 19.5896 4.12957 19.9114C4.26096 20.2333 4.48524 20.5087 4.77379 20.7026C5.06235 20.8965 5.40211 21 5.74975 21C6.09739 21 6.43715 20.8965 6.72571 20.7026C7.01426 20.5087 7.23854 20.2333 7.36993 19.9114C7.50133 19.5896 7.53389 19.2359 7.46346 18.8955C7.39303 18.555 7.22281 18.2433 6.9745 18H17.0255C16.7772 18.2433 16.607 18.555 16.5365 18.8955C16.4661 19.2359 16.4987 19.5896 16.6301 19.9114C16.7615 20.2333 16.9857 20.5087 17.2743 20.7026C17.5629 20.8965 17.9026 21 18.2502 21C18.5979 21 18.9376 20.8965 19.2262 20.7026C19.5148 20.5087 19.739 20.2333 19.8704 19.9114C20.0018 19.5896 20.0344 19.2359 19.964 18.8955C19.8935 18.555 19.7233 18.2433 19.475 18H21V17H19V15.5H19.033C20.12 15.5 21 14.612 21 13.5165C21.0007 13.1659 20.9086 12.8213 20.7329 12.5179C20.5573 12.2145 20.3044 11.963 20 11.789V5.5C20 5.23478 19.8946 4.98043 19.7071 4.79289C19.5196 4.60536 19.2652 4.5 19 4.5H16C15.8674 4.5 15.7402 4.44732 15.6464 4.35355C15.5527 4.25979 15.5 4.13261 15.5 4V3H14.5ZM6.913 8.434L9.058 10.594L9.2405 10.412C9.32274 10.3298 9.38798 10.2322 9.4325 10.1248C9.47701 10.0174 9.49992 9.90227 9.49992 9.786C9.49992 9.66973 9.47701 9.5546 9.4325 9.44719C9.38798 9.33978 9.32274 9.24219 9.2405 9.16L8.3405 8.26C8.25838 8.17769 8.16084 8.11237 8.05347 8.06777C7.94609 8.02317 7.83098 8.00017 7.71471 8.00008C7.59844 7.99999 7.48329 8.02281 7.37584 8.06723C7.26839 8.11166 7.17075 8.17682 7.0885 8.259L6.913 8.434ZM18 17H5.5V12.678L8.1375 15.3335C8.2435 15.44 8.3865 15.5 8.536 15.5H18V17Z" fill="#253439"/>
</svg>
