<svg width="24" height="24" viewBox="0 0 24 24" fill="none" xmlns="http://www.w3.org/2000/svg">
<path d="M5.59993 0L3.99993 8.8C3.76633 10.088 6.85114 10.6896 6.79994 12L6.39994 22.4C6.33913 24 7.99993 24 7.99993 24C7.99993 24 9.66073 24 9.59994 22.4L9.19993 12C9.15033 10.6912 11.9727 10.112 11.9999 8.8L10.3999 0H9.59994L9.99993 6.4L8.79993 7.2L8.39993 0H7.59993L7.19993 7.2L5.99993 6.4L6.39994 0H5.59993ZM19.1999 0C18.0223 0 16.0575 1.048 15.2719 2.6192C14.6159 3.7968 14.3999 6.4288 14.3999 8V12C14.3999 13.3088 16.1439 13.6 16.7999 13.6L15.9999 22.4C15.8559 23.9936 17.5999 24 17.5999 24C17.5999 24 19.1999 24 19.1999 22.4V0Z" fill="#253439"/>
</svg>
