<svg fill="none" height="20" viewBox="0 0 20 20" width="20" xmlns="http://www.w3.org/2000/svg">
    <circle cx="10" cy="10" fill="#9747ff" r="10" />
    <path
        d="M12.0156 8.57812C11.6547 8.57812 11.375 8.85781 11.375 9.20312C11.375 9.54844 11.6547 9.82812 12.0156 9.82812C12.3453 9.82812 12.625 9.54844 12.625 9.20312C12.625 8.85781 12.3453 8.57812 12.0156 8.57812ZM7.64062 8.57812C7.27969 8.57812 7 8.85781 7 9.20312C7 9.54844 7.27969 9.82812 7.64062 9.82812C7.97031 9.82812 8.25 9.54844 8.25 9.20312C8.25 8.85781 7.97031 8.57812 7.64062 8.57812Z"
        fill="white" />
    <path
        d="M15.9685 7.39035C15.217 6.3591 14.167 5.67003 13.0154 5.3591V5.36066C12.7482 5.06378 12.4467 4.79035 12.1092 4.5466C9.55135 2.68722 5.96073 3.25441 4.09354 5.81222C2.58885 7.89035 2.65292 10.6857 4.18729 12.6716L4.19979 14.7435C4.19979 14.7935 4.2076 14.8435 4.22323 14.8903C4.30604 15.1544 4.58729 15.2997 4.84979 15.2169L6.82792 14.5935C7.35135 14.7794 7.89198 14.8857 8.42948 14.9153L8.42167 14.9216C9.81385 15.9357 11.6389 16.2403 13.3123 15.6872L15.2982 16.3341C15.3482 16.3497 15.3998 16.3591 15.4529 16.3591C15.7295 16.3591 15.9529 16.1357 15.9529 15.8591V13.7653C17.3295 11.8966 17.3654 9.31379 15.9685 7.39035ZM7.04667 13.4841L6.85917 13.406L5.31229 13.8903L5.29667 12.2653L5.17167 12.1247C3.84979 10.5122 3.76229 8.18879 4.99979 6.4841C6.50604 4.41847 9.39354 3.96222 11.4529 5.45285C13.5185 6.95441 13.9764 9.83722 12.4842 11.8903C11.2326 13.6075 8.99198 14.2419 7.04667 13.4841ZM14.9373 13.2185L14.8123 13.3747L14.8279 14.9997L13.2967 14.4841L13.1092 14.5622C12.2342 14.8872 11.3014 14.9138 10.4373 14.6716L10.4342 14.67C11.5889 14.3153 12.6357 13.5966 13.3904 12.5622C14.5842 10.9169 14.7779 8.84972 14.0842 7.08722L14.0935 7.09347C14.4529 7.35128 14.7826 7.67316 15.0623 8.06222C16.1967 9.61847 16.1326 11.7372 14.9373 13.2185Z"
        fill="white" />
    <path
        d="M9.64062 8.57812C9.27969 8.57812 9 8.85781 9 9.20312C9 9.54844 9.27969 9.82812 9.64062 9.82812C9.97031 9.82812 10.25 9.54844 10.25 9.20312C10.25 8.85781 9.97031 8.57812 9.64062 8.57812Z"
        fill="white" />
</svg>
