<svg width="21" height="22" viewBox="0 0 21 22" fill="none" xmlns="http://www.w3.org/2000/svg">
    <path
        d="M9 0C7.67392 0 6.40215 0.526784 5.46447 1.46447C4.52678 2.40215 4 3.67392 4 5C4 6.32608 4.52678 7.59785 5.46447 8.53553C6.40215 9.47322 7.67392 10 9 10C10.3261 10 11.5979 9.47322 12.5355 8.53553C13.4732 7.59785 14 6.32608 14 5C14 3.67392 13.4732 2.40215 12.5355 1.46447C11.5979 0.526784 10.3261 0 9 0ZM9 11C6.605 11 4.425 11.694 2.822 12.672C2.022 13.16 1.338 13.736 0.844 14.362C0.358 14.976 0 15.713 0 16.5C0 17.345 0.411 18.011 1.003 18.486C1.563 18.936 2.302 19.234 3.087 19.442C4.665 19.859 6.771 20 9 20L9.685 19.995C9.85248 19.9927 10.0167 19.9484 10.1626 19.8661C10.3085 19.7838 10.4313 19.6662 10.5199 19.524C10.6085 19.3819 10.66 19.2198 10.6696 19.0525C10.6792 18.8853 10.6467 18.7184 10.575 18.567C10.1958 17.7644 9.99942 16.8877 10 16C10 14.748 10.383 13.588 11.037 12.627C11.1342 12.4842 11.1928 12.3186 11.207 12.1465C11.2212 11.9743 11.1905 11.8014 11.118 11.6446C11.0455 11.4878 10.9336 11.3524 10.7932 11.2517C10.6528 11.151 10.4888 11.0884 10.317 11.07C9.88633 11.0233 9.44733 11 9 11ZM18.616 13.469C18.6827 13.3552 18.7262 13.2294 18.7441 13.0987C18.762 12.9681 18.7538 12.8352 18.7201 12.7077C18.6864 12.5802 18.6278 12.4606 18.5477 12.3558C18.4676 12.2511 18.3675 12.1632 18.2533 12.0972C18.1391 12.0313 18.013 11.9886 17.8822 11.9716C17.7514 11.9546 17.6186 11.9636 17.4913 11.9982C17.364 12.0327 17.2449 12.0921 17.1406 12.1729C17.0364 12.2537 16.9492 12.3544 16.884 12.469L16.548 13.051C16.1855 12.9832 15.8136 12.9829 15.451 13.05L15.116 12.469C15.0508 12.3544 14.9636 12.2537 14.8594 12.1729C14.7551 12.0921 14.636 12.0327 14.5087 11.9982C14.3814 11.9636 14.2486 11.9546 14.1178 11.9716C13.987 11.9886 13.8609 12.0313 13.7467 12.0972C13.6325 12.1632 13.5324 12.2511 13.4523 12.3558C13.3722 12.4606 13.3136 12.5802 13.2799 12.7077C13.2462 12.8352 13.238 12.9681 13.2559 13.0987C13.2738 13.2294 13.3173 13.3552 13.384 13.469L13.719 14.049C13.4798 14.3297 13.2943 14.6521 13.172 15H12.5C12.2348 15 11.9804 15.1054 11.7929 15.2929C11.6054 15.4804 11.5 15.7348 11.5 16C11.5 16.2652 11.6054 16.5196 11.7929 16.7071C11.9804 16.8946 12.2348 17 12.5 17H13.171C13.294 17.3477 13.4802 17.6698 13.72 17.95L13.384 18.531C13.3173 18.6448 13.2738 18.7706 13.2559 18.9013C13.238 19.0319 13.2462 19.1648 13.2799 19.2923C13.3136 19.4198 13.3722 19.5394 13.4523 19.6442C13.5324 19.7489 13.6325 19.8368 13.7467 19.9028C13.8609 19.9687 13.987 20.0114 14.1178 20.0284C14.2486 20.0454 14.3814 20.0364 14.5087 20.0018C14.636 19.9673 14.7551 19.9079 14.8594 19.8271C14.9636 19.7463 15.0508 19.6456 15.116 19.531L15.452 18.95C15.811 19.016 16.182 19.018 16.549 18.95L16.884 19.531C16.9492 19.6456 17.0364 19.7463 17.1406 19.8271C17.2449 19.9079 17.364 19.9673 17.4913 20.0018C17.6186 20.0364 17.7514 20.0454 17.8822 20.0284C18.013 20.0114 18.1391 19.9687 18.2533 19.9028C18.3675 19.8368 18.4676 19.7489 18.5477 19.6442C18.6278 19.5394 18.6864 19.4198 18.7201 19.2923C18.7538 19.1648 18.762 19.0319 18.7441 18.9013C18.7262 18.7706 18.6827 18.6448 18.616 18.531L18.281 17.951C18.523 17.667 18.707 17.344 18.828 17H19.5C19.7652 17 20.0196 16.8946 20.2071 16.7071C20.3946 16.5196 20.5 16.2652 20.5 16C20.5 15.7348 20.3946 15.4804 20.2071 15.2929C20.0196 15.1054 19.7652 15 19.5 15H18.829C18.706 14.6523 18.5198 14.3302 18.28 14.05L18.616 13.469Z"
        fill="white" />
</svg>
