<svg width="21" height="22" viewBox="0 0 21 22" fill="none" xmlns="http://www.w3.org/2000/svg">
<path d="M10.1077 21.0291C8.73704 21.0291 7.44162 20.7657 6.22142 20.2388C5.00122 19.7119 3.93579 18.9932 3.02515 18.0825C2.11451 17.1719 1.39576 16.1065 0.868904 14.8863C0.342044 13.6661 0.0786133 12.3707 0.0786133 11C0.0786133 9.61266 0.342044 8.31323 0.868904 7.10172C1.39576 5.89021 2.11451 4.8288 3.02515 3.91749C3.93579 3.00618 5.00122 2.28743 6.22142 1.76124C7.44162 1.23505 8.73704 0.971616 10.1077 0.970947C11.495 0.970947 12.7948 1.23438 14.007 1.76124C15.2192 2.2881 16.2802 3.00685 17.1902 3.91749C18.1002 4.82813 18.8189 5.88954 19.3465 7.10172C19.874 8.3139 20.1374 9.61333 20.1368 11C20.1368 12.3707 19.8733 13.6661 19.3465 14.8863C18.8196 16.1065 18.1009 17.1722 17.1902 18.0835C16.2796 18.9949 15.2182 19.7136 14.006 20.2398C12.7938 20.766 11.4944 21.0291 10.1077 21.0291ZM10.1077 18.9731C10.5423 18.3714 10.9184 17.7446 11.236 17.0927C11.5535 16.4408 11.8126 15.7471 12.0132 15.0116H8.20216C8.40274 15.7471 8.66183 16.4408 8.97941 17.0927C9.297 17.7446 9.67309 18.3714 10.1077 18.9731ZM7.50012 18.572C7.19925 18.0204 6.93616 17.4477 6.71084 16.854C6.48552 16.2603 6.29731 15.6462 6.1462 15.0116H3.18762C3.67236 15.8474 4.27845 16.5745 5.0059 17.193C5.73334 17.8114 6.56475 18.2711 7.50012 18.572ZM12.7152 18.572C13.6513 18.2711 14.483 17.8114 15.2105 17.193C15.9379 16.5745 16.5437 15.8474 17.0277 15.0116H14.0692C13.9187 15.6468 13.7309 16.2613 13.5055 16.855C13.2802 17.4487 13.0168 18.021 12.7152 18.572ZM2.33515 13.0058H5.74504C5.69489 12.6715 5.65745 12.3416 5.63271 12.016C5.60797 11.6904 5.59527 11.3517 5.5946 11C5.59393 10.6483 5.60664 10.31 5.63271 9.98508C5.65879 9.66013 5.69623 9.32984 5.74504 8.9942H2.33515C2.25158 9.32851 2.18906 9.6588 2.14761 9.98508C2.10616 10.3114 2.0851 10.6497 2.08443 11C2.08376 11.3504 2.10482 11.689 2.14761 12.016C2.1904 12.3429 2.25292 12.6729 2.33515 13.0058ZM7.75085 13.0058H12.4645C12.5147 12.6715 12.5524 12.3416 12.5778 12.016C12.6033 11.6904 12.6156 11.3517 12.615 11C12.6143 10.6483 12.6016 10.31 12.5768 9.98508C12.5521 9.66013 12.5147 9.32984 12.4645 8.9942H7.75085C7.70071 9.32851 7.66327 9.6588 7.63853 9.98508C7.61379 10.3114 7.60108 10.6497 7.60042 11C7.59975 11.3504 7.61245 11.689 7.63853 12.016C7.6646 12.3429 7.70204 12.6729 7.75085 13.0058ZM14.4703 13.0058H17.8802C17.9638 12.6715 18.0266 12.3416 18.0688 12.016C18.1109 11.6904 18.1316 11.3517 18.1309 11C18.1303 10.6483 18.1095 10.31 18.0688 9.98508C18.028 9.66013 17.9651 9.32984 17.8802 8.9942H14.4703C14.5205 9.32851 14.5583 9.6588 14.5837 9.98508C14.6091 10.3114 14.6214 10.6497 14.6208 11C14.6201 11.3504 14.6074 11.689 14.5827 12.016C14.5579 12.3429 14.5205 12.6729 14.4703 13.0058ZM14.0692 6.98839H17.0277C16.543 6.15263 15.9372 5.42553 15.2105 4.80707C14.4837 4.18861 13.652 3.72894 12.7152 3.42807C13.0161 3.97967 13.2795 4.55233 13.5055 5.14605C13.7315 5.73977 13.9194 6.35388 14.0692 6.98839ZM8.20216 6.98839H12.0132C11.8126 6.25292 11.5535 5.55925 11.236 4.90736C10.9184 4.25547 10.5423 3.62865 10.1077 3.02691C9.67309 3.62865 9.297 4.25547 8.97941 4.90736C8.66183 5.55925 8.40274 6.25292 8.20216 6.98839ZM3.18762 6.98839H6.1462C6.29664 6.35322 6.48485 5.73877 6.71084 5.14505C6.93683 4.55133 7.19992 3.979 7.50012 3.42807C6.56408 3.72894 5.73233 4.18861 5.00489 4.80707C4.27745 5.42553 3.67169 6.15263 3.18762 6.98839Z" fill="#253439"/>
</svg>
