<svg width="26" height="26" viewBox="0 0 26 26" fill="none" xmlns="http://www.w3.org/2000/svg">
<path d="M19.5152 13.0737C19.5152 14.6802 18.8406 16.2209 17.6397 17.3568C16.4389 18.4928 14.8102 19.1309 13.1119 19.1309C11.4136 19.1309 9.78489 18.4928 8.58403 17.3568C7.38316 16.2209 6.70853 14.6802 6.70853 13.0737C6.70853 11.4672 7.38316 9.92655 8.58403 8.7906C9.78489 7.65465 11.4136 7.01648 13.1119 7.01648C14.8102 7.01648 16.4389 7.65465 17.6397 8.7906C18.8406 9.92655 19.5152 11.4672 19.5152 13.0737Z" fill="#FBBC04"/>
<path fill-rule="evenodd" clip-rule="evenodd" d="M13.1119 2.22116C13.3242 2.22116 13.5278 2.30093 13.6779 2.44293C13.828 2.58492 13.9124 2.77751 13.9124 2.97832V3.98785C13.9124 4.18866 13.828 4.38125 13.6779 4.52324C13.5278 4.66524 13.3242 4.74501 13.1119 4.74501C12.8997 4.74501 12.6961 4.66524 12.546 4.52324C12.3959 4.38125 12.3115 4.18866 12.3115 3.98785V2.97832C12.3115 2.77751 12.3959 2.58492 12.546 2.44293C12.6961 2.30093 12.8997 2.22116 13.1119 2.22116ZM4.99995 5.4002C5.15003 5.25841 5.35347 5.17877 5.56558 5.17877C5.77769 5.17877 5.98113 5.25841 6.13121 5.4002L6.55063 5.79594C6.69651 5.93867 6.77728 6.1299 6.77556 6.32842C6.77383 6.52695 6.68975 6.71689 6.54141 6.85734C6.39308 6.99779 6.19236 7.07751 5.98249 7.07933C5.77262 7.08114 5.5704 7.00492 5.41937 6.86706L4.99995 6.47031C4.85006 6.32834 4.76586 6.1359 4.76586 5.93525C4.76586 5.73461 4.85006 5.54217 4.99995 5.4002ZM21.2239 5.4002C21.3738 5.54217 21.458 5.73461 21.458 5.93525C21.458 6.1359 21.3738 6.32834 21.2239 6.47031L20.8045 6.86706C20.6528 7.0008 20.4521 7.07361 20.2447 7.07015C20.0374 7.06669 19.8395 6.98723 19.6929 6.84851C19.5462 6.70978 19.4622 6.52263 19.4586 6.32647C19.4549 6.13032 19.5319 5.94048 19.6733 5.79695L20.0927 5.4002C20.2428 5.25841 20.4462 5.17877 20.6583 5.17877C20.8704 5.17877 21.0739 5.25841 21.2239 5.4002ZM1.63925 13.0737C1.63925 12.8729 1.72358 12.6803 1.87369 12.5383C2.0238 12.3963 2.22739 12.3166 2.43967 12.3166H3.5069C3.71918 12.3166 3.92277 12.3963 4.07288 12.5383C4.22299 12.6803 4.30732 12.8729 4.30732 13.0737C4.30732 13.2745 4.22299 13.4671 4.07288 13.6091C3.92277 13.7511 3.71918 13.8309 3.5069 13.8309H2.43967C2.22739 13.8309 2.0238 13.7511 1.87369 13.6091C1.72358 13.4671 1.63925 13.2745 1.63925 13.0737ZM21.9166 13.0737C21.9166 12.8729 22.0009 12.6803 22.151 12.5383C22.3011 12.3963 22.5047 12.3166 22.717 12.3166H23.7842C23.9965 12.3166 24.2001 12.3963 24.3502 12.5383C24.5003 12.6803 24.5846 12.8729 24.5846 13.0737C24.5846 13.2745 24.5003 13.4671 24.3502 13.6091C24.2001 13.7511 23.9965 13.8309 23.7842 13.8309H22.717C22.5047 13.8309 22.3011 13.7511 22.151 13.6091C22.0009 13.4671 21.9166 13.2745 21.9166 13.0737ZM19.6733 19.2804C19.8233 19.1386 20.0268 19.0589 20.2389 19.0589C20.451 19.0589 20.6544 19.1386 20.8045 19.2804L21.2239 19.6771C21.3026 19.7464 21.3656 19.83 21.4094 19.9229C21.4531 20.0158 21.4767 20.116 21.4786 20.2177C21.4805 20.3193 21.4607 20.4203 21.4204 20.5146C21.3802 20.6089 21.3203 20.6945 21.2443 20.7664C21.1682 20.8383 21.0777 20.895 20.978 20.9331C20.8784 20.9712 20.7716 20.9899 20.6641 20.9881C20.5567 20.9863 20.4507 20.964 20.3525 20.9226C20.2543 20.8813 20.166 20.8216 20.0927 20.7472L19.6733 20.3505C19.5234 20.2085 19.4392 20.0161 19.4392 19.8154C19.4392 19.6148 19.5234 19.4223 19.6733 19.2804ZM6.55063 19.2804C6.70052 19.4223 6.78472 19.6148 6.78472 19.8154C6.78472 20.0161 6.70052 20.2085 6.55063 20.3505L6.13121 20.7472C6.05793 20.8216 5.96956 20.8813 5.87138 20.9226C5.7732 20.964 5.66721 20.9863 5.55973 20.9881C5.45226 20.9899 5.34551 20.9712 5.24584 20.9331C5.14617 20.895 5.05564 20.8383 4.97963 20.7664C4.90362 20.6945 4.84371 20.6089 4.80345 20.5146C4.76319 20.4203 4.74342 20.3193 4.74532 20.2177C4.74721 20.116 4.77074 20.0158 4.81449 19.9229C4.85823 19.83 4.92131 19.7464 4.99995 19.6771L5.4183 19.2804C5.49263 19.21 5.5809 19.1542 5.67804 19.1161C5.77519 19.078 5.87931 19.0584 5.98447 19.0584C6.08962 19.0584 6.19375 19.078 6.29089 19.1161C6.38804 19.1542 6.4763 19.21 6.55063 19.2804ZM13.1119 21.4024C13.3242 21.4024 13.5278 21.4822 13.6779 21.6242C13.828 21.7662 13.9124 21.9587 13.9124 22.1596V23.1691C13.9124 23.3699 13.828 23.5625 13.6779 23.7045C13.5278 23.8465 13.3242 23.9263 13.1119 23.9263C12.8997 23.9263 12.6961 23.8465 12.546 23.7045C12.3959 23.5625 12.3115 23.3699 12.3115 23.1691V22.1596C12.3115 21.9587 12.3959 21.7662 12.546 21.6242C12.6961 21.4822 12.8997 21.4024 13.1119 21.4024Z" fill="#FBBC04"/>
</svg>
