<svg width="19" height="20" viewBox="0 0 19 20" fill="none" xmlns="http://www.w3.org/2000/svg">
<path d="M13.5 15.5V17.5C13.5 17.6333 13.55 17.75 13.65 17.85C13.75 17.95 13.8667 18 14 18C14.1333 18 14.25 17.95 14.35 17.85C14.45 17.75 14.5 17.6333 14.5 17.5V15.5H16.5C16.6333 15.5 16.75 15.45 16.85 15.35C16.95 15.25 17 15.1333 17 15C17 14.8667 16.95 14.75 16.85 14.65C16.75 14.55 16.6333 14.5 16.5 14.5H14.5V12.5C14.5 12.3667 14.45 12.25 14.35 12.15C14.25 12.05 14.1333 12 14 12C13.8667 12 13.75 12.05 13.65 12.15C13.55 12.25 13.5 12.3667 13.5 12.5V14.5H11.5C11.3667 14.5 11.25 14.55 11.15 14.65C11.05 14.75 11 14.8667 11 15C11 15.1333 11.05 15.25 11.15 15.35C11.25 15.45 11.3667 15.5 11.5 15.5H13.5ZM14 20C12.6167 20 11.4377 19.5123 10.463 18.537C9.48833 17.5617 9.00067 16.3827 9 15C8.99933 13.6173 9.487 12.4383 10.463 11.463C11.439 10.4877 12.618 10 14 10C15.382 10 16.5613 10.4877 17.538 11.463C18.5147 12.4383 19.002 13.6173 19 15C18.998 16.3827 18.5103 17.562 17.537 18.538C16.5637 19.514 15.3847 20.0013 14 20ZM0 16V7C0 6.68333 0.0709998 6.38333 0.213 6.1C0.355 5.81667 0.550667 5.58333 0.8 5.4L6.8 0.9C6.98333 0.766667 7.175 0.666667 7.375 0.6C7.575 0.533333 7.78333 0.5 8 0.5C8.21667 0.5 8.425 0.533333 8.625 0.6C8.825 0.666667 9.01667 0.766667 9.2 0.9L15.25 5.45C15.3667 5.53333 15.4543 5.64167 15.513 5.775C15.5717 5.90833 15.6007 6.05 15.6 6.2C15.6 6.48333 15.504 6.721 15.312 6.913C15.12 7.105 14.8827 7.20067 14.6 7.2C14.4833 7.2 14.375 7.18333 14.275 7.15C14.175 7.11667 14.0833 7.06667 14 7L8 2.5L2 7V16H6C6.28333 16 6.521 16.096 6.713 16.288C6.905 16.48 7.00067 16.7173 7 17C6.99933 17.2827 6.90333 17.5203 6.712 17.713C6.52067 17.9057 6.28333 18.0013 6 18H2C1.45 18 0.979333 17.8043 0.588 17.413C0.196666 17.0217 0.000666667 16.5507 0 16Z" fill="#253439"/>
</svg>
