<svg width="16" height="16" viewBox="0 0 16 16" fill="none" xmlns="http://www.w3.org/2000/svg">
<path d="M2.36532 13.9586H13.632C13.7204 13.9586 13.8052 13.9235 13.8677 13.861C13.9302 13.7985 13.9653 13.7137 13.9653 13.6253C13.9653 13.5369 13.9302 13.4521 13.8677 13.3896C13.8052 13.3271 13.7204 13.292 13.632 13.292H2.36532C2.27691 13.292 2.19213 13.3271 2.12961 13.3896C2.0671 13.4521 2.03198 13.5369 2.03198 13.6253C2.03198 13.7137 2.0671 13.7985 2.12961 13.861C2.19213 13.9235 2.27691 13.9586 2.36532 13.9586ZM6.47332 11.4533C6.75477 11.3741 7.01162 11.2251 7.21998 11.02L13.58 4.65997C13.7978 4.44131 13.9201 4.14526 13.9201 3.83664C13.9201 3.52802 13.7978 3.23196 13.58 3.01331L12.9533 2.39331C12.7314 2.18178 12.4366 2.06378 12.13 2.06378C11.8234 2.06378 11.5286 2.18178 11.3066 2.39331L4.94665 8.74664C4.74156 8.95392 4.59444 9.21138 4.51998 9.49331L4.02665 11.3333C4.00345 11.4174 4.00296 11.5061 4.02521 11.5904C4.04746 11.6747 4.09166 11.7516 4.15332 11.8133C4.2478 11.9059 4.37437 11.9584 4.50665 11.96L6.47332 11.4533ZM6.74665 10.5466C6.62371 10.6717 6.46945 10.7615 6.29998 10.8066L5.65332 10.98L4.98665 10.3133L5.15998 9.66664C5.20601 9.49754 5.29567 9.34351 5.41998 9.21997L5.67332 8.97331L6.99998 10.3L6.74665 10.5466ZM7.47332 9.82664L6.14665 8.49997L10.6333 4.01331L11.96 5.33997L7.47332 9.82664ZM13.1067 4.19331L12.4333 4.86664L11.1066 3.53997L11.78 2.85997C11.8737 2.76634 12.0008 2.71375 12.1333 2.71375C12.2658 2.71375 12.3929 2.76634 12.4866 2.85997L13.1067 3.48664C13.1996 3.58073 13.2518 3.70769 13.2518 3.83997C13.2518 3.97226 13.1996 4.09921 13.1067 4.19331Z" fill="white"/>
</svg>
