<svg width="24" height="24" viewBox="0 0 24 24" fill="none" xmlns="http://www.w3.org/2000/svg">
<path d="M4.095 20.055L7.266 18.9975L7.821 19.275C9.096 19.911 10.5135 20.25 12 20.25C16.965 20.25 21 16.341 21 12C21 7.659 16.965 3.75 12 3.75C7.035 3.75 3 7.659 3 12C3 13.62 3.585 15.264 4.6605 16.6695L5.178 17.3445L4.0935 20.0535L4.095 20.055ZM3.0345 21.99C2.89876 22.0355 2.75284 22.0412 2.61397 22.0064C2.47511 21.9716 2.3491 21.8978 2.25084 21.7937C2.15257 21.6896 2.08615 21.5595 2.05942 21.4189C2.03269 21.2782 2.04677 21.1329 2.1 21L3.468 17.58C2.22 15.945 1.5 13.989 1.5 12C1.5 7.029 6 2.25 12 2.25C18 2.25 22.5 7.029 22.5 12C22.5 16.971 18 21.75 12 21.75C10.3173 21.7547 8.65666 21.3664 7.1505 20.616L3.0345 21.9885V21.99Z" fill="#253439"/>
<path d="M12 13.2C11.8425 13.2 11.6864 13.169 11.5408 13.1087C11.3952 13.0484 11.263 12.96 11.1515 12.8486C11.0401 12.7371 10.9517 12.6049 10.8914 12.4593C10.8311 12.3137 10.8 12.1576 10.8 12C10.8 11.8425 10.8311 11.6864 10.8914 11.5408C10.9517 11.3952 11.0401 11.263 11.1515 11.1515C11.263 11.0401 11.3952 10.9517 11.5408 10.8914C11.6864 10.8311 11.8425 10.8 12 10.8C12.3183 10.8 12.6235 10.9265 12.8486 11.1515C13.0736 11.3766 13.2 11.6818 13.2 12C13.2 12.3183 13.0736 12.6235 12.8486 12.8486C12.6235 13.0736 12.3183 13.2 12 13.2ZM16.5 13.2C16.3425 13.2 16.1864 13.169 16.0408 13.1087C15.8952 13.0484 15.763 12.96 15.6515 12.8486C15.5401 12.7371 15.4517 12.6049 15.3914 12.4593C15.3311 12.3137 15.3 12.1576 15.3 12C15.3 11.8425 15.3311 11.6864 15.3914 11.5408C15.4517 11.3952 15.5401 11.263 15.6515 11.1515C15.763 11.0401 15.8952 10.9517 16.0408 10.8914C16.1864 10.8311 16.3425 10.8 16.5 10.8C16.8183 10.8 17.1235 10.9265 17.3486 11.1515C17.5736 11.3766 17.7 11.6818 17.7 12C17.7 12.3183 17.5736 12.6235 17.3486 12.8486C17.1235 13.0736 16.8183 13.2 16.5 13.2ZM7.50005 13.2C7.34246 13.2 7.18642 13.169 7.04083 13.1087C6.89524 13.0484 6.76295 12.96 6.65152 12.8486C6.54009 12.7371 6.4517 12.6049 6.39139 12.4593C6.33109 12.3137 6.30005 12.1576 6.30005 12C6.30005 11.8425 6.33109 11.6864 6.39139 11.5408C6.4517 11.3952 6.54009 11.263 6.65152 11.1515C6.76295 11.0401 6.89524 10.9517 7.04083 10.8914C7.18642 10.8311 7.34246 10.8 7.50005 10.8C7.81831 10.8 8.12353 10.9265 8.34858 11.1515C8.57362 11.3766 8.70005 11.6818 8.70005 12C8.70005 12.3183 8.57362 12.6235 8.34858 12.8486C8.12353 13.0736 7.81831 13.2 7.50005 13.2Z" fill="#253439"/>
</svg>
