<svg width="27" height="28" viewBox="0 0 27 28" fill="none" xmlns="http://www.w3.org/2000/svg">
<path d="M16.8169 7.45176L19.5732 5.33821L16.0979 5.24015L14.943 1.97177L13.7882 5.24015L10.3128 5.33821L13.0692 7.45176L12.0777 10.7855L14.943 8.81358L17.8083 10.7855L16.8169 7.45176Z" fill="#253439"/>
<path d="M21.5997 14.2282L23.3864 12.8664L21.1421 12.8119L20.3904 10.6875L19.6386 12.8119L17.3943 12.8664L19.181 14.2282L18.5383 16.3853L20.3904 15.1107L22.2424 16.3853L21.5997 14.2282Z" fill="#253439"/>
<path d="M7.86155 7.4191C7.86155 14.043 13.2217 19.4032 19.8456 19.4032C20.423 19.4032 20.9896 19.3596 21.5452 19.2833C19.7911 21.9743 16.7624 23.761 13.3089 23.761C7.89424 23.761 3.50371 19.3705 3.50371 13.9559C3.50371 10.5023 5.29042 7.47358 7.98139 5.71954C7.90513 6.27517 7.86155 6.84169 7.86155 7.4191Z" fill="#253439" stroke="#253439" stroke-width="2.4902" stroke-linecap="round" stroke-linejoin="round"/>
</svg>
