<svg width="137" height="50" viewBox="0 0 137 50" fill="none" xmlns="http://www.w3.org/2000/svg">
<g clip-path="url(#clip0_2071_2808)">
<path d="M77.1639 13.108L76.3121 9.14616L75.1141 3.57578L75.0462 3.26133V3.26056L74.5726 1.0579C74.4947 0.697293 74.299 0.387975 74.0285 0.197802C73.758 0.00762827 73.4347 -0.0478697 73.1297 0.0434841L69.9824 0.98991L50.3179 6.90565C50.013 6.99782 49.7514 7.22927 49.5907 7.54922C49.4299 7.86917 49.3829 8.25149 49.4602 8.6123L50.1389 11.7691L51.8634 19.7878L52.512 22.8048L52.5453 22.9593H52.6891L52.6557 22.8048L52.0358 19.92V19.9192L50.2369 11.5551L49.5954 8.57213C49.5272 8.25363 49.5687 7.91616 49.7106 7.63373C49.8525 7.35131 50.0834 7.14699 50.3525 7.06558L69.9759 1.1622L73.1636 0.203415C73.4329 0.122813 73.7182 0.171817 73.957 0.339678C74.1958 0.507538 74.3686 0.780554 74.4374 1.09885L74.9404 3.43671L75.0083 3.75425L76.1724 9.1678L77.0196 13.108L77.0548 13.2734H77.1999L77.1639 13.108Z" fill="#CCCCCC"/>
<path d="M56.0011 18.6106C57.8611 18.6106 59.369 16.8272 59.369 14.6273C59.369 12.4274 57.8611 10.644 56.0011 10.644C54.1411 10.644 52.6333 12.4274 52.6333 14.6273C52.6333 16.8272 54.1411 18.6106 56.0011 18.6106Z" fill="#F2F2F2"/>
<path d="M63.6408 13.1079L63.8021 13.2732H61.2376C60.9598 13.2736 60.6934 13.4043 60.497 13.6366C60.3006 13.8689 60.1901 14.1839 60.1898 14.5125V23.9659L60.1526 26.2041L58.5137 24.4704L58.3601 24.5168L57.1451 23.2489C56.9663 23.062 56.7358 22.959 56.4972 22.9592H53.3003L53.3493 22.8047L53.9881 20.7859L57.6102 9.33226L57.9826 8.1556C58.0055 8.08327 58.0428 8.01857 58.0914 7.96701C58.14 7.91545 58.1985 7.87857 58.2618 7.85952C58.325 7.84047 58.3913 7.83981 58.4548 7.8576C58.5184 7.87539 58.5773 7.9111 58.6267 7.96168L61.0638 10.4626L62.4983 11.9351L63.6408 13.1079Z" fill="#E6E6E6"/>
<path d="M74.304 13.1079L74.466 13.2732H66.6182L66.6711 13.1079L68.3427 7.88905C68.3656 7.81697 68.4029 7.7525 68.4514 7.70113C68.4999 7.64975 68.5582 7.61298 68.6213 7.59395C68.6844 7.57491 68.7505 7.57417 68.8139 7.59179C68.8773 7.6094 68.9361 7.64485 68.9855 7.69513L72.3084 11.0775L72.4998 11.2714L74.304 13.1079Z" fill="#E6E6E6"/>
<path d="M77.3459 14.7295C77.0398 14.7292 76.7378 14.813 76.4637 14.9742C76.1896 15.1354 75.9509 15.3696 75.7664 15.6584C75.5683 15.5576 75.3521 15.5165 75.1373 15.5389C74.9225 15.5613 74.7157 15.6464 74.5356 15.7866C74.3554 15.9269 74.2076 16.1178 74.1052 16.3423C74.0029 16.5668 73.9493 16.8179 73.9492 17.073H79.3273C79.3273 16.7652 79.276 16.4605 79.1764 16.1762C79.0769 15.8918 78.9309 15.6335 78.7469 15.4159C78.5629 15.1983 78.3445 15.0256 78.1041 14.9079C77.8637 14.7901 77.6061 14.7295 77.3459 14.7295Z" fill="#E6E6E6"/>
<path d="M84.7749 13.1079H61.2373C60.9725 13.1085 60.7154 13.2135 60.5067 13.4063C60.298 13.5991 60.1496 13.8688 60.0851 14.1725V14.1733C60.0617 14.2842 60.0498 14.3981 60.0498 14.5125V26.279L60.1262 26.3586L60.1896 26.4251V14.5125C60.1899 14.1839 60.3004 13.8689 60.4968 13.6366C60.6932 13.4043 60.9595 13.2736 61.2373 13.2732H84.7749C85.0527 13.2735 85.3191 13.4041 85.5155 13.6365C85.712 13.8688 85.8224 14.1839 85.8226 14.5125V28.8309H85.8892C85.9137 28.8306 85.9381 28.8319 85.9624 28.8348V14.5125C85.962 14.1401 85.8367 13.7832 85.6141 13.5199C85.3915 13.2566 85.0897 13.1084 84.7749 13.1079Z" fill="#3F3D56"/>
<path d="M65.5643 23.9027C67.3265 23.9027 68.7551 22.2131 68.7551 20.1288C68.7551 18.0446 67.3265 16.355 65.5643 16.355C63.8021 16.355 62.3735 18.0446 62.3735 20.1288C62.3735 22.2131 63.8021 23.9027 65.5643 23.9027Z" fill="#3589A5"/>
<path d="M84.8014 28.8308H62.9165C62.6461 28.8299 62.3851 28.7132 62.1817 28.5025L61.6904 27.9902L61.7655 27.862L61.9014 27.6302L67.8 17.5857L68.4055 16.5543C68.4428 16.4909 68.4925 16.439 68.5504 16.4032C68.6083 16.3673 68.6727 16.3486 68.738 16.3486C68.8034 16.3486 68.8677 16.3673 68.9256 16.4032C68.9835 16.439 69.0333 16.4909 69.0705 16.5543L70.9113 19.6887V19.6895L71.9944 21.5337L74.5798 25.9359L78.5011 19.3156C78.5384 19.2524 78.588 19.2008 78.6458 19.1652C78.7036 19.1296 78.7678 19.111 78.8329 19.111C78.8981 19.111 78.9622 19.1296 79.02 19.1652C79.0778 19.2008 79.1274 19.2524 79.1647 19.3156L81.6803 23.5617L81.8247 23.8059L84.7099 28.6763L84.8014 28.8308Z" fill="#3F3D56"/>
<path d="M73.1116 18.6426C72.7339 18.6422 72.3614 18.7456 72.0232 18.9445C71.6851 19.1433 71.3906 19.4323 71.1629 19.7887C70.9185 19.6643 70.6518 19.6136 70.3867 19.6412C70.1217 19.6688 69.8666 19.7738 69.6443 19.9469C69.4221 20.1199 69.2396 20.3554 69.1134 20.6324C68.9871 20.9094 68.921 21.2192 68.9209 21.5339H75.5562C75.5562 21.1542 75.4929 20.7782 75.3701 20.4274C75.2472 20.0766 75.0672 19.7579 74.8402 19.4894C74.6132 19.2209 74.3437 19.008 74.0471 18.8627C73.7505 18.7174 73.4326 18.6426 73.1116 18.6426Z" fill="#CCCCCC"/>
<path d="M61.6859 27.7786L60.8733 26.9319L60.8714 26.9303L60.8688 26.928L60.8668 26.9257C60.8413 26.9041 60.8158 26.8817 60.791 26.8585C60.7845 26.8531 60.7786 26.8477 60.7727 26.8423C60.7695 26.8392 60.7668 26.8368 60.7636 26.8338C60.7623 26.833 60.7616 26.8314 60.7603 26.8307C60.742 26.8137 60.7231 26.7959 60.7048 26.7781C60.6957 26.7704 60.6872 26.7619 60.678 26.7534C60.6532 26.7295 60.6284 26.7047 60.6035 26.68C60.5774 26.6537 60.5513 26.6275 60.5252 26.6004C60.5245 26.5997 60.5232 26.5989 60.5226 26.5981C60.5173 26.5927 60.5127 26.5873 60.5075 26.5827C60.4827 26.5564 60.4579 26.5301 60.4331 26.5023C60.4122 26.4799 60.3912 26.4567 60.371 26.4343C60.352 26.4135 60.3331 26.3926 60.3148 26.3702L60.3109 26.3656C60.2972 26.3501 60.2835 26.3339 60.2691 26.3169C60.2554 26.3014 60.2423 26.2852 60.2292 26.269C60.2155 26.2535 60.2025 26.2373 60.19 26.2211L60.1796 26.2087L60.1763 26.2049L60.0503 26.0727V26.279L60.1267 26.3586L60.19 26.4251L61.5324 27.825L61.6585 27.9571L61.6905 27.9903L61.7206 27.9386L61.7656 27.8621L61.6859 27.7786ZM81.195 28.6764C81.197 28.7274 81.2003 28.7791 81.2035 28.8309H85.8231V28.6764H81.195ZM61.6859 27.7786L60.8733 26.9319L60.8714 26.9303L60.8688 26.928L60.8668 26.9257C60.8413 26.9041 60.8158 26.8817 60.791 26.8585C60.7845 26.8531 60.7786 26.8477 60.7727 26.8423C60.7695 26.8392 60.7668 26.8368 60.7636 26.8338C60.7623 26.833 60.7616 26.8314 60.7603 26.8307C60.742 26.8137 60.7231 26.7959 60.7048 26.7781C60.6957 26.7704 60.6872 26.7619 60.678 26.7534C60.6532 26.7295 60.6284 26.7047 60.6035 26.68C60.5774 26.6537 60.5513 26.6275 60.5252 26.6004C60.5245 26.5997 60.5232 26.5989 60.5226 26.5981C60.5173 26.5927 60.5127 26.5873 60.5075 26.5827C60.4827 26.5564 60.4579 26.5301 60.4331 26.5023C60.4122 26.4799 60.3912 26.4567 60.371 26.4343C60.352 26.4135 60.3331 26.3926 60.3148 26.3702L60.3109 26.3656C60.2972 26.3501 60.2835 26.3339 60.2691 26.3169C60.2554 26.3014 60.2423 26.2852 60.2292 26.269C60.2155 26.2535 60.2025 26.2373 60.19 26.2211L60.1796 26.2087L60.1763 26.2049L60.0503 26.0727V26.279L60.1267 26.3586L60.19 26.4251L61.5324 27.825L61.6585 27.9571L61.6905 27.9903L61.7206 27.9386L61.7656 27.8621L61.6859 27.7786ZM84.71 28.6764H81.195C81.197 28.7274 81.2003 28.7791 81.2035 28.8309H84.8015L84.71 28.6764ZM61.6859 27.7786L60.8733 26.9319L60.8714 26.9303L60.8688 26.928L60.8668 26.9257C60.8413 26.9041 60.8158 26.8817 60.791 26.8585C60.7845 26.8531 60.7786 26.8477 60.7727 26.8423C60.7695 26.8392 60.7668 26.8368 60.7636 26.8338C60.7623 26.833 60.7616 26.8314 60.7603 26.8307C60.742 26.8137 60.7231 26.7959 60.7048 26.7781C60.6957 26.7704 60.6872 26.7619 60.678 26.7534C60.6532 26.7295 60.6284 26.7047 60.6035 26.68C60.5774 26.6537 60.5513 26.6275 60.5252 26.6004C60.5245 26.5997 60.5232 26.5989 60.5226 26.5981C60.5173 26.5927 60.5127 26.5873 60.5075 26.5827C60.4827 26.5564 60.4579 26.5301 60.4331 26.5023C60.4122 26.4799 60.3912 26.4567 60.371 26.4343C60.352 26.4135 60.3331 26.3926 60.3148 26.3702L60.3109 26.3656C60.2972 26.3501 60.2835 26.3339 60.2691 26.3169C60.2554 26.3014 60.2423 26.2852 60.2292 26.269C60.2155 26.2535 60.2025 26.2373 60.19 26.2211L60.1796 26.2087L60.1763 26.2049L60.0503 26.0727V26.279L60.1267 26.3586L60.19 26.4251L61.5324 27.825L61.6585 27.9571L61.6905 27.9903L61.7206 27.9386L61.7656 27.8621L61.6859 27.7786ZM58.5139 24.4704L57.2316 23.133C57.0289 22.9214 56.7678 22.8046 56.4974 22.8047H52.6558L52.6891 22.9592H56.4974C56.7361 22.959 56.9665 23.062 57.1454 23.2489L58.3604 24.5168L60.0503 26.279V26.0727L58.5139 24.4704ZM85.9629 28.6795C85.9387 28.6772 85.9146 28.6764 85.8897 28.6764H62.9166C62.6958 28.6767 62.4814 28.5885 62.3084 28.4261C62.2947 28.4137 62.2817 28.4006 62.2686 28.3867L61.8127 27.9107L61.7656 27.8621L61.6859 27.7786L60.8733 26.9319L60.8714 26.9303L60.8688 26.928L60.8668 26.9257L60.324 26.3586L60.19 26.2188L60.1796 26.2087L60.1763 26.2049L60.0503 26.0727L58.5139 24.4704L57.2316 23.133C57.0289 22.9214 56.7678 22.8046 56.4974 22.8047L50.8771 22.8047C50.5827 22.8052 50.3005 22.9437 50.0923 23.1899C49.8841 23.4361 49.767 23.7699 49.7666 24.1181V48.6865C49.767 49.0347 49.8841 49.3685 50.0923 49.6147C50.3005 49.8609 50.5827 49.9994 50.8771 49.9999H85.8897C86.1841 49.9994 86.4664 49.8609 86.6745 49.6147C86.8827 49.3685 86.9998 49.0347 87.0002 48.6865V29.9898C86.9997 29.6566 86.8924 29.3361 86.6999 29.0929C86.5073 28.8497 86.244 28.7019 85.9629 28.6795ZM86.8696 48.6865C86.8693 48.9938 86.7659 49.2883 86.5822 49.5056C86.3986 49.7228 86.1495 49.845 85.8897 49.8454H50.8771C50.6173 49.845 50.3683 49.7228 50.1846 49.5056C50.0009 49.2883 49.8976 48.9938 49.8972 48.6865V24.1181C49.8976 23.8109 50.0009 23.5163 50.1846 23.299C50.3683 23.0818 50.6173 22.9596 50.8771 22.9592H56.4974C56.7361 22.959 56.9665 23.062 57.1454 23.2489L58.3604 24.5168L60.0503 26.279L60.1267 26.3586L60.19 26.4251L61.5324 27.825L61.6585 27.9571L61.6905 27.9903L62.1817 28.5026C62.3851 28.7133 62.6462 28.83 62.9166 28.8309H85.8897C85.9142 28.8306 85.9386 28.8319 85.9629 28.8348C86.2093 28.8568 86.4395 28.988 86.6076 29.2021C86.7757 29.4163 86.8693 29.6976 86.8696 29.9898L86.8696 48.6865ZM61.6859 27.7786L60.8733 26.9319L60.8714 26.9303L60.8688 26.928L60.8668 26.9257C60.8413 26.9041 60.8158 26.8817 60.791 26.8585C60.7845 26.8531 60.7786 26.8477 60.7727 26.8423C60.7695 26.8392 60.7668 26.8368 60.7636 26.8338C60.7623 26.833 60.7616 26.8314 60.7603 26.8307C60.742 26.8137 60.7231 26.7959 60.7048 26.7781C60.6957 26.7704 60.6872 26.7619 60.678 26.7534C60.6532 26.7295 60.6284 26.7047 60.6035 26.68C60.5774 26.6537 60.5513 26.6275 60.5252 26.6004C60.5245 26.5997 60.5232 26.5989 60.5226 26.5981C60.5173 26.5927 60.5127 26.5873 60.5075 26.5827C60.4827 26.5564 60.4579 26.5301 60.4331 26.5023C60.4122 26.4799 60.3912 26.4567 60.371 26.4343C60.352 26.4135 60.3331 26.3926 60.3148 26.3702L60.3109 26.3656C60.2972 26.3501 60.2835 26.3339 60.2691 26.3169C60.2554 26.3014 60.2423 26.2852 60.2292 26.269C60.2155 26.2535 60.2025 26.2373 60.19 26.2211L60.1796 26.2087L60.1763 26.2049L60.0503 26.0727V26.279L60.1267 26.3586L60.19 26.4251L61.5324 27.825L61.6585 27.9571L61.6905 27.9903L61.7206 27.9386L61.7656 27.8621L61.6859 27.7786ZM81.195 28.6764C81.197 28.7274 81.2003 28.7791 81.2035 28.8309H85.8231V28.6764H81.195ZM61.6859 27.7786L60.8733 26.9319L60.8714 26.9303L60.8688 26.928L60.8668 26.9257C60.8413 26.9041 60.8158 26.8817 60.791 26.8585C60.7845 26.8531 60.7786 26.8477 60.7727 26.8423C60.7695 26.8392 60.7668 26.8368 60.7636 26.8338C60.7623 26.833 60.7616 26.8314 60.7603 26.8307C60.742 26.8137 60.7231 26.7959 60.7048 26.7781C60.6957 26.7704 60.6872 26.7619 60.678 26.7534C60.6532 26.7295 60.6284 26.7047 60.6035 26.68C60.5774 26.6537 60.5513 26.6275 60.5252 26.6004C60.5245 26.5997 60.5232 26.5989 60.5226 26.5981C60.5173 26.5927 60.5127 26.5873 60.5075 26.5827C60.4827 26.5564 60.4579 26.5301 60.4331 26.5023C60.4122 26.4799 60.3912 26.4567 60.371 26.4343C60.352 26.4135 60.3331 26.3926 60.3148 26.3702L60.3109 26.3656C60.2972 26.3501 60.2835 26.3339 60.2691 26.3169C60.2554 26.3014 60.2423 26.2852 60.2292 26.269C60.2155 26.2535 60.2025 26.2373 60.19 26.2211L60.1796 26.2087L60.1763 26.2049L60.0503 26.0727V26.279L60.1267 26.3586L60.19 26.4251L61.5324 27.825L61.6585 27.9571L61.6905 27.9903L61.7206 27.9386L61.7656 27.8621L61.6859 27.7786ZM61.6859 27.7786L60.8733 26.9319L60.8714 26.9303L60.8688 26.928L60.8668 26.9257C60.8413 26.9041 60.8158 26.8817 60.791 26.8585C60.7845 26.8531 60.7786 26.8477 60.7727 26.8423C60.7695 26.8392 60.7668 26.8368 60.7636 26.8338C60.7623 26.833 60.7616 26.8314 60.7603 26.8307C60.742 26.8137 60.7231 26.7959 60.7048 26.7781C60.6957 26.7704 60.6872 26.7619 60.678 26.7534C60.6532 26.7295 60.6284 26.7047 60.6035 26.68C60.5774 26.6537 60.5513 26.6275 60.5252 26.6004C60.5245 26.5997 60.5232 26.5989 60.5226 26.5981C60.5173 26.5927 60.5127 26.5873 60.5075 26.5827C60.4827 26.5564 60.4579 26.5301 60.4331 26.5023C60.4122 26.4799 60.3912 26.4567 60.371 26.4343C60.352 26.4135 60.3331 26.3926 60.3148 26.3702L60.3109 26.3656C60.2972 26.3501 60.2835 26.3339 60.2691 26.3169C60.2554 26.3014 60.2423 26.2852 60.2292 26.269C60.2155 26.2535 60.2025 26.2373 60.19 26.2211L60.1796 26.2087L60.1763 26.2049L60.0503 26.0727V26.279L60.1267 26.3586L60.19 26.4251L61.5324 27.825L61.6585 27.9571L61.6905 27.9903L61.7206 27.9386L61.7656 27.8621L61.6859 27.7786ZM84.71 28.6764H81.195C81.197 28.7274 81.2003 28.7791 81.2035 28.8309H84.8015L84.71 28.6764Z" fill="#3F3D56"/>
<path d="M40.458 24.1646V22.3413C40.458 21.6139 40.7023 20.9163 41.1372 20.402C41.5721 19.8876 42.1619 19.5986 42.7769 19.5986C43.392 19.5986 43.9818 19.8876 44.4167 20.402C44.8516 20.9163 45.0959 21.6139 45.0959 22.3413V24.1646C45.0958 24.2035 45.0828 24.2409 45.0595 24.2684C45.0362 24.2959 45.0047 24.3114 44.9717 24.3114H44.8324C44.8083 24.3114 44.7849 24.3032 44.7647 24.2877C44.7446 24.2722 44.7287 24.2502 44.7189 24.2242L44.6859 24.1363C44.6804 24.1218 44.6709 24.1099 44.6588 24.1026C44.6468 24.0954 44.6331 24.0933 44.6199 24.0966C44.6067 24.0999 44.5949 24.1084 44.5864 24.1208C44.5779 24.1332 44.5733 24.1487 44.5733 24.1646C44.5733 24.2035 44.5602 24.2409 44.5369 24.2684C44.5136 24.2959 44.4821 24.3114 44.4492 24.3114H40.5821C40.5492 24.3114 40.5177 24.2959 40.4944 24.2684C40.4711 24.2409 40.458 24.2035 40.458 24.1646Z" fill="#2F2E41"/>
<path d="M45.3278 48.9425H46.1286L46.5096 45.2891L45.3276 45.2891L45.3278 48.9425Z" fill="#FFB8B8"/>
<path d="M47.6733 49.8223L45.1564 49.8224L45.1564 48.6723L46.7009 48.6722C46.9588 48.6722 47.2061 48.7933 47.3885 49.009C47.5709 49.2247 47.6733 49.5172 47.6733 49.8223Z" fill="#2F2E41"/>
<path d="M39.3834 48.9425H40.1843L40.5652 45.2891L39.3833 45.2891L39.3834 48.9425Z" fill="#FFB8B8"/>
<path d="M41.729 49.8223L39.2121 49.8224L39.212 48.6723L40.7565 48.6722C41.0144 48.6722 41.2618 48.7933 41.4442 49.009C41.6265 49.2247 41.729 49.5172 41.729 49.8223Z" fill="#2F2E41"/>
<path d="M44.0249 45.6669L42.4764 38.223C42.4633 38.1601 42.4316 38.1048 42.3869 38.0673C42.3423 38.0297 42.2877 38.0124 42.2332 38.0184C42.1787 38.0244 42.1278 38.0533 42.0898 38.1C42.0518 38.1466 42.0292 38.2079 42.0261 38.2725L41.6814 45.5527C41.6792 45.599 41.6692 45.6443 41.652 45.6859C41.6348 45.7275 41.6107 45.7647 41.5812 45.7951C41.5517 45.8256 41.5173 45.8488 41.4801 45.8633C41.4429 45.8778 41.4036 45.8834 41.3645 45.8797L38.6113 45.6192C38.5364 45.6122 38.4665 45.5714 38.4162 45.5053C38.3659 45.4392 38.3389 45.3527 38.3409 45.2638C38.3772 43.662 39.0704 32.4873 41.0475 30.0445C41.0823 30.0025 41.1256 29.9716 41.1733 29.9548C41.2211 29.938 41.2716 29.9359 41.3202 29.9486L43.9605 30.7986C44.015 30.8127 44.065 30.8449 44.1046 30.8914C44.1443 30.9378 44.172 30.9966 44.1845 31.0609L47.0936 44.9296C47.1022 44.975 47.1031 45.022 47.0961 45.0677C47.0892 45.1135 47.0745 45.1571 47.0531 45.1961C47.0316 45.235 47.0037 45.2685 46.9711 45.2945C46.9385 45.3205 46.9018 45.3385 46.8633 45.3474L44.3668 45.925C44.2927 45.9423 44.2158 45.9251 44.1521 45.8771C44.0884 45.829 44.0428 45.7537 44.0249 45.6669Z" fill="#2F2E41"/>
<path d="M43.0936 24.2712C43.9797 24.2712 44.698 23.4216 44.698 22.3736C44.698 21.3256 43.9797 20.4761 43.0936 20.4761C42.2076 20.4761 41.4893 21.3256 41.4893 22.3736C41.4893 23.4216 42.2076 24.2712 43.0936 24.2712Z" fill="#FFB8B8"/>
<path d="M43.9272 31.0052L41.1572 30.2697C41.0969 30.2538 41.0425 30.2158 41.0015 30.1612C40.9606 30.1065 40.9352 30.038 40.9291 29.9654L40.7364 27.7074C40.6843 27.1047 40.8211 26.5003 41.1208 26.009C41.4205 25.5176 41.8623 25.1735 42.3623 25.0418C42.3846 25.036 42.4068 25.0304 42.4289 25.0249C42.7732 24.9395 43.1302 24.96 43.4658 25.0845C43.8014 25.2089 44.1044 25.4331 44.3458 25.7357C44.5936 26.0407 44.7712 26.4158 44.8614 26.8251C44.9517 27.2345 44.9516 27.6644 44.8613 28.0737L44.2762 30.7529C44.2602 30.8275 44.2236 30.8936 44.1723 30.9409C44.121 30.9881 44.0578 31.0138 43.9927 31.0138C43.9707 31.0138 43.9487 31.0109 43.9272 31.0052Z" fill="#3589A5"/>
<path d="M37.0596 34.4286C37.0214 34.3365 37.0008 34.2357 36.9991 34.1332C36.9975 34.0307 37.0149 33.929 37.05 33.8353C37.0852 33.7416 37.1374 33.6581 37.2028 33.5908C37.2681 33.5235 37.3452 33.474 37.4286 33.4457L39.4335 28.5996L40.4678 29.5105L38.1793 33.9732C38.2101 34.1419 38.1876 34.3182 38.1159 34.4686C38.0443 34.6189 37.9284 34.733 37.7904 34.7891C37.6524 34.8453 37.5018 34.8396 37.3671 34.7731C37.2324 34.7067 37.1229 34.5841 37.0596 34.4286Z" fill="#FFB8B8"/>
<path d="M50.6983 31.8205C50.6983 31.718 50.6793 31.6167 50.6426 31.5238C50.606 31.4309 50.5525 31.3486 50.486 31.2828C50.4196 31.217 50.3417 31.1692 50.2579 31.1428C50.1742 31.1164 50.0865 31.1121 50.0012 31.1301L46.3972 27.8228L45.8076 29.1792L49.5235 31.9946C49.5585 32.1622 49.6444 32.3087 49.7647 32.4064C49.885 32.5041 50.0315 32.5463 50.1763 32.5248C50.3211 32.5033 50.4542 32.4198 50.5505 32.29C50.6467 32.1602 50.6993 31.9931 50.6983 31.8205Z" fill="#FFB8B8"/>
<path d="M40.3787 29.8983C40.3379 29.8983 40.2978 29.8861 40.2621 29.8628L39.1764 29.157C39.1218 29.1216 39.0808 29.0628 39.0619 28.9927C39.0429 28.9226 39.0474 28.8466 39.0743 28.7802L40.168 26.0923C40.2673 25.84 40.4413 25.6394 40.6571 25.5284C40.8122 25.4508 40.9822 25.4241 41.1491 25.4512C41.316 25.4783 41.4737 25.5581 41.6055 25.6823C41.7076 25.7769 41.7912 25.8967 41.8502 26.0334C41.9224 26.1957 41.9593 26.3768 41.9574 26.5603C41.9556 26.7437 41.9151 26.9237 41.8396 27.0839L40.592 29.75C40.5709 29.795 40.54 29.8325 40.5024 29.8586C40.4649 29.8846 40.4222 29.8984 40.3787 29.8983Z" fill="#3589A5"/>
<path d="M45.8436 29.4249L43.731 27.6806C43.6036 27.576 43.5002 27.4355 43.4303 27.2717C43.3604 27.108 43.326 26.9262 43.3305 26.7428C43.3326 26.5894 43.363 26.4383 43.4195 26.3001C43.4916 26.12 43.6035 25.9663 43.7433 25.8551C43.8831 25.7438 44.0456 25.6793 44.2138 25.6682C44.4489 25.6554 44.6798 25.745 44.8629 25.9199L46.8453 27.7639C46.8942 27.8094 46.9265 27.8753 46.9356 27.9481C46.9446 28.021 46.9297 28.0951 46.8939 28.1553L46.1818 29.3544C46.1447 29.4166 46.0884 29.459 46.025 29.4722C45.9616 29.4854 45.8964 29.4684 45.8436 29.4249Z" fill="#3589A5"/>
<path d="M41.2417 21.723C41.2417 21.2005 41.4172 20.6994 41.7296 20.33C42.042 19.9605 42.4656 19.7529 42.9074 19.7529C43.3492 19.7529 43.7729 19.9605 44.0853 20.33C44.3976 20.6994 44.5731 21.2005 44.5731 21.723V21.8389H44.1419C44.1243 21.8389 44.107 21.8339 44.0914 21.8244C44.0758 21.8149 44.0623 21.8012 44.0521 21.7843L43.9737 21.6547C43.9679 21.645 43.9596 21.6379 43.95 21.6346C43.9404 21.6312 43.9301 21.6317 43.9207 21.636C43.9114 21.6403 43.9035 21.6481 43.8984 21.6583C43.8933 21.6685 43.8912 21.6804 43.8924 21.6922C43.8943 21.7106 43.893 21.7292 43.8884 21.7469C43.8837 21.7646 43.876 21.7809 43.8656 21.7948C43.8553 21.8087 43.8425 21.8198 43.8283 21.8274C43.814 21.835 43.7985 21.8389 43.7829 21.8389H41.2417V21.723Z" fill="#2F2E41"/>
<path d="M84.0982 49.0343H52.3412C52.0655 49.0339 51.8011 48.9042 51.6062 48.6736C51.4112 48.4431 51.3016 48.1304 51.3013 47.8043V25.5204C51.3016 25.1944 51.4112 24.8817 51.6062 24.6512C51.8011 24.4206 52.0655 24.2909 52.3412 24.2905C52.585 24.2909 52.8188 24.4056 52.9912 24.6095C53.1637 24.8134 53.2607 25.09 53.2609 25.3784V46.3364C53.2612 46.642 53.364 46.935 53.5467 47.1511C53.7294 47.3672 53.9771 47.4887 54.2355 47.4891H83.991C84.1388 47.4871 84.2829 47.5438 84.4003 47.6501C84.5177 47.7563 84.6016 47.906 84.6387 48.0753C84.6802 48.2358 84.675 48.4081 84.624 48.5647C84.573 48.7214 84.4791 48.8533 84.3573 48.9394C84.2801 48.9989 84.1904 49.0317 84.0982 49.0343Z" fill="#F2F2F2"/>
</g>
<g clip-path="url(#clip1_2071_2808)">
<path opacity="0.2" d="M26.8633 22.3622L26.4537 22.3613L24.8828 22.3582L24.5339 22.3578L23.4758 22.356L23.2143 22.3551H23.0983L17.6416 22.3454L17.5549 22.3449H17.4723L17.1406 22.344L16.2039 22.3427L15.752 22.3418L14.814 22.3401V13.5227L26.3854 12.8594L26.795 12.8359L26.8633 22.3622Z" fill="black"/>
<path d="M26.4541 22.3613V22.3622L25.3072 22.36L24.8832 22.3591L24.5344 22.3587L24.0333 22.3578L23.8333 22.3573L23.4769 22.3569L23.2919 22.3564H23.2148L23.1008 22.356H23.0987L22.2379 22.3547L22.0822 22.3542L19.8751 22.3502L19.4785 22.3494L17.8598 22.3463L17.6421 22.3458H17.5547C17.5551 22.3456 17.5553 22.3453 17.5554 22.3449H17.4727L17.141 22.344L16.2043 22.3427V22.3432L15.7524 22.3423L15.4418 22.3418H15.3721L14.4048 22.3401V13.5227L26.3858 12.8359V12.8594L26.4541 22.3613Z" fill="#E6E6E6"/>
<path opacity="0.2" d="M20.412 12.6809C20.6759 12.6809 20.8898 12.542 20.8898 12.3707C20.8898 12.1994 20.6759 12.0605 20.412 12.0605C20.148 12.0605 19.9341 12.1994 19.9341 12.3707C19.9341 12.542 20.148 12.6809 20.412 12.6809Z" fill="black"/>
<path d="M20.139 12.6809C20.4029 12.6809 20.6169 12.542 20.6169 12.3707C20.6169 12.1994 20.4029 12.0605 20.139 12.0605C19.8751 12.0605 19.6611 12.1994 19.6611 12.3707C19.6611 12.542 19.8751 12.6809 20.139 12.6809Z" fill="#3F3D56"/>
<path opacity="0.2" d="M24.1331 12L16.6475 12.3882L16.691 12.7415L24.1766 12.3534L24.1331 12Z" fill="black"/>
<path d="M23.8601 12L16.3745 12.3882L16.418 12.7415L23.9036 12.3534L23.8601 12Z" fill="#E6E6E6"/>
<path opacity="0.56" d="M24.5635 20.3948C24.162 19.4076 23.9484 19.3314 23.9484 19.3314L21.6846 18.5919L21.6696 18.5884L20.3971 19.1976L19.8489 18.65L19.8216 18.6345C19.8216 18.6345 19.81 18.6376 19.7874 18.6433C19.5908 18.6947 18.5784 18.9663 17.8268 19.2893L17.8036 19.2871L16.9168 19.5734L16.7577 19.9548L16.5741 20.3948L15.9419 22.301V22.3014L16.3938 22.3023V22.3019L17.3305 22.3032L17.4779 21.8335L17.6622 22.3041H17.7449C17.7448 22.3044 17.7446 22.3047 17.7442 22.305H17.8315L18.0493 22.3054L19.668 22.3085L20.0646 22.3094L22.2717 22.3134L22.4274 22.3138L23.2882 22.3151H23.2903L23.4043 22.3156V22.3143L23.463 21.8991L23.4985 21.783L23.6657 22.3151L23.6664 22.316L24.0228 22.3165L24.2228 22.3169L24.7239 22.3178L25.0727 22.3182V22.3174C24.9765 21.8951 24.7109 20.7582 24.5635 20.3948Z" fill="#3589A5"/>
<path opacity="0.56" d="M22.5988 17.4682L22.5996 17.4702C22.5986 17.4703 22.5984 17.4696 22.5988 17.4682C22.5898 17.448 22.4754 17.2091 22.1481 17.332C21.8066 17.4603 21.3984 16.6548 21.3984 16.6548C21.3984 16.6548 20.3702 16.8385 19.7425 16.8103C19.6999 16.8084 19.6581 16.8018 19.6188 16.791C19.4752 16.9842 19.427 17.2014 19.481 17.413C19.535 17.6246 19.6885 17.8202 19.9205 17.9729L19.8097 18.614L20.3793 19.1891L21.6453 18.5729C21.6453 18.5729 21.6613 18.7297 21.7132 18.1926C21.9584 18.1215 22.1722 18.0115 22.3349 17.8728C22.4976 17.7342 22.604 17.5711 22.6443 17.3988C22.6187 17.4367 22.6008 17.4613 22.5988 17.4682Z" fill="#FFB8B8"/>
<path opacity="0.56" d="M22.6442 17.4403C22.7841 17.2338 23.1589 16.626 22.5007 16.2598C21.9561 15.9569 20.0351 15.6865 19.4211 16.4909C19.3978 16.5215 19.3844 16.555 19.3818 16.5891C19.3792 16.6233 19.3874 16.6574 19.4059 16.6895C19.4245 16.7215 19.4529 16.7507 19.4895 16.7753C19.5261 16.7999 19.5701 16.8194 19.6187 16.8325C19.6276 16.8206 19.6376 16.8092 19.6472 16.7976C19.6779 16.8046 19.7099 16.809 19.7424 16.8107C20.3701 16.8389 21.3983 16.6552 21.3983 16.6552C21.3983 16.6552 21.8065 17.4607 22.148 17.3324C22.4753 17.2095 22.5897 17.4484 22.5987 17.4686C22.6007 17.4617 22.6186 17.4371 22.6442 17.3992C22.6546 17.3533 22.6602 17.3069 22.6611 17.2605C22.6614 17.2686 22.662 17.2767 22.662 17.2849C22.662 17.3369 22.6561 17.3889 22.6442 17.4403Z" fill="#2F2E41"/>
<path d="M10.5133 38.9998C16.3196 38.9998 21.0266 38.5237 21.0266 37.9364C21.0266 37.3491 16.3196 36.873 10.5133 36.873C4.70695 36.873 0 37.3491 0 37.9364C0 38.5237 4.70695 38.9998 10.5133 38.9998Z" fill="#E6E6E6"/>
<path d="M26.727 35.7878L24.44 37.5061L24.3977 37.538L10.9912 36.2087V26.2837H26.6929L26.727 35.7878Z" fill="#3F3D56"/>
<path d="M12.3276 30.0279L12.3174 30.1162L15.0481 30.2491L15.0583 30.1608L12.3276 30.0279Z" fill="#E6E6E6"/>
<path d="M19.0175 30.4263L19.0078 30.5146L21.8751 30.6476L21.8848 30.5592L19.0175 30.4263Z" fill="#E6E6E6"/>
<path d="M24.4097 29.0527L10.9609 28.521L10.9526 28.6094L17.1012 28.8525L17.2057 36.8317L17.3423 36.831L17.2378 28.8579L24.4014 29.1412L24.4097 29.0527Z" fill="#E6E6E6"/>
<path opacity="0.2" d="M26.7269 35.7878L24.4399 37.5061V26.2837H26.6928L26.7269 35.7878Z" fill="black"/>
<path d="M11.9129 26.4829H10.6841V25.9512L13.9609 25.5525L14.1658 25.2866L27.0001 25.5082V26.2614L24.4401 26.8679L22.7675 26.8374C22.7675 26.8374 20.2416 28.211 17.2378 28.078C14.234 27.9451 11.9129 26.4829 11.9129 26.4829Z" fill="#E6E6E6"/>
<path d="M23.0746 25.9736L22.3578 26.3059L20.35 26.2745C20.35 26.2749 20.3493 26.2745 20.3493 26.2745H20.3459L20.193 26.2722H20.1923L20.0653 26.27L19.6646 26.2638L19.6311 26.2634L19.2768 26.2581L19.2639 26.2576L18.8235 26.251L18.7949 26.2505L18.4692 26.2452L18.4167 26.2448L18.0344 26.2386L17.9115 26.2368L17.224 26.2262L17.0506 26.2235L15.2238 26.1951C15.2238 26.1951 13.9219 26.2372 13.8605 25.9918C13.8591 25.9858 13.8584 25.9797 13.8584 25.9736C13.8584 25.834 14.0851 25.8043 14.2994 25.8079C14.4268 25.8109 14.5535 25.8219 14.6776 25.8407L15.2019 25.8491L15.5289 25.854L16.555 25.8704L17.4322 25.8841L17.7429 25.8894L18.1873 25.8965L18.3634 25.8992L19.0174 25.9094L19.3233 25.9142L19.9691 25.9244L23.0746 25.9736Z" fill="#CCCCCC"/>
<path d="M19.2518 26.1948C19.3272 26.1948 19.3883 26.1551 19.3883 26.1062C19.3883 26.0573 19.3272 26.0176 19.2518 26.0176C19.1764 26.0176 19.1152 26.0573 19.1152 26.1062C19.1152 26.1551 19.1764 26.1948 19.2518 26.1948Z" fill="#3F3D56"/>
<path d="M19.32 25.8848C20.0364 25.8848 20.6171 25.8451 20.6171 25.7961C20.6171 25.7472 20.0364 25.7075 19.32 25.7075C18.6037 25.7075 18.0229 25.7472 18.0229 25.7961C18.0229 25.8451 18.6037 25.8848 19.32 25.8848Z" fill="#CCCCCC"/>
<path d="M18.5081 24.6701L19.64 24.8492L19.5106 25.1936L17.8868 24.9367L17.8962 24.9116C17.928 24.8269 18.0103 24.7539 18.1251 24.7086C18.2398 24.6633 18.3776 24.6495 18.5081 24.6701Z" fill="#3F3D56"/>
<path d="M18.0806 24.9478L18.6882 25.007L18.6852 25.0198C18.6752 25.0629 18.6393 25.1016 18.5853 25.1275C18.5313 25.1534 18.4636 25.1643 18.3972 25.1579L18.2904 25.1474C18.224 25.141 18.1642 25.1176 18.1243 25.0826C18.0844 25.0475 18.0676 25.0036 18.0776 24.9605L18.0806 24.9478Z" fill="#3F3D56"/>
<path opacity="0.2" d="M19.5106 25.1045L18.6617 24.9702C18.6363 25.0038 18.595 25.0313 18.544 25.0488C18.4929 25.0662 18.4346 25.0726 18.3775 25.0671L18.31 25.0606C18.2436 25.054 18.1833 25.0317 18.1407 24.998C18.098 24.9643 18.0761 24.9216 18.0791 24.878L17.9346 24.8552C17.9135 24.8808 17.8975 24.908 17.8867 24.9362L18.0791 24.9667C18.0761 25.0102 18.098 25.0529 18.1407 25.0866C18.1833 25.1203 18.2436 25.1426 18.31 25.1492L18.3775 25.1558C18.4346 25.1612 18.4929 25.1548 18.544 25.1374C18.595 25.1199 18.6363 25.0924 18.6617 25.0588L19.5106 25.1931L19.6399 24.8487L19.6085 24.8438L19.5106 25.1045Z" fill="black"/>
<path d="M19.3677 25.8406C19.3 25.8406 19.233 25.8317 19.1709 25.8143C19.1087 25.797 19.0526 25.7716 19.006 25.7397C18.9594 25.7079 18.9233 25.6702 18.8999 25.629C18.8765 25.5878 18.8663 25.5439 18.8698 25.5L18.9446 24.5778L19.8662 24.5557V25.517C19.8662 25.5595 19.8533 25.6016 19.8283 25.6409C19.8032 25.6801 19.7665 25.7158 19.7202 25.7458C19.6739 25.7759 19.619 25.7997 19.5585 25.816C19.498 25.8322 19.4332 25.8406 19.3677 25.8406Z" fill="#3F3D56"/>
<path d="M19.7979 24.5776H18.9679C19.1118 24.4359 19.022 24.2907 18.8205 24.1438C18.809 24.1353 18.8015 24.1248 18.7989 24.1136C18.7963 24.1024 18.7987 24.0909 18.8059 24.0806C18.8131 24.0702 18.8247 24.0615 18.8394 24.0553C18.8541 24.0492 18.8712 24.0459 18.8887 24.0459H19.205C19.5324 24.0459 19.7979 24.2443 19.7979 24.489V24.5776Z" fill="#3F3D56"/>
<path opacity="0.2" d="M19.0936 24.1438C19.0821 24.1353 19.0745 24.1248 19.0719 24.1136C19.0693 24.1024 19.0718 24.0909 19.079 24.0806C19.0862 24.0702 19.0978 24.0615 19.1125 24.0553C19.1272 24.0492 19.1443 24.0459 19.1618 24.0459H18.8887C18.8712 24.0459 18.8541 24.0492 18.8394 24.0553C18.8247 24.0615 18.8131 24.0702 18.8059 24.0806C18.7987 24.0909 18.7963 24.1024 18.7989 24.1136C18.8015 24.1248 18.809 24.1353 18.8205 24.1438C19.022 24.2907 19.1118 24.4359 18.9679 24.5776H19.2409C19.3849 24.4359 19.2951 24.2907 19.0936 24.1438Z" fill="black"/>
<path d="M15.1543 25.1001L16.2042 25.3409C16.2042 25.3409 18.7016 25.4702 18.3776 25.8825C18.0536 26.2948 15.9161 26.0285 15.9161 26.0285L14.9038 25.5723L15.1543 25.1001Z" fill="#FFB8B8"/>
<path d="M16.7256 25.7077C16.6557 25.7078 16.5885 25.7253 16.538 25.7566C16.4874 25.7879 16.4573 25.8306 16.4539 25.8759C16.4386 25.8668 16.4213 25.8592 16.4026 25.8535C16.4541 25.8308 16.4921 25.7972 16.5104 25.7585C16.5286 25.7198 16.526 25.6782 16.5028 25.6407C16.4797 25.6031 16.4375 25.5717 16.3832 25.5518C16.3289 25.5319 16.2658 25.5246 16.2043 25.5311C16.1427 25.5377 16.0865 25.5576 16.0448 25.5878C16.0031 25.6179 15.9785 25.6563 15.975 25.6967C15.9716 25.7371 15.9895 25.7771 16.0258 25.81C16.062 25.8429 16.1146 25.8668 16.1746 25.8777C16.1513 25.8922 16.1336 25.91 16.1229 25.9297C16.1122 25.9495 16.1089 25.9706 16.1131 25.9913C16.1174 26.0121 16.1292 26.0319 16.1475 26.0491C16.1658 26.0663 16.1901 26.0805 16.2184 26.0905C16.2468 26.1004 16.2784 26.1059 16.3106 26.1065C16.3428 26.107 16.3748 26.1026 16.4039 26.0936C16.433 26.0846 16.4584 26.0712 16.4781 26.0546C16.4977 26.038 16.511 26.0186 16.517 25.9981C16.5464 26.0209 16.5842 26.0386 16.6269 26.0494C16.6697 26.0602 16.7159 26.0639 16.7614 26.06C16.8069 26.0562 16.8501 26.0449 16.8871 26.0273C16.9241 26.0097 16.9537 25.9864 16.9731 25.9594C16.9925 25.9324 17.0011 25.9027 16.998 25.873C16.995 25.8433 16.9805 25.8145 16.9558 25.7894C16.9311 25.7643 16.8971 25.7437 16.8568 25.7294C16.8166 25.7151 16.7714 25.7077 16.7256 25.7077Z" fill="white"/>
<path d="M17.2036 25.7961C17.1337 25.7962 17.0666 25.8137 17.016 25.845C16.9654 25.8763 16.9353 25.919 16.9319 25.9643C16.9167 25.9552 16.8993 25.9476 16.8806 25.9419C16.9321 25.9191 16.9702 25.8856 16.9884 25.8469C17.0066 25.8082 17.004 25.7666 16.9809 25.729C16.9577 25.6914 16.9156 25.6601 16.8613 25.6402C16.807 25.6203 16.7438 25.613 16.6823 25.6195C16.6207 25.6261 16.5645 25.646 16.5228 25.6761C16.4811 25.7062 16.4565 25.7447 16.4531 25.7851C16.4496 25.8255 16.4675 25.8655 16.5038 25.8984C16.5401 25.9313 16.5926 25.9552 16.6526 25.9661C16.6293 25.9806 16.6116 25.9984 16.6009 26.0181C16.5902 26.0379 16.5869 26.059 16.5912 26.0797C16.5954 26.1005 16.6072 26.1203 16.6255 26.1375C16.6438 26.1547 16.6681 26.1689 16.6965 26.1789C16.7248 26.1888 16.7564 26.1943 16.7886 26.1948C16.8209 26.1954 16.8528 26.191 16.8819 26.1819C16.9111 26.1729 16.9365 26.1596 16.9561 26.143C16.9757 26.1264 16.9891 26.107 16.995 26.0865C17.0244 26.1093 17.0622 26.127 17.105 26.1378C17.1477 26.1486 17.1939 26.1523 17.2394 26.1484C17.2849 26.1446 17.3282 26.1333 17.3652 26.1157C17.4022 26.0981 17.4317 26.0747 17.4511 26.0478C17.4705 26.0208 17.4791 25.9911 17.4761 25.9614C17.473 25.9316 17.4585 25.9029 17.4338 25.8778C17.4092 25.8527 17.3751 25.8321 17.3349 25.8178C17.2946 25.8035 17.2495 25.7961 17.2036 25.7961Z" fill="white"/>
<path d="M15.9187 25.0804L14.9685 26.099L12.9702 25.2284L10.6751 24.2288L9.29128 21.8707L7.88428 20.1985L9.64764 19.8613C9.64764 19.8613 10.2545 19.8764 11.0389 20.8109C11.8227 21.7458 12.521 23.3639 12.521 23.3639L13.4584 23.8375L15.9187 25.0804Z" fill="#3589A5"/>
<path opacity="0.2" d="M15.9187 25.0804L14.9685 26.099L12.9702 25.2284L10.6751 24.2288L9.29128 21.8707L7.88428 20.1985L9.64764 19.8613C9.64764 19.8613 10.2545 19.8764 11.0389 20.8109C11.8227 21.7458 12.521 23.3639 12.521 23.3639L13.4584 23.8375L15.9187 25.0804Z" fill="black"/>
<path d="M20.3457 26.274L17.9112 26.2364L17.718 26.0942L17.5815 25.9936L17.432 25.8837L17.2661 25.7618L17.5487 25.4774L17.6832 25.3418L18.228 25.574L18.6144 25.7384C18.6144 25.7384 18.938 25.8084 19.323 25.9138C19.6808 26.0122 20.0924 26.1416 20.3457 26.274Z" fill="#FFB8B8"/>
<path d="M10.9237 18.1561C11.8456 18.1561 12.593 17.6711 12.593 17.0727C12.593 16.4743 11.8456 15.9893 10.9237 15.9893C10.0018 15.9893 9.25439 16.4743 9.25439 17.0727C9.25439 17.6711 10.0018 18.1561 10.9237 18.1561Z" fill="#FFB8B8"/>
<path d="M9.62982 17.3706L9.46289 18.9416L11.5495 19.1041C11.5495 19.1041 11.5495 17.804 11.7164 17.6415C11.8834 17.4789 9.62982 17.3706 9.62982 17.3706Z" fill="#FFB8B8"/>
<path d="M14.2625 19.402L11.5597 18.6591C11.5597 18.6591 10.2685 18.0125 9.51118 18.4906L9.17113 18.8061C9.17113 18.8061 7.1001 19.5288 7.1001 20.1247L7.3349 23.1399C7.3349 23.1399 6.66718 24.8192 7.66876 24.9275L13.094 25.2525C13.094 25.2525 13.8452 24.6567 13.1775 23.8983L13.4279 22.1106L14.2625 19.402Z" fill="#3589A5"/>
<path d="M12.4263 19.456L14.2625 19.4019C14.2625 19.4019 14.3971 19.494 14.8144 20.5233C15.2317 21.5525 15.7649 23.248 15.7649 23.248L18.4326 25.4415L17.1355 26.2834L13.6538 23.8021L13.1775 21.2979L12.4263 19.456Z" fill="#3589A5"/>
<path d="M13.3441 25.1444L7.3432 24.8018C7.3432 24.8018 6.75033 27.2571 6.8338 28.2322C6.91726 29.2073 7.00073 30.7241 7.00073 30.7241L6.33301 37.3331L8.92043 37.1164L9.25428 31.645L10.3393 28.6656L11.5913 32.4576L12.426 37.3331L14.6795 37.1705L13.9283 31.2658C13.9283 31.2658 14.5961 25.957 13.3441 25.1444Z" fill="#2F2E41"/>
<path d="M14.1786 36.8994L14.9298 37.0619C14.9298 37.0619 16.5156 36.7911 16.0983 37.4953C15.681 38.1995 14.5124 38.0912 14.5124 38.0912C14.5124 38.0912 13.0935 38.7954 12.5093 38.2537L12.8431 37.1161L14.1786 36.8994Z" fill="#2F2E41"/>
<path d="M8.08581 36.8994L8.83699 37.0619C8.83699 37.0619 10.4228 36.7911 10.0055 37.4953C9.58818 38.1995 8.41967 38.0912 8.41967 38.0912C8.41967 38.0912 7.00076 38.7954 6.4165 38.2537L6.75036 37.1161L8.08581 36.8994Z" fill="#2F2E41"/>
<path d="M9.63 18.0205C9.63 18.0205 7.87723 17.2079 8.79535 16.2328C9.43229 15.5564 10.7521 15.6099 11.5008 15.7062C11.7025 15.7303 11.8921 15.786 12.0533 15.8683C12.2145 15.9506 12.3424 16.0571 12.4261 16.1787C12.5513 16.3683 12.5513 16.5579 12.0505 16.5579C11.0489 16.5579 11.5497 17.0454 11.5497 17.0454C11.5497 17.0454 10.882 17.1538 11.0489 17.533C11.2158 17.9122 9.63 18.0205 9.63 18.0205Z" fill="#2F2E41"/>
<path d="M20.2756 26.2834C20.3887 26.2834 20.4804 26.2239 20.4804 26.1505C20.4804 26.0771 20.3887 26.0176 20.2756 26.0176C20.1625 26.0176 20.0708 26.0771 20.0708 26.1505C20.0708 26.2239 20.1625 26.2834 20.2756 26.2834Z" fill="white"/>
<path d="M20.071 26.0621C20.0711 26.0357 20.062 26.0095 20.0444 25.9857C20.0268 25.9618 20.0011 25.9408 19.9693 25.9243C19.9207 25.8989 19.8603 25.885 19.7979 25.8849C19.7945 25.8849 19.7918 25.8853 19.7884 25.8853C19.7746 25.8498 19.7441 25.818 19.7012 25.7942C19.6583 25.7704 19.6051 25.7559 19.5489 25.7527C19.4928 25.7494 19.4364 25.7576 19.3877 25.776C19.339 25.7945 19.3003 25.8223 19.277 25.8556C19.2338 25.8409 19.1837 25.8368 19.1362 25.8441C19.0886 25.8515 19.0467 25.8697 19.0183 25.8955C18.8173 25.8789 18.6204 25.8455 18.4326 25.7963C18.3813 25.7962 18.3311 25.8056 18.2877 25.8233C18.2443 25.8411 18.2096 25.8664 18.1875 25.8964C18.1689 25.9203 18.1593 25.9467 18.1595 25.9735C18.1597 26.0054 18.1734 26.0367 18.1991 26.0639C18.1503 26.0683 18.1056 26.084 18.0733 26.1081C18.0409 26.1322 18.0231 26.1631 18.0229 26.195C18.0229 26.2098 18.0268 26.2245 18.0346 26.2385L18.4169 26.2447C18.4222 26.2365 18.426 26.2281 18.4285 26.2194C18.4407 26.2288 18.4545 26.2375 18.4694 26.2451L18.7951 26.2504L18.8135 26.2411C18.8165 26.2445 18.8199 26.2478 18.8237 26.2509L19.2641 26.2575C19.2668 26.2556 19.2693 26.2535 19.2716 26.2513C19.2731 26.2536 19.2749 26.2558 19.277 26.258L19.6313 26.2633C19.6455 26.2481 19.6548 26.2312 19.6587 26.2136C19.6605 26.2145 19.6626 26.2153 19.6648 26.2159C19.6626 26.2236 19.6615 26.2315 19.6614 26.2393C19.6615 26.2475 19.6626 26.2557 19.6648 26.2637L20.0655 26.2699C20.0691 26.2599 20.0709 26.2496 20.071 26.2393C20.0707 26.2098 20.0554 26.1811 20.0273 26.1578C20.0558 26.1293 20.071 26.0961 20.071 26.0621ZM19.3398 26.0586C19.3281 26.0678 19.3146 26.076 19.2996 26.0829C19.3037 26.0896 19.3057 26.0967 19.3091 26.1033C19.3264 26.0914 19.347 26.0818 19.3699 26.075C19.3593 26.07 19.3492 26.0645 19.3398 26.0586Z" fill="white"/>
<path d="M22.1189 26.3279C22.232 26.3279 22.3237 26.2683 22.3237 26.1949C22.3237 26.1215 22.232 26.062 22.1189 26.062C22.0058 26.062 21.9141 26.1215 21.9141 26.1949C21.9141 26.2683 22.0058 26.3279 22.1189 26.3279Z" fill="white"/>
<path d="M21.9142 26.1065C21.9143 26.0801 21.9052 26.054 21.8876 26.0301C21.87 26.0063 21.8444 25.9853 21.8125 25.9687C21.764 25.9433 21.7035 25.9294 21.6412 25.9293C21.6378 25.9293 21.635 25.9298 21.6316 25.9298C21.6178 25.8943 21.5874 25.8624 21.5445 25.8386C21.5016 25.8149 21.4484 25.8004 21.3922 25.7971C21.336 25.7938 21.2797 25.802 21.2309 25.8204C21.1822 25.8389 21.1436 25.8667 21.1203 25.9001C21.077 25.8853 21.027 25.8812 20.9794 25.8886C20.9319 25.8959 20.89 25.9141 20.8616 25.9399C20.6606 25.9233 20.4637 25.89 20.2758 25.8407C20.2246 25.8407 20.1743 25.85 20.131 25.8678C20.0876 25.8855 20.0528 25.9108 20.0307 25.9408C20.0121 25.9647 20.0025 25.9912 20.0027 26.0179C20.003 26.0498 20.0167 26.0811 20.0423 26.1083C19.9936 26.1127 19.9489 26.1285 19.9166 26.1526C19.8842 26.1766 19.8663 26.2075 19.8662 26.2395C19.8662 26.2543 19.8701 26.269 19.8778 26.2829L20.2601 26.2891C20.2654 26.281 20.2693 26.2725 20.2717 26.2638C20.284 26.2733 20.2977 26.2819 20.3127 26.2895L20.6383 26.2949L20.6568 26.2855C20.6598 26.289 20.6632 26.2922 20.667 26.2953L21.1073 26.3019C21.11 26.3 21.1125 26.2979 21.1148 26.2957C21.1164 26.298 21.1182 26.3003 21.1203 26.3024L21.4746 26.3077C21.4888 26.2925 21.4981 26.2756 21.5019 26.2581C21.5038 26.259 21.5059 26.2597 21.5081 26.2603C21.5059 26.268 21.5048 26.2759 21.5046 26.2838C21.5047 26.2919 21.5059 26.3001 21.5081 26.3081L21.9088 26.3143C21.9124 26.3043 21.9142 26.2941 21.9142 26.2838C21.914 26.2542 21.8986 26.2255 21.8706 26.2022C21.899 26.1738 21.9142 26.1405 21.9142 26.1065ZM21.1831 26.103C21.1714 26.1122 21.1578 26.1204 21.1428 26.1274C21.1469 26.134 21.149 26.1411 21.1524 26.1478C21.1696 26.1358 21.1902 26.1262 21.2131 26.1194C21.2025 26.1144 21.1925 26.1089 21.1831 26.103Z" fill="white"/>
<path d="M19.1663 26.2394C19.2511 26.2394 19.3199 26.1948 19.3199 26.1397C19.3199 26.0847 19.2511 26.04 19.1663 26.04C19.0815 26.04 19.0127 26.0847 19.0127 26.1397C19.0127 26.1948 19.0815 26.2394 19.1663 26.2394Z" fill="white"/>
<path d="M19.0126 26.073C19.0127 26.0531 19.0058 26.0335 18.9926 26.0156C18.9794 25.9977 18.9602 25.982 18.9363 25.9696C18.8999 25.9505 18.8546 25.9401 18.8078 25.94C18.8052 25.94 18.8032 25.9404 18.8006 25.9404C18.7903 25.9137 18.7675 25.8899 18.7353 25.872C18.7031 25.8542 18.6632 25.8433 18.6211 25.8409C18.5789 25.8384 18.5367 25.8445 18.5001 25.8584C18.4636 25.8722 18.4346 25.8931 18.4171 25.9181C18.3847 25.907 18.3471 25.904 18.3115 25.9095C18.2758 25.915 18.2444 25.9286 18.2231 25.948C18.0723 25.9355 17.9247 25.9105 17.7838 25.8736C17.7453 25.8735 17.7077 25.8806 17.6751 25.8939C17.6426 25.9072 17.6165 25.9262 17.6 25.9487C17.586 25.9666 17.5788 25.9864 17.579 26.0065C17.5791 26.0304 17.5894 26.0539 17.6087 26.0743C17.5721 26.0776 17.5386 26.0894 17.5143 26.1075C17.4901 26.1255 17.4766 26.1487 17.4766 26.1726C17.4765 26.1837 17.4795 26.1948 17.4853 26.2052L17.772 26.2099C17.776 26.2038 17.7789 26.1974 17.7807 26.1909C17.7899 26.198 17.8002 26.2045 17.8114 26.2102L18.0556 26.2142L18.0695 26.2072C18.0717 26.2098 18.0743 26.2122 18.0772 26.2145L18.4074 26.2195C18.4094 26.218 18.4113 26.2165 18.413 26.2148C18.4142 26.2166 18.4156 26.2182 18.4171 26.2198L18.6829 26.2238C18.6935 26.2124 18.7005 26.1998 18.7033 26.1866C18.7048 26.1873 18.7063 26.1878 18.708 26.1883C18.7063 26.1941 18.7055 26.2 18.7054 26.2059C18.7055 26.212 18.7063 26.2181 18.708 26.2242L19.0085 26.2288C19.0112 26.2213 19.0126 26.2136 19.0126 26.2059C19.0124 26.1837 19.0009 26.1622 18.9798 26.1447C19.0012 26.1234 19.0126 26.0984 19.0126 26.073ZM18.4642 26.0703C18.4555 26.0772 18.4453 26.0834 18.434 26.0886C18.4371 26.0936 18.4386 26.0989 18.4412 26.1039C18.4541 26.0949 18.4696 26.0877 18.4868 26.0826C18.4788 26.0789 18.4713 26.0747 18.4642 26.0703Z" fill="white"/>
<path d="M16.9817 26.2394C17.0666 26.2394 17.1353 26.1948 17.1353 26.1397C17.1353 26.0847 17.0666 26.04 16.9817 26.04C16.8969 26.04 16.8281 26.0847 16.8281 26.1397C16.8281 26.1948 16.8969 26.2394 16.9817 26.2394Z" fill="white"/>
<path d="M16.828 26.073C16.8281 26.0531 16.8213 26.0335 16.8081 26.0156C16.7949 25.9977 16.7756 25.982 16.7517 25.9696C16.7153 25.9505 16.67 25.9401 16.6232 25.94C16.6207 25.94 16.6186 25.9404 16.6161 25.9404C16.6057 25.9137 16.5829 25.8899 16.5507 25.872C16.5185 25.8542 16.4786 25.8433 16.4365 25.8409C16.3943 25.8384 16.3521 25.8445 16.3155 25.8584C16.279 25.8722 16.25 25.8931 16.2326 25.9181C16.2001 25.907 16.1626 25.904 16.1269 25.9095C16.0912 25.915 16.0598 25.9286 16.0385 25.948C15.8878 25.9355 15.7401 25.9105 15.5992 25.8736C15.5608 25.8735 15.5231 25.8806 15.4906 25.8939C15.458 25.9072 15.432 25.9262 15.4154 25.9487C15.4014 25.9666 15.3942 25.9864 15.3944 26.0065C15.3946 26.0304 15.4048 26.0539 15.4241 26.0743C15.3875 26.0776 15.354 26.0894 15.3297 26.1075C15.3055 26.1255 15.2921 26.1487 15.292 26.1726C15.292 26.1837 15.2949 26.1948 15.3007 26.2052L15.5874 26.2099C15.5914 26.2038 15.5943 26.1974 15.5961 26.1909C15.6053 26.198 15.6156 26.2045 15.6268 26.2102L15.8711 26.2142L15.8849 26.2072C15.8872 26.2098 15.8897 26.2122 15.8926 26.2145L16.2228 26.2195C16.2249 26.218 16.2267 26.2165 16.2285 26.2148C16.2296 26.2166 16.231 26.2182 16.2326 26.2198L16.4983 26.2238C16.5089 26.2124 16.5159 26.1998 16.5188 26.1866C16.5202 26.1873 16.5217 26.1878 16.5234 26.1883C16.5218 26.1941 16.5209 26.2 16.5208 26.2059C16.5209 26.212 16.5217 26.2181 16.5234 26.2242L16.8239 26.2288C16.8266 26.2213 16.828 26.2136 16.828 26.2059C16.8278 26.1837 16.8163 26.1622 16.7953 26.1447C16.8166 26.1234 16.828 26.0984 16.828 26.073ZM16.2797 26.0703C16.2709 26.0772 16.2607 26.0834 16.2495 26.0886C16.2525 26.0936 16.2541 26.0989 16.2566 26.1039C16.2695 26.0949 16.285 26.0877 16.3022 26.0826C16.2942 26.0789 16.2867 26.0747 16.2797 26.0703Z" fill="white"/>
<path d="M24.1496 24.7966V24.5308H23.8082V24.5751C23.7705 24.5751 23.74 24.6048 23.74 24.6415C23.74 24.6782 23.7705 24.708 23.8082 24.708V24.7966H23.5352V25.6828H24.4226V24.7966H24.1496Z" fill="#3F3D56"/>
</g>
<g clip-path="url(#clip2_2071_2808)">
<path d="M125.343 20.4854H121.926V23.3725H125.343V20.4854Z" fill="#3589A5"/>
<path d="M120.019 25H116.603V27.8871H120.019V25Z" fill="#3589A5"/>
<path d="M135.331 21.4304V15.2887H132.749V11.2992H131.001V15.2887H128.418V21.4304H126.988V7.62467H124.088V6.31234H120.234V5H116.42V6.31234H112.805V7.62467H109.666V21.378H107.998V15.2362H105.415V11.2467H103.667V15.2362H101.085V21.378H99.416V43.1627H103.23V35.4462H105.852V43.1627H116.102V34.1864H120.552V43.1627H126.75V43.2152H130.564V35.4987H133.186V43.2152H137V21.4304H135.331ZM100.787 24.0551H102.296V25.6299H100.787V24.0551ZM100.807 28.4646H102.316V30.0394H100.807V28.4646ZM102.336 34.4488H100.826V32.874H102.336V34.4488ZM106.289 20.2231H102.793V19.2782H106.289V20.2231ZM106.289 18.8583H102.793V17.9134H106.289V18.8583ZM106.289 17.4934H102.793V16.5486H106.289V17.4934ZM106.786 24.0551H108.296V25.6299H106.786V24.0551ZM106.806 28.4646H108.315V30.0394H106.806V28.4646ZM108.335 34.4488H106.826V32.874H108.335V34.4488ZM114.513 31.8241H111.732V30.1969H114.513V31.8241ZM114.513 27.1522H111.732V25.5249H114.513V27.1522ZM114.513 22.4803H111.732V20.853H114.513V22.4803ZM114.513 17.8084H111.732V16.1811H114.513V17.8084ZM114.513 13.1365H111.732V11.5092H114.513V13.1365ZM119.718 31.8241H116.937V30.1969H119.718V31.8241ZM119.718 27.1522H116.937V25.5249H119.718V27.1522ZM119.718 22.4803H116.937V20.853H119.718V22.4803ZM119.718 17.8084H116.937V16.1811H119.718V17.8084ZM119.718 13.1365H116.937V11.5092H119.718V13.1365ZM124.922 31.8241H122.141V30.1969H124.922V31.8241ZM124.922 27.1522H122.141V25.5249H124.922V27.1522ZM124.922 22.4803H122.141V20.853H124.922V22.4803ZM124.922 17.8084H122.141V16.1811H124.922V17.8084ZM124.922 13.1365H122.141V11.5092H124.922V13.1365ZM128.12 24.1076H129.63V25.6824H128.12V24.1076ZM128.14 28.5171H129.65V30.0919H128.14V28.5171ZM129.67 34.5013H128.16V32.9265H129.67V34.5013ZM133.623 20.2756H130.127V19.3307H133.623V20.2756ZM133.623 18.9108H130.127V17.9659H133.623V18.9108ZM133.623 17.5459H130.127V16.6011H133.623V17.5459ZM134.12 24.1076H135.629V25.6824H134.12V24.1076ZM134.139 28.5171H135.649V30.0919H134.139V28.5171ZM135.669 34.5013H134.159V32.9265H135.669V34.5013Z" fill="#F2F2F2"/>
<path d="M101.767 37.8455C101.756 38.0532 101.739 38.2854 101.712 38.5295L102.198 37.8178L102.2 37.8297C102.171 37.6584 102.123 37.4935 102.058 37.3398L102.061 37.3511L101.767 37.8455Z" fill="#3589A5"/>
<path d="M101.77 37.8094L102.054 37.3305C101.994 37.1844 101.906 37.0609 101.8 36.9718C101.794 36.9677 101.789 36.9638 101.784 36.96C101.785 37.0165 101.793 37.3486 101.77 37.8094Z" fill="#3589A5"/>
<path d="M101.512 39.6865C101.5 39.7369 101.487 39.7863 101.474 39.8349L102.189 39.2807L102.19 39.2946C102.205 39.2085 102.217 39.1223 102.227 39.0361L101.513 39.6929L101.512 39.6865Z" fill="#3589A5"/>
<path d="M101.612 39.2218L102.256 38.5198L102.258 38.5329C102.26 38.3008 102.242 38.0691 102.203 37.8428L101.708 38.5681C101.682 38.7967 101.65 39.0146 101.612 39.2218Z" fill="#3589A5"/>
<path d="M101.697 38.5541L100.926 37.4176L100.93 37.4048C100.858 37.5396 100.796 37.6837 100.745 37.835L101.625 39.0725C101.655 38.8919 101.678 38.717 101.697 38.5541Z" fill="#3589A5"/>
<path d="M100.737 37.8606L100.737 37.8607C100.738 37.8564 100.739 37.8518 100.741 37.8477L100.737 37.8606Z" fill="#3589A5"/>
<path d="M100.694 38L100.69 38.013C100.691 38.0085 100.693 38.0044 100.694 38Z" fill="#3589A5"/>
<path d="M101.62 39.1028L100.737 37.8608C100.722 37.906 100.708 37.9525 100.694 38.0002L101.596 39.2342C101.604 39.1902 101.612 39.1464 101.62 39.1028Z" fill="#3589A5"/>
<path d="M102.229 39.0196C102.247 38.8634 102.256 38.7058 102.258 38.5479L101.605 39.2594C101.579 39.3973 101.551 39.53 101.52 39.6573L102.228 39.006L102.229 39.0196Z" fill="#3589A5"/>
<path d="M100.577 39.1083L101.291 40.3403C101.35 40.1903 101.402 40.0358 101.447 39.8777L100.575 38.6675C100.566 38.8188 100.565 38.9707 100.572 39.1221L100.577 39.1083Z" fill="#3589A5"/>
<path d="M101.771 36.9587L101.777 36.9549C101.62 36.8445 101.451 36.8563 101.289 36.9683L101.757 37.8083C101.782 37.3098 101.771 36.9637 101.771 36.9587Z" fill="#3589A5"/>
<path d="M101.45 39.9177C101.409 40.06 101.363 40.1993 101.31 40.3348L102.029 39.8434L102.03 39.8571C102.084 39.7362 102.126 39.6067 102.156 39.4717C102.167 39.4186 102.178 39.3654 102.187 39.312L101.463 39.8728C101.459 39.8878 101.455 39.9029 101.45 39.9177Z" fill="#3589A5"/>
<path d="M101.755 37.8456L101.276 36.9864L101.28 36.9741C101.143 37.0789 101.026 37.2225 100.936 37.3945L101.7 38.5217C101.727 38.2804 101.744 38.0509 101.755 37.8456Z" fill="#3589A5"/>
<path d="M101.454 39.8499C101.508 39.6578 101.553 39.462 101.59 39.2634L100.686 38.0264C100.664 38.1036 100.645 38.184 100.627 38.2675C100.602 38.3872 100.585 38.5096 100.577 38.6333L101.454 39.8504L101.454 39.8499Z" fill="#3589A5"/>
<path d="M102.384 41.1843C102.275 41.3349 102.149 41.4991 102.011 41.6644L102.728 41.5256L102.725 41.537C102.785 41.3801 102.827 41.2128 102.852 41.04L102.849 41.0513L102.384 41.1843Z" fill="#3589A5"/>
<path d="M102.83 40.5384C102.828 40.5309 102.826 40.5235 102.824 40.5161C102.798 40.561 102.643 40.823 102.403 41.1582L102.853 41.0294C102.877 40.8658 102.869 40.6969 102.83 40.5384Z" fill="#3589A5"/>
<path d="M101.299 42.3877C101.265 42.4159 101.231 42.4431 101.197 42.4693L102.016 42.6453L102.01 42.6568C102.063 42.6031 102.114 42.5472 102.163 42.4892L101.296 42.3931L101.299 42.3877Z" fill="#3589A5"/>
<path d="M101.6 42.113L102.435 42.1153L102.43 42.1269C102.544 41.9501 102.641 41.756 102.72 41.5488L101.989 41.6903C101.859 41.8445 101.729 41.9854 101.6 42.113Z" fill="#3589A5"/>
<path d="M101.318 42.3712L102.178 42.4665L102.173 42.4782C102.262 42.3727 102.345 42.2593 102.423 42.139L101.576 42.1367C101.49 42.2212 101.404 42.2994 101.318 42.3712Z" fill="#3589A5"/>
<path d="M100.265 42.9331C100.271 42.9249 100.277 42.9161 100.284 42.9075C100.459 42.8706 100.63 42.8059 100.794 42.7148L100.817 41.896C100.824 41.8751 100.831 41.8542 100.838 41.833L100.813 42.7045C100.93 42.6385 101.045 42.5632 101.156 42.4791L101.076 40.9568C101.082 40.9526 101.088 40.9483 101.095 40.9439L101.174 42.4641L101.175 42.4643C101.309 42.3612 101.438 42.2487 101.563 42.1273L101.476 40.6293C101.482 40.6234 101.488 40.6175 101.495 40.6115L101.581 42.1093C101.609 42.0823 101.636 42.0552 101.663 42.0279L101.591 40.5115C101.597 40.5048 101.603 40.4982 101.61 40.4914L101.681 42.0089C101.792 41.8952 101.894 41.7804 101.987 41.6704L101.942 40.1455L101.951 40.139C101.919 40.1501 101.887 40.1632 101.854 40.1775C101.916 40.0843 101.971 39.9842 102.02 39.8783L101.294 40.3745C101.244 40.5006 101.187 40.6222 101.125 40.7384C101.112 40.7546 101.099 40.7707 101.086 40.7876L101.087 40.8058C101.081 40.8161 101.075 40.8265 101.069 40.8366L101.068 40.8121C101.059 40.8245 101.05 40.8376 101.041 40.8504C101.133 40.6988 101.214 40.5358 101.282 40.3638L100.572 39.1409C100.577 39.2502 100.585 39.3602 100.596 39.4694C100.53 39.3279 100.45 39.1987 100.358 39.0854L100.364 39.0949L100.2 39.6852C100.238 39.8872 100.275 40.1152 100.307 40.3583L100.598 39.4951C100.6 39.5085 100.601 39.5219 100.602 39.5354L100.312 40.3965C100.341 40.6245 100.361 40.8448 100.374 41.0573L100.722 40.3333C100.724 40.3437 100.726 40.3541 100.728 40.3644L100.376 41.0962C100.383 41.238 100.387 41.3758 100.388 41.5095L100.814 40.7661C100.816 40.7759 100.819 40.7854 100.821 40.7948L100.39 41.5461L100.388 41.5403C100.388 41.5933 100.387 41.6456 100.386 41.6972L100.867 40.9816C100.869 40.9916 100.872 41.0008 100.874 41.0092L100.384 41.7371C100.384 41.7531 100.383 41.7692 100.383 41.7851C100.377 41.9371 100.365 42.0887 100.347 42.2391L100.393 42.177C100.384 42.2011 100.376 42.2248 100.368 42.2483L100.341 42.2836C100.338 42.3066 100.335 42.329 100.331 42.3516C100.322 42.3799 100.312 42.4075 100.303 42.4344C100.312 42.3828 100.32 42.3309 100.327 42.2785L99.3662 41.4052C99.6169 42.2525 100.089 43.0585 100.119 43.1097C100.144 43.0491 100.166 42.9868 100.186 42.9232C100.192 42.9225 100.198 42.9218 100.204 42.9209C100.202 42.9288 100.199 42.9364 100.197 42.9442C100.194 42.9446 100.191 42.9452 100.188 42.9456C100.19 42.9465 100.193 42.9475 100.195 42.9484C100.181 42.9928 100.166 43.0365 100.15 43.0787C100.171 43.0538 100.203 43.0144 100.241 42.9645C100.467 43.0407 101.076 43.2036 101.597 42.9629L100.798 42.7334C100.627 42.829 100.448 42.8961 100.265 42.9331ZM100.826 41.5981L100.845 41.5725L100.844 41.6109L100.825 41.6365L100.826 41.5981Z" fill="#3589A5"/>
<path d="M102.814 40.5042L102.821 40.5067C102.754 40.2897 102.618 40.1561 102.439 40.1055L102.394 41.1469C102.654 40.7841 102.812 40.5082 102.814 40.5042Z" fill="#3589A5"/>
<path d="M101.14 42.5132C101.039 42.5882 100.936 42.656 100.83 42.7161L101.621 42.9435L101.615 42.9546C101.715 42.9071 101.81 42.8431 101.898 42.764C101.932 42.7328 101.966 42.7006 101.999 42.6674L101.171 42.4893C101.161 42.4973 101.15 42.5054 101.14 42.5132Z" fill="#3589A5"/>
<path d="M102.006 41.6484C102.143 41.4849 102.267 41.3225 102.374 41.1737L102.42 40.1084L102.429 40.1027C102.273 40.0679 102.113 40.0793 101.961 40.1359L102.006 41.6484Z" fill="#3589A5"/>
<path d="M100.352 39.0783C100.26 38.9641 100.148 38.8825 100.026 38.8412C100.02 38.8395 100.014 38.8379 100.008 38.8364C100.023 38.8896 100.107 39.2023 100.193 39.6501L100.352 39.0783Z" fill="#3589A5"/>
<path d="M100.298 40.3883L99.299 39.6223L99.2999 39.6084C99.2625 39.7662 99.2373 39.9286 99.2246 40.0931L100.351 40.9107C100.337 40.7266 100.319 40.5507 100.298 40.3883Z" fill="#3589A5"/>
<path d="M99.2227 40.1204L99.2227 40.1204C99.223 40.1159 99.2231 40.111 99.2235 40.1064L99.2227 40.1204Z" fill="#3589A5"/>
<path d="M99.2146 40.2705L99.2139 40.2845C99.214 40.2797 99.2144 40.2752 99.2146 40.2705Z" fill="#3589A5"/>
<path d="M100.353 40.9412L99.223 40.1206C99.2194 40.1697 99.2167 40.2197 99.2148 40.2707L100.362 41.0757C100.359 41.0305 100.356 40.9856 100.353 40.9412Z" fill="#3589A5"/>
<path d="M100.37 41.7489L99.2573 40.9541C99.2845 41.1015 99.3191 41.2464 99.361 41.3877L99.3624 41.3725L100.33 42.2522C100.351 42.0856 100.364 41.9176 100.37 41.7489Z" fill="#3589A5"/>
<path d="M99.9952 38.8405L100 38.8343C99.8257 38.7932 99.6673 38.8736 99.5391 39.0465L100.181 39.6542C100.088 39.1698 99.9965 38.8452 99.9952 38.8405Z" fill="#3589A5"/>
<path d="M100.188 39.6903L99.5314 39.0687L99.5328 39.0552C99.427 39.2108 99.3486 39.3954 99.3032 39.5958L100.294 40.3556C100.263 40.1153 100.225 39.89 100.188 39.6903Z" fill="#3589A5"/>
<path d="M100.371 41.7192C100.377 41.5147 100.374 41.31 100.363 41.1059L99.2137 40.2988C99.2113 40.3811 99.2113 40.4656 99.2137 40.5524C99.2179 40.6764 99.2307 40.7997 99.2519 40.9207L100.371 41.72L100.371 41.7192Z" fill="#3589A5"/>
<path d="M135.776 37.6883C135.765 37.8959 135.748 38.1282 135.721 38.3723L136.206 37.6605L136.209 37.6724C136.179 37.5012 136.132 37.3363 136.067 37.1826L136.07 37.1939L135.776 37.6883Z" fill="#3589A5"/>
<path d="M135.778 37.6517L136.063 37.1727C136.002 37.0266 135.914 36.9032 135.808 36.814C135.803 36.8099 135.797 36.8061 135.792 36.8022C135.794 36.8588 135.801 37.1909 135.778 37.6517Z" fill="#3589A5"/>
<path d="M135.521 39.5293C135.508 39.5797 135.495 39.6291 135.482 39.6777L136.197 39.1235L136.198 39.1374C136.213 39.0512 136.226 38.9651 136.236 38.8789L135.521 39.5357L135.521 39.5293Z" fill="#3589A5"/>
<path d="M135.62 39.0641L136.264 38.3621L136.266 38.3752C136.268 38.1431 136.25 37.9114 136.211 37.6851L135.716 38.4104C135.69 38.639 135.658 38.8569 135.62 39.0641Z" fill="#3589A5"/>
<path d="M135.705 38.3969L134.934 37.2604L134.938 37.2476C134.866 37.3824 134.804 37.5265 134.753 37.6778L135.633 38.9153C135.663 38.7346 135.687 38.5598 135.705 38.3969Z" fill="#3589A5"/>
<path d="M134.745 37.7034L134.745 37.7034C134.747 37.6992 134.748 37.6946 134.749 37.6904L134.745 37.7034Z" fill="#3589A5"/>
<path d="M135.628 38.9451L134.745 37.7031C134.73 37.7483 134.716 37.7948 134.702 37.8425L135.605 39.0765C135.613 39.0325 135.621 38.9887 135.628 38.9451Z" fill="#3589A5"/>
<path d="M134.702 37.8428L134.698 37.8558C134.7 37.8513 134.701 37.8472 134.702 37.8428Z" fill="#3589A5"/>
<path d="M136.238 38.8624C136.255 38.7062 136.265 38.5485 136.266 38.3906L135.613 39.1021C135.587 39.2401 135.559 39.3728 135.528 39.5001L136.236 38.8488L136.238 38.8624Z" fill="#3589A5"/>
<path d="M134.585 38.9506L135.3 40.1825C135.358 40.0326 135.41 39.8781 135.455 39.72L134.583 38.5098C134.574 38.6611 134.573 38.8129 134.58 38.9644L134.585 38.9506Z" fill="#3589A5"/>
<path d="M135.779 36.8015L135.786 36.7977C135.629 36.6872 135.46 36.6991 135.297 36.8111L135.765 37.6511C135.791 37.1526 135.779 36.8065 135.779 36.8015Z" fill="#3589A5"/>
<path d="M135.459 39.76C135.418 39.9023 135.371 40.0415 135.318 40.1771L136.037 39.6857L136.038 39.6994C136.092 39.5785 136.134 39.449 136.164 39.314C136.175 39.2609 136.186 39.2077 136.195 39.1543L135.471 39.7151C135.467 39.7301 135.463 39.7452 135.459 39.76Z" fill="#3589A5"/>
<path d="M135.763 37.6879L135.285 36.8286L135.289 36.8164C135.152 36.9212 135.034 37.0648 134.944 37.2368L135.709 38.364C135.735 38.1227 135.753 37.8932 135.763 37.6879Z" fill="#3589A5"/>
<path d="M135.463 39.6927C135.516 39.5006 135.562 39.3048 135.599 39.1062L134.695 37.8691C134.673 37.9464 134.653 38.0268 134.635 38.1103C134.61 38.2299 134.594 38.3524 134.585 38.4761L135.462 39.6932L135.463 39.6927Z" fill="#3589A5"/>
<path d="M136.392 41.0271C136.283 41.1777 136.158 41.3419 136.019 41.5072L136.737 41.3684L136.733 41.3798C136.793 41.2228 136.836 41.0555 136.86 40.8828L136.857 40.8941L136.392 41.0271Z" fill="#3589A5"/>
<path d="M136.839 40.3807C136.837 40.3732 136.834 40.3658 136.832 40.3584C136.806 40.4033 136.652 40.6653 136.411 41.0005L136.862 40.8717C136.886 40.7081 136.878 40.5392 136.839 40.3807Z" fill="#3589A5"/>
<path d="M135.307 42.23C135.273 42.2582 135.239 42.2854 135.206 42.3115L136.024 42.4876L136.018 42.4991C136.071 42.4453 136.122 42.3895 136.172 42.3315L135.304 42.2354L135.307 42.23Z" fill="#3589A5"/>
<path d="M135.608 41.9558L136.443 41.958L136.438 41.9697C136.552 41.7928 136.649 41.5988 136.729 41.3916L135.997 41.5331C135.867 41.6872 135.737 41.8281 135.608 41.9558Z" fill="#3589A5"/>
<path d="M135.327 42.2135L136.187 42.3088L136.181 42.3204C136.27 42.2149 136.353 42.1016 136.431 41.9813L135.585 41.979C135.498 42.0635 135.412 42.1416 135.327 42.2135Z" fill="#3589A5"/>
<path d="M134.273 42.7759C134.279 42.7677 134.286 42.7589 134.292 42.7502C134.467 42.7133 134.639 42.6487 134.802 42.5576L134.826 41.7388C134.833 41.7179 134.839 41.6969 134.846 41.6758L134.821 42.5472C134.939 42.4812 135.053 42.406 135.164 42.3218L135.084 40.7996C135.09 40.7954 135.096 40.7911 135.103 40.7866L135.183 42.3069L135.183 42.307C135.317 42.204 135.447 42.0915 135.571 41.9701L135.484 40.4721C135.49 40.4661 135.497 40.4603 135.503 40.4542L135.59 41.9521C135.617 41.9251 135.644 41.8979 135.671 41.8707L135.599 40.3543C135.606 40.3476 135.612 40.3409 135.618 40.3342L135.69 41.8517C135.8 41.738 135.903 41.6232 135.995 41.5131L135.95 39.9882L135.96 39.9818C135.928 39.9929 135.895 40.006 135.862 40.0202C135.924 39.927 135.98 39.8269 136.028 39.7211L135.302 40.2172C135.252 40.3434 135.196 40.4649 135.133 40.5812C135.12 40.5973 135.107 40.6135 135.095 40.6304L135.096 40.6486C135.09 40.6589 135.084 40.6693 135.078 40.6794L135.076 40.6549C135.067 40.6673 135.058 40.6804 135.049 40.6932C135.141 40.5416 135.222 40.3786 135.29 40.2066L134.581 38.9836C134.586 39.093 134.594 39.203 134.604 39.3121C134.538 39.1706 134.458 39.0415 134.366 38.9282L134.372 38.9377L134.208 39.5279C134.246 39.73 134.284 39.958 134.315 40.2011L134.607 39.3378C134.608 39.3513 134.609 39.3647 134.611 39.3781L134.32 40.2393C134.349 40.4673 134.369 40.6876 134.382 40.9001L134.731 40.1761C134.733 40.1865 134.735 40.1969 134.737 40.2071L134.384 40.939C134.392 41.0808 134.396 41.2185 134.396 41.3523L134.822 40.6089C134.825 40.6187 134.827 40.6282 134.829 40.6376L134.398 41.3888L134.396 41.3831C134.396 41.4361 134.395 41.4884 134.394 41.54L134.875 40.8244C134.877 40.8343 134.88 40.8435 134.882 40.8519L134.393 41.5799C134.392 41.5959 134.392 41.612 134.391 41.6278C134.385 41.7799 134.373 41.9315 134.355 42.0819L134.402 42.0197C134.393 42.0438 134.384 42.0676 134.376 42.091L134.349 42.1264C134.346 42.1494 134.343 42.1718 134.34 42.1944C134.33 42.2227 134.321 42.2503 134.311 42.2772C134.32 42.2256 134.328 42.1737 134.335 42.1213L133.375 41.2479C133.625 42.0953 134.097 42.9013 134.127 42.9525C134.152 42.8919 134.174 42.8296 134.195 42.766C134.201 42.7653 134.207 42.7645 134.213 42.7637C134.21 42.7715 134.208 42.7792 134.205 42.787C134.202 42.7874 134.199 42.788 134.196 42.7884C134.198 42.7893 134.201 42.7903 134.204 42.7912C134.189 42.8356 134.174 42.8793 134.158 42.9215C134.179 42.8966 134.211 42.8572 134.249 42.8072C134.475 42.8834 135.084 43.0464 135.605 42.8057L134.807 42.5762C134.636 42.6718 134.457 42.7388 134.273 42.7759ZM134.834 41.4409L134.853 41.4153L134.852 41.4537L134.833 41.4793L134.834 41.4409Z" fill="#3589A5"/>
<path d="M136.823 40.3465L136.829 40.349C136.762 40.132 136.626 39.9983 136.447 39.9478L136.402 40.9892C136.662 40.6264 136.82 40.3505 136.823 40.3465Z" fill="#3589A5"/>
<path d="M135.148 42.3555C135.048 42.4305 134.944 42.4982 134.838 42.5584L135.629 42.7858L135.623 42.7969C135.723 42.7494 135.818 42.6854 135.906 42.6063C135.941 42.5751 135.974 42.5428 136.008 42.5097L135.179 42.3315C135.169 42.3395 135.158 42.3477 135.148 42.3555Z" fill="#3589A5"/>
<path d="M136.014 41.4912C136.151 41.3277 136.275 41.1653 136.382 41.0165L136.428 39.9512L136.438 39.9455C136.282 39.9107 136.122 39.9221 135.969 39.9787L136.014 41.4912Z" fill="#3589A5"/>
<path d="M134.36 38.9206C134.268 38.8064 134.156 38.7248 134.034 38.6835C134.028 38.6817 134.022 38.6802 134.016 38.6787C134.031 38.7319 134.116 39.0446 134.201 39.4924L134.36 38.9206Z" fill="#3589A5"/>
<path d="M134.307 40.2306L133.308 39.4646L133.309 39.4507C133.271 39.6085 133.246 39.7709 133.233 39.9354L134.359 40.753C134.346 40.5689 134.327 40.393 134.307 40.2306Z" fill="#3589A5"/>
<path d="M133.223 40.1133L133.222 40.1273C133.222 40.1225 133.223 40.118 133.223 40.1133Z" fill="#3589A5"/>
<path d="M133.231 39.9632L133.231 39.9632C133.232 39.9586 133.232 39.9538 133.232 39.9492L133.231 39.9632Z" fill="#3589A5"/>
<path d="M134.362 40.784L133.231 39.9634C133.228 40.0124 133.225 40.0625 133.223 40.1135L134.37 40.9185C134.368 40.8733 134.365 40.8284 134.362 40.784Z" fill="#3589A5"/>
<path d="M134.379 41.5912L133.266 40.7964C133.293 40.9438 133.328 41.0886 133.37 41.2299L133.371 41.2148L134.339 42.0945C134.36 41.9279 134.373 41.7598 134.379 41.5912Z" fill="#3589A5"/>
<path d="M134.003 38.6833L134.009 38.6771C133.834 38.6359 133.676 38.7164 133.547 38.8893L134.189 39.497C134.096 39.0125 134.005 38.688 134.003 38.6833Z" fill="#3589A5"/>
<path d="M134.196 39.5331L133.54 38.9114L133.541 38.8979C133.435 39.0535 133.357 39.2382 133.312 39.4386L134.302 40.1984C134.271 39.958 134.234 39.7327 134.196 39.5331Z" fill="#3589A5"/>
<path d="M134.379 41.562C134.385 41.3575 134.383 41.1528 134.372 40.9486L133.222 40.1416C133.22 40.2239 133.22 40.3084 133.222 40.3951C133.226 40.5192 133.239 40.6425 133.26 40.7634L134.379 41.5628L134.379 41.562Z" fill="#3589A5"/>
<path d="M99.416 43.1626H137V43.8731C137 44.1719 136.91 44.4585 136.75 44.6699C136.59 44.8812 136.373 44.9999 136.147 44.9999H100.269C100.043 44.9999 99.8257 44.8812 99.6658 44.6699C99.5059 44.4585 99.416 44.1719 99.416 43.8731V43.1626Z" fill="#2F2E41"/>
<path d="M137 42.5854H99.416V43.5828H137V42.5854Z" fill="#3F3D56"/>
<path d="M128.543 8.46308L128.975 8.82475L128.713 8.19516C128.787 8.11691 128.879 8.07359 128.974 8.07207C128.976 8.07207 128.979 8.07209 128.981 8.07215C129.011 8.07278 129.041 8.06985 129.07 8.0634L129.217 8.18596L129.154 8.03531C129.258 7.98756 129.347 7.89774 129.41 7.7787L129.672 7.99808L129.506 7.60073C129.659 7.35789 129.866 7.20898 130.093 7.20898C130.365 7.20898 130.608 7.42293 130.764 7.75628C130.811 7.85601 130.876 7.9378 130.954 7.99332C131.032 8.04885 131.12 8.07614 131.208 8.07242C131.213 8.07219 131.218 8.07207 131.223 8.07207C131.523 8.07207 131.767 8.52235 131.767 9.07781C131.767 9.63326 131.523 10.0835 131.223 10.0835C131.157 10.0832 131.092 10.0617 131.033 10.0208C130.931 9.95514 130.819 9.91959 130.705 9.91665C130.592 9.91371 130.479 9.94346 130.374 10.0038C130.286 10.0561 130.191 10.0833 130.095 10.0835C129.998 10.0838 129.903 10.0573 129.814 10.0055C129.711 9.94632 129.599 9.91716 129.487 9.92004C129.374 9.92292 129.263 9.95776 129.162 10.0222C129.104 10.0622 129.039 10.0832 128.974 10.0835C128.673 10.0835 128.43 9.63326 128.43 9.07781C128.428 8.86355 128.467 8.65215 128.543 8.46308Z" fill="#F2F2F2"/>
<path d="M106.583 11.4169L106.857 11.647L106.69 11.2465C106.738 11.1967 106.796 11.1691 106.856 11.1682C106.858 11.1682 106.859 11.1682 106.861 11.1682C106.88 11.1686 106.899 11.1668 106.918 11.1627L107.011 11.2406L106.971 11.1448C107.037 11.1144 107.094 11.0573 107.134 10.9816L107.3 11.1211L107.195 10.8683C107.239 10.7928 107.296 10.7313 107.36 10.6882C107.425 10.6451 107.496 10.6215 107.568 10.6191C107.742 10.6191 107.896 10.7552 107.995 10.9673C108.025 11.0307 108.066 11.0828 108.116 11.1181C108.166 11.1534 108.221 11.1708 108.278 11.1684C108.281 11.1682 108.284 11.1682 108.287 11.1682C108.478 11.1682 108.633 11.4546 108.633 11.8079C108.633 12.1613 108.478 12.4477 108.287 12.4477C108.245 12.4475 108.204 12.4338 108.166 12.4078C108.101 12.366 108.03 12.3434 107.958 12.3415C107.885 12.3397 107.814 12.3586 107.747 12.397C107.691 12.4302 107.631 12.4475 107.569 12.4477C107.508 12.4479 107.447 12.431 107.391 12.3981C107.325 12.3604 107.254 12.3419 107.183 12.3437C107.111 12.3455 107.04 12.3677 106.976 12.4087C106.939 12.4341 106.898 12.4475 106.856 12.4477C106.665 12.4477 106.51 12.1613 106.51 11.8079C106.509 11.6716 106.534 11.5372 106.583 11.4169Z" fill="#F2F2F2"/>
<path d="M99.1929 12.6503L99.4675 12.8804L99.3008 12.4799C99.348 12.4301 99.4064 12.4025 99.4668 12.4016C99.4683 12.4016 99.4698 12.4016 99.4713 12.4016C99.4903 12.402 99.5094 12.4002 99.5282 12.3961L99.6213 12.474L99.5814 12.3782C99.6473 12.3478 99.7043 12.2907 99.7442 12.215L99.9107 12.3545L99.8055 12.1017C99.8498 12.0262 99.9063 11.9647 99.9708 11.9216C100.035 11.8785 100.106 11.8549 100.179 11.8525C100.352 11.8525 100.506 11.9886 100.606 12.2007C100.635 12.2641 100.677 12.3162 100.726 12.3515C100.776 12.3868 100.832 12.4042 100.888 12.4018C100.891 12.4016 100.894 12.4016 100.897 12.4016C101.089 12.4016 101.244 12.688 101.244 13.0413C101.244 13.3947 101.089 13.6811 100.897 13.6811C100.855 13.6809 100.814 13.6672 100.777 13.6412C100.712 13.5994 100.64 13.5768 100.568 13.5749C100.496 13.5731 100.424 13.592 100.358 13.6304C100.302 13.6636 100.241 13.6809 100.18 13.6811C100.118 13.6813 100.058 13.6644 100.001 13.6315C99.9357 13.5938 99.8646 13.5753 99.7929 13.5771C99.7213 13.5789 99.6508 13.6011 99.5862 13.6421C99.5493 13.6675 99.5084 13.6809 99.4668 13.6811C99.2756 13.6811 99.1206 13.3947 99.1206 13.0413C99.1195 12.905 99.1444 12.7706 99.1929 12.6503Z" fill="#F2F2F2"/>
<path d="M109.107 36.3315L109.059 36.3949C109.059 36.3949 109.075 37.0919 109.091 37.2398C109.107 37.3876 109.17 37.6411 109.123 37.8312C109.075 38.0213 109.059 38.1691 109.075 38.1903C109.091 38.2114 109.059 38.2959 109.059 38.2959L109.186 38.1903L109.394 37.5566L109.298 36.8807L109.107 36.3315Z" fill="#3589A5"/>
<path opacity="0.1" d="M109.107 36.3315L109.059 36.3949C109.059 36.3949 109.075 37.0919 109.091 37.2398C109.107 37.3876 109.17 37.6411 109.123 37.8312C109.075 38.0213 109.059 38.1691 109.075 38.1903C109.091 38.2114 109.059 38.2959 109.059 38.2959L109.186 38.1903L109.394 37.5566L109.298 36.8807L109.107 36.3315Z" fill="black"/>
<path d="M109.954 42.9002C109.954 42.9002 109.954 42.6679 109.922 42.6256C109.89 42.5834 109.842 42.4355 109.778 42.4355C109.714 42.4355 109.49 42.52 109.49 42.5412C109.492 42.6071 109.481 42.6725 109.458 42.7313C109.426 42.7946 109.25 43.0481 109.426 43.0903C109.485 43.103 109.544 43.1002 109.602 43.0821C109.66 43.064 109.714 43.0309 109.762 42.9847C109.778 42.9636 109.842 42.9425 109.858 42.9636C109.874 42.9847 109.954 42.9002 109.954 42.9002Z" fill="#3589A5"/>
<path d="M110.401 42.5201L110.497 42.7525C110.497 42.7525 110.529 42.9637 110.577 42.9848H110.625C110.625 42.9848 110.673 43.2172 110.785 43.196C110.897 43.1749 111.025 43.0904 111.025 43.0482C111.025 43.0059 111.025 42.8792 110.977 42.837C110.91 42.7644 110.846 42.6868 110.785 42.6046L110.705 42.499L110.401 42.5201Z" fill="#3589A5"/>
<path d="M109.174 34.7832C109.144 34.8039 109.117 34.8341 109.097 34.8712C109.077 34.9083 109.064 34.9513 109.059 34.9965C109.05 35.1473 109.163 35.2894 109.127 35.4328C109.106 35.5143 109.042 35.567 109.023 35.6494C109.014 35.715 109.021 35.7831 109.044 35.8426C109.069 35.9243 109.1 36.0028 109.136 36.0771C109.203 36.2169 109.291 36.3496 109.309 36.5136C109.314 36.5423 109.314 36.5721 109.308 36.6006C109.303 36.6292 109.292 36.6556 109.278 36.6778C109.31 36.6454 109.347 36.622 109.387 36.6093C109.55 36.5371 109.702 36.4254 109.834 36.2799C109.882 36.2352 109.919 36.1715 109.938 36.0981C109.962 35.9683 109.888 35.8385 109.895 35.7051C109.899 35.6198 109.937 35.5444 109.958 35.4636C109.976 35.3831 109.982 35.2985 109.975 35.2149C109.968 35.1314 109.948 35.0506 109.917 34.9773C109.891 34.9065 109.855 34.8433 109.81 34.7917C109.765 34.7401 109.712 34.701 109.656 34.677C109.569 34.6502 109.478 34.6537 109.392 34.6871C109.317 34.7077 109.244 34.7399 109.174 34.7832Z" fill="#2F2E41"/>
<path d="M109.264 35.9543C109.299 35.8679 109.351 35.7956 109.415 35.7449C109.479 35.6942 109.551 35.667 109.626 35.6661C109.881 35.6661 109.834 35.645 109.834 35.645L109.754 36.0675L109.594 36.2787L109.264 35.9543Z" fill="#3589A5"/>
<path d="M109.33 35.5076C109.33 35.5076 109.474 35.8244 109.378 35.9511C109.282 36.0779 109.33 36.2046 109.346 36.2257C109.362 36.2468 109.81 36.2891 109.81 36.2891L109.826 35.9934L109.874 35.7399C109.874 35.7399 109.618 35.6766 109.65 35.5287C109.682 35.3809 109.33 35.5076 109.33 35.5076Z" fill="#FBBEBE"/>
<path opacity="0.1" d="M109.33 35.5076C109.33 35.5076 109.474 35.8244 109.378 35.9511C109.282 36.0779 109.33 36.2046 109.346 36.2257C109.362 36.2468 109.81 36.2891 109.81 36.2891L109.826 35.9934L109.874 35.7399C109.874 35.7399 109.618 35.6766 109.65 35.5287C109.682 35.3809 109.33 35.5076 109.33 35.5076Z" fill="black"/>
<path d="M110.449 38.5068C110.432 38.5793 110.411 38.65 110.385 38.7181C110.369 38.7392 110.321 38.5702 110.321 38.5702L110.369 38.4224L110.449 38.5068Z" fill="#FBBEBE"/>
<path d="M110.265 37.5459L110.329 38.0317H109.37L109.418 37.5459H110.265Z" fill="#FBBEBE"/>
<path d="M109.506 35.6767C109.674 35.6767 109.81 35.497 109.81 35.2753C109.81 35.0537 109.674 34.874 109.506 34.874C109.338 34.874 109.202 35.0537 109.202 35.2753C109.202 35.497 109.338 35.6767 109.506 35.6767Z" fill="#FBBEBE"/>
<path d="M109.57 36.0992C109.57 36.0992 109.394 36.1203 109.394 36.0781C109.394 36.0358 109.378 35.9091 109.346 35.9302C109.314 35.9514 109.106 35.9725 109.122 36.0358C109.138 36.0992 109.17 36.2259 109.138 36.2259C109.125 36.2297 109.111 36.2371 109.1 36.2477C109.088 36.2583 109.078 36.272 109.071 36.2878C109.064 36.3036 109.059 36.3212 109.056 36.3396C109.054 36.3581 109.055 36.3769 109.058 36.3949C109.074 36.5005 109.25 37.1342 109.25 37.1342C109.25 37.1342 109.266 37.3454 109.314 37.4088C109.334 37.442 109.344 37.4829 109.344 37.5249C109.344 37.567 109.334 37.6079 109.314 37.6411C109.282 37.6833 109.394 37.7256 109.442 37.8101C109.49 37.8946 109.858 37.8312 109.874 37.8101C109.89 37.789 110.273 37.789 110.305 37.7467C110.337 37.7045 110.289 37.5777 110.289 37.5777C110.289 37.5777 110.273 37.3876 110.289 37.3243C110.305 37.2609 110.225 36.2259 110.177 36.1626C110.13 36.0992 110.321 35.9091 110.321 35.9091C110.321 35.9091 110.289 35.7401 110.082 35.719C110.082 35.719 110.018 35.5923 109.954 35.5923C109.89 35.5923 109.751 35.6906 109.751 35.6906C109.751 35.6906 109.714 35.9725 109.666 35.9936C109.628 36.0181 109.595 36.0544 109.57 36.0992Z" fill="#3589A5"/>
<path d="M110.209 35.8457L110.321 35.9091C110.321 35.9091 110.641 37.2186 110.609 37.4721C110.577 37.7255 110.497 38.5915 110.449 38.5915C110.401 38.5915 110.305 38.4648 110.305 38.4648V38.2536C110.305 38.2113 110.257 38.0846 110.289 38.0846C110.321 38.0846 110.369 38.0424 110.337 38.0001C110.305 37.9579 110.273 37.8945 110.305 37.8312C110.337 37.7678 110.353 37.7467 110.337 37.6833C110.321 37.6199 110.289 37.5566 110.321 37.5143C110.353 37.4721 110.241 37.2609 110.241 37.2609L110.065 36.3315L110.097 35.9513L110.209 35.8457Z" fill="#3589A5"/>
<path d="M110.273 37.8523C110.273 37.8523 109.666 37.7889 109.586 37.7889C109.506 37.7889 109.327 37.6895 109.327 37.6895C109.327 37.6895 108.867 38.2958 109.026 39.2886C109.186 40.2813 109.218 41.5064 109.314 41.8654C109.379 42.1214 109.433 42.3824 109.474 42.6469C109.474 42.6469 109.634 42.2667 109.938 42.6892C109.938 42.6892 109.97 42.3723 109.922 42.2456C109.874 42.1189 109.81 41.443 109.81 41.443C109.81 41.443 109.698 40.3658 109.698 40.239C109.698 40.1123 109.634 39.0351 109.65 39.014C109.666 38.9929 109.746 39.8377 109.762 39.9856C109.778 40.1334 109.826 41.274 109.874 41.4007C109.922 41.5275 110.145 42.5413 110.273 42.6047C110.401 42.668 110.833 42.5836 110.817 42.5413C110.801 42.4991 110.689 42.2667 110.657 42.2034L110.529 41.9499L110.225 40.577L110.369 38.9084C110.369 38.9084 110.449 37.8312 110.273 37.8523Z" fill="#2F2E41"/>
<path d="M109.691 35.2226H109.302C109.285 35.2226 109.269 35.2148 109.257 35.2006C109.244 35.1864 109.236 35.1668 109.233 35.1452L109.194 34.8213H109.802L109.747 35.1621C109.745 35.1792 109.738 35.1946 109.727 35.2056C109.717 35.2166 109.704 35.2226 109.691 35.2226Z" fill="#2F2E41"/>
<path d="M129.766 35.1226H130.38V36.2826C130.299 36.2826 130.22 36.2616 130.145 36.2208C130.07 36.1799 130.003 36.1201 129.946 36.0447C129.889 35.9693 129.843 35.8798 129.812 35.7813C129.782 35.6828 129.766 35.5772 129.766 35.4706V35.1226Z" fill="#2F2E41"/>
<path d="M129.407 41.9185L129.363 42.2085H129.671L129.685 41.9185H129.407Z" fill="#A0616A"/>
<path d="M129.407 42.15C129.407 42.15 129.348 42.092 129.319 42.1307C129.29 42.1693 129.187 42.9233 129.173 42.9427C129.158 42.962 128.719 43.252 128.822 43.2713C128.924 43.2907 129.319 43.31 129.378 43.2713C129.436 43.2327 129.597 42.8653 129.597 42.8653V43.194H129.626C129.626 43.194 129.656 42.846 129.729 42.7493C129.802 42.6527 129.67 42.324 129.67 42.324C129.67 42.324 129.7 42.1113 129.685 42.1113C129.67 42.1113 129.407 42.15 129.407 42.15Z" fill="#3589A5"/>
<path d="M130.314 41.7153L130.27 42.0054H130.577L130.592 41.7153H130.314Z" fill="#A0616A"/>
<path d="M129.963 39.8303C129.963 39.8303 130.109 40.4103 130.138 40.4683C130.168 40.5263 130.27 41.609 130.27 41.609C130.27 41.609 130.168 41.8216 130.299 41.841C130.431 41.8603 130.373 41.8023 130.46 41.841C130.484 41.8529 130.51 41.8573 130.535 41.854C130.561 41.8506 130.585 41.8396 130.607 41.8216C130.607 41.8216 130.651 41.7056 130.621 41.667C130.592 41.6283 130.651 40.623 130.651 40.623L130.563 40.2749L130.49 39.1729C130.49 39.1729 130.577 38.8829 130.534 38.8056C130.49 38.7283 130.343 38.8636 130.343 38.8636L129.963 39.8303Z" fill="#2F2E41"/>
<path d="M129.773 38.3223C129.773 38.3223 129.729 38.9409 129.699 38.9796C129.67 39.0183 129.348 40.1009 129.348 40.1009C129.348 40.1009 129.26 40.2363 129.29 40.7389C129.319 41.2416 129.392 41.7443 129.392 41.7443C129.392 41.7443 129.334 42.0343 129.436 42.0343C129.538 42.0343 129.582 41.957 129.626 42.015C129.67 42.073 129.699 42.015 129.714 41.9763C129.729 41.9376 129.787 41.8023 129.787 41.7636C129.787 41.725 129.846 40.739 129.846 40.739C129.846 40.739 130.329 39.3276 130.372 39.2503C130.416 39.1729 130.665 38.7476 130.65 38.4576L129.773 38.3223Z" fill="#2F2E41"/>
<path d="M130.138 35.7124C130.308 35.7124 130.446 35.5306 130.446 35.3064C130.446 35.0822 130.308 34.9004 130.138 34.9004C129.969 34.9004 129.831 35.0822 129.831 35.3064C129.831 35.5306 129.969 35.7124 130.138 35.7124Z" fill="#A0616A"/>
<path d="M130.08 35.6544C130.08 35.6544 130.197 36.0024 130.212 36.099C130.226 36.1957 130.504 35.9057 130.504 35.9057C130.504 35.9057 130.358 35.577 130.402 35.4224L130.08 35.6544Z" fill="#A0616A"/>
<path d="M130.548 35.8477C130.548 35.8477 130.329 35.635 130.168 36.0797C130.007 36.5244 129.963 36.505 129.963 36.505C129.963 36.505 129.773 36.5824 129.831 37.1237C129.89 37.665 129.641 38.3804 129.743 38.4191C129.846 38.4577 130.797 38.6704 130.797 38.5157C130.797 38.3611 130.709 37.7617 130.782 37.3944C130.855 37.027 130.68 35.751 130.548 35.8477Z" fill="#3F3D56"/>
<path d="M130.329 35.9443C130.329 35.9443 130.153 36.2923 130.168 36.563C130.182 36.8337 130.182 37.0077 130.182 37.0077C130.182 37.0077 129.89 38.8637 129.948 38.8637C130.007 38.8637 130.182 38.9604 130.197 38.9024C130.212 38.8444 130.577 37.665 130.577 37.665C130.577 37.665 130.665 36.4857 130.563 36.215C130.46 35.9443 130.329 35.9443 130.329 35.9443Z" fill="#3F3D56"/>
<path d="M129.977 38.8057C129.977 38.8057 129.831 39.463 130.036 39.4823C130.241 39.5017 130.124 38.8443 130.124 38.8443L129.977 38.8057Z" fill="#A0616A"/>
<path d="M130.367 41.8547C130.367 41.8547 130.316 41.8039 130.29 41.8377C130.264 41.8716 130.175 42.5319 130.162 42.5488C130.149 42.5658 129.765 42.8197 129.854 42.8366C129.944 42.8536 130.29 42.8705 130.341 42.8366C130.393 42.8028 130.534 42.4811 130.534 42.4811V42.7689H130.559C130.559 42.7689 130.585 42.4642 130.649 42.3795C130.713 42.2949 130.598 42.007 130.598 42.007C130.598 42.007 130.623 41.8208 130.61 41.8208C130.598 41.8208 130.367 41.8547 130.367 41.8547Z" fill="#3589A5"/>
<path d="M129.987 35.0403C129.996 35.0246 130.009 35.0126 130.024 35.0057C130.037 35.0025 130.051 35.004 130.064 35.0103C130.156 35.0457 130.235 35.1221 130.289 35.2265C130.299 35.2531 130.315 35.2755 130.334 35.2914C130.347 35.2963 130.359 35.3025 130.371 35.3098C130.405 35.3397 130.385 35.409 130.365 35.4565C130.315 35.5788 130.292 35.7173 130.298 35.8563C130.298 35.8804 130.303 35.9041 130.313 35.924C130.33 35.9443 130.352 35.9557 130.374 35.9561C130.445 35.9679 130.517 35.9729 130.588 35.9712C130.658 35.9695 130.736 35.9564 130.782 35.8859C130.83 35.8101 130.823 35.694 130.791 35.6038C130.759 35.5136 130.708 35.4382 130.671 35.3513C130.636 35.2594 130.609 35.163 130.589 35.0637C130.564 34.9369 130.523 34.8165 130.468 34.7071C130.44 34.6526 130.405 34.6062 130.363 34.5708C130.321 34.5354 130.274 34.5118 130.225 34.5013C130.092 34.4817 129.97 34.5899 129.863 34.6962C129.743 34.8156 129.615 34.9633 129.606 35.1613C129.598 35.3217 129.671 35.4669 129.709 35.6195C129.768 35.8552 129.743 36.1113 129.718 36.3572C129.826 36.2715 129.949 36.1524 129.941 35.9858C129.937 35.8734 129.873 35.7837 129.833 35.6842C129.723 35.4108 129.848 35.2275 129.987 35.0403Z" fill="#2F2E41"/>
<path d="M134.308 37.0162C134.401 36.8017 134.449 36.5584 134.447 36.3112C134.447 35.6742 134.149 35.1577 133.78 35.1577C133.412 35.1577 133.113 35.6742 133.113 36.3112C133.111 36.5584 133.16 36.8017 133.253 37.0162C133.161 37.2315 133.113 37.4743 133.113 37.7211C133.113 37.9679 133.161 38.2106 133.253 38.426C133.161 38.6414 133.113 38.8841 133.113 39.131C133.113 39.3778 133.161 39.6205 133.253 39.8359C133.161 40.0513 133.113 40.294 133.113 40.5408C133.113 40.7876 133.161 41.0304 133.253 41.2457C133.16 41.4602 133.111 41.7035 133.113 41.9507C133.113 42.5877 133.412 43.1042 133.78 43.1042C134.149 43.1042 134.447 42.5877 134.447 41.9507C134.449 41.7035 134.401 41.4602 134.308 41.2457C134.399 41.0304 134.447 40.7876 134.447 40.5408C134.447 40.294 134.399 40.0513 134.308 39.8359C134.399 39.6205 134.447 39.3778 134.447 39.131C134.447 38.8841 134.399 38.6414 134.308 38.426C134.399 38.2106 134.447 37.9679 134.447 37.7211C134.447 37.4743 134.399 37.2315 134.308 37.0162Z" fill="#3F3D56"/>
<path d="M133.78 36.0551C134.149 36.0551 134.447 35.5386 134.447 34.9016C134.447 34.2645 134.149 33.748 133.78 33.748C133.412 33.748 133.113 34.2645 133.113 34.9016C133.113 35.5386 133.412 36.0551 133.78 36.0551Z" fill="#3F3D56"/>
<path d="M133.78 34.6449C134.149 34.6449 134.447 34.1285 134.447 33.4914C134.447 32.8543 134.149 32.3379 133.78 32.3379C133.412 32.3379 133.113 32.8543 133.113 33.4914C133.113 34.1285 133.412 34.6449 133.78 34.6449Z" fill="#3F3D56"/>
<path d="M136.277 23.8433C136.368 23.6901 136.451 23.5287 136.525 23.3603L134.773 22.98L136.668 22.9986C136.85 22.476 136.949 21.9098 136.959 21.3348C136.97 20.7597 136.891 20.1879 136.729 19.6543L134.186 21.397L136.531 19.1196C136.311 18.618 136.016 18.1815 135.663 17.8374C135.31 17.4933 134.907 17.2489 134.48 17.1194C134.052 16.9899 133.609 16.9781 133.178 17.0848C132.747 17.1915 132.337 17.4143 131.974 17.7394C131.611 18.0644 131.302 18.4848 131.067 18.9744C130.833 19.4639 130.677 20.012 130.609 20.5846C130.542 21.1573 130.564 21.7421 130.675 22.3028C130.787 22.8634 130.984 23.3878 131.255 23.8433C131.113 24.0819 130.991 24.3399 130.891 24.6131L133.165 26.1745L130.74 25.0989C130.57 25.7641 130.527 26.4749 130.617 27.1669C130.707 27.859 130.926 28.5105 131.255 29.0625C130.884 29.6851 130.654 30.4329 130.59 31.2205C130.525 32.008 130.63 32.8035 130.892 33.516C131.154 34.2285 131.563 34.8293 132.071 35.2496C132.579 35.6699 133.166 35.8927 133.766 35.8927C134.365 35.8927 134.953 35.6699 135.461 35.2496C135.969 34.8293 136.377 34.2285 136.639 33.516C136.901 32.8035 137.006 32.008 136.942 31.2205C136.878 30.4329 136.647 29.6851 136.277 29.0625C136.719 28.3185 136.96 27.3995 136.96 26.4529C136.96 25.5064 136.719 24.5873 136.277 23.8433Z" fill="#F2F2F2"/>
<path d="M130.571 26.4528C130.57 27.3996 130.811 28.3191 131.255 29.0624C130.884 29.685 130.654 30.4328 130.59 31.2204C130.525 32.0079 130.63 32.8034 130.892 33.5159C131.154 34.2284 131.563 34.8292 132.071 35.2494C132.579 35.6697 133.166 35.8926 133.766 35.8926C134.365 35.8926 134.953 35.6697 135.461 35.2494C135.969 34.8292 136.377 34.2284 136.639 33.5159C136.901 32.8034 137.006 32.0079 136.942 31.2204C136.878 30.4328 136.647 29.685 136.277 29.0624C136.705 28.3443 130.571 25.9791 130.571 26.4528Z" fill="#F2F2F2"/>
<path d="M136.277 23.8433C136.368 23.6901 136.451 23.5287 136.525 23.3603L134.773 22.98L136.668 22.9986C136.85 22.476 136.949 21.9098 136.959 21.3348C136.97 20.7597 136.891 20.1879 136.729 19.6543L134.186 21.397L136.531 19.1196C136.311 18.618 136.016 18.1815 135.663 17.8374C135.31 17.4933 134.907 17.2489 134.48 17.1194C134.052 16.9899 133.609 16.9781 133.178 17.0848C132.747 17.1915 132.337 17.4143 131.974 17.7394C131.611 18.0644 131.302 18.4848 131.067 18.9744C130.833 19.4639 130.677 20.012 130.609 20.5846C130.542 21.1573 130.564 21.7421 130.675 22.3028C130.787 22.8634 130.984 23.3878 131.255 23.8433C131.113 24.0819 130.991 24.3399 130.891 24.6131L133.165 26.1745L130.74 25.0989C130.57 25.7641 130.527 26.4749 130.617 27.1669C130.707 27.859 130.926 28.5105 131.255 29.0625C130.884 29.6851 130.654 30.4329 130.59 31.2205C130.525 32.008 130.63 32.8035 130.892 33.516C131.154 34.2285 131.563 34.8293 132.071 35.2496C132.579 35.6699 133.166 35.8927 133.766 35.8927C134.365 35.8927 134.953 35.6699 135.461 35.2496C135.969 34.8293 136.377 34.2285 136.639 33.516C136.901 32.8035 137.006 32.008 136.942 31.2205C136.878 30.4329 136.647 29.6851 136.277 29.0625C136.719 28.3185 136.96 27.3995 136.96 26.4529C136.96 25.5064 136.719 24.5873 136.277 23.8433Z" fill="#57B894"/>
<path opacity="0.1" d="M130.571 26.4528C130.57 27.3996 130.811 28.3191 131.255 29.0624C130.884 29.685 130.654 30.4328 130.59 31.2204C130.525 32.0079 130.63 32.8034 130.892 33.5159C131.154 34.2284 131.563 34.8292 132.071 35.2494C132.579 35.6697 133.166 35.8926 133.766 35.8926C134.365 35.8926 134.953 35.6697 135.461 35.2494C135.969 34.8292 136.377 34.2284 136.639 33.5159C136.901 32.8034 137.006 32.0079 136.942 31.2204C136.878 30.4328 136.647 29.685 136.277 29.0624C136.705 28.3443 130.571 25.9791 130.571 26.4528Z" fill="black"/>
<path d="M100.737 37.0162C100.83 36.8017 100.878 36.5584 100.876 36.3112C100.876 35.6742 100.577 35.1577 100.209 35.1577C99.8406 35.1577 99.542 35.6742 99.542 36.3112C99.5402 36.5584 99.5883 36.8017 99.6812 37.0162C99.59 37.2315 99.542 37.4743 99.542 37.7211C99.542 37.9679 99.59 38.2106 99.6812 38.426C99.59 38.6414 99.542 38.8841 99.542 39.131C99.542 39.3778 99.59 39.6205 99.6812 39.8359C99.59 40.0513 99.542 40.294 99.542 40.5408C99.542 40.7876 99.59 41.0304 99.6812 41.2457C99.5883 41.4602 99.5402 41.7035 99.542 41.9507C99.542 42.5877 99.8406 43.1042 100.209 43.1042C100.577 43.1042 100.876 42.5877 100.876 41.9507C100.878 41.7035 100.83 41.4602 100.737 41.2457C100.828 41.0304 100.876 40.7876 100.876 40.5408C100.876 40.294 100.828 40.0513 100.737 39.8359C100.828 39.6205 100.876 39.3778 100.876 39.131C100.876 38.8841 100.828 38.6414 100.737 38.426C100.828 38.2106 100.876 37.9679 100.876 37.7211C100.876 37.4743 100.828 37.2315 100.737 37.0162Z" fill="#3F3D56"/>
<path d="M100.209 36.0551C100.577 36.0551 100.876 35.5386 100.876 34.9016C100.876 34.2645 100.577 33.748 100.209 33.748C99.8406 33.748 99.542 34.2645 99.542 34.9016C99.542 35.5386 99.8406 36.0551 100.209 36.0551Z" fill="#3F3D56"/>
<path d="M100.209 34.6449C100.577 34.6449 100.876 34.1285 100.876 33.4914C100.876 32.8543 100.577 32.3379 100.209 32.3379C99.8406 32.3379 99.542 32.8543 99.542 33.4914C99.542 34.1285 99.8406 34.6449 100.209 34.6449Z" fill="#3F3D56"/>
<path d="M102.705 23.8433C102.796 23.6901 102.879 23.5287 102.954 23.3603L101.201 22.98L103.097 22.9986C103.278 22.476 103.378 21.9098 103.388 21.3348C103.399 20.7597 103.32 20.1879 103.158 19.6543L100.615 21.397L102.96 19.1196C102.74 18.618 102.445 18.1815 102.092 17.8374C101.739 17.4933 101.336 17.2489 100.908 17.1194C100.481 16.9899 100.038 16.9781 99.6067 17.0848C99.1756 17.1915 98.7657 17.4143 98.4026 17.7394C98.0395 18.0644 97.731 18.4848 97.4962 18.9744C97.2614 19.4639 97.1055 20.012 97.038 20.5846C96.9706 21.1573 96.9931 21.7421 97.1041 22.3028C97.2152 22.8634 97.4125 23.3878 97.6836 23.8433C97.5416 24.0819 97.4195 24.3399 97.3193 24.6131L99.594 26.1745L97.1686 25.0989C96.9983 25.7641 96.9562 26.4749 97.0461 27.1669C97.136 27.859 97.3552 28.5105 97.6836 29.0625C97.313 29.6851 97.0825 30.4329 97.0183 31.2205C96.9542 32.008 97.0591 32.8035 97.321 33.516C97.5829 34.2285 97.9913 34.8293 98.4994 35.2496C99.0076 35.6699 99.595 35.8927 100.194 35.8927C100.794 35.8927 101.381 35.6699 101.889 35.2496C102.398 34.8293 102.806 34.2285 103.068 33.516C103.33 32.8035 103.435 32.008 103.371 31.2205C103.306 30.4329 103.076 29.6851 102.705 29.0625C103.148 28.3185 103.389 27.3995 103.389 26.4529C103.389 25.5064 103.148 24.5873 102.705 23.8433Z" fill="#F2F2F2"/>
<path d="M97 26.4528C96.9989 27.3996 97.2398 28.3191 97.6836 29.0624C97.313 29.685 97.0825 30.4328 97.0183 31.2204C96.9542 32.0079 97.0591 32.8034 97.321 33.5159C97.5829 34.2284 97.9913 34.8292 98.4994 35.2494C99.0076 35.6697 99.595 35.8926 100.194 35.8926C100.794 35.8926 101.381 35.6697 101.889 35.2494C102.398 34.8292 102.806 34.2284 103.068 33.5159C103.33 32.8034 103.435 32.0079 103.371 31.2204C103.306 30.4328 103.076 29.685 102.705 29.0624C103.133 28.3443 97 25.9791 97 26.4528Z" fill="#F2F2F2"/>
<path d="M102.705 23.8433C102.796 23.6901 102.879 23.5287 102.954 23.3603L101.201 22.98L103.097 22.9986C103.278 22.476 103.378 21.9098 103.388 21.3348C103.399 20.7597 103.32 20.1879 103.158 19.6543L100.615 21.397L102.96 19.1196C102.74 18.618 102.445 18.1815 102.092 17.8374C101.739 17.4933 101.336 17.2489 100.908 17.1194C100.481 16.9899 100.038 16.9781 99.6067 17.0848C99.1756 17.1915 98.7657 17.4143 98.4026 17.7394C98.0395 18.0644 97.731 18.4848 97.4962 18.9744C97.2614 19.4639 97.1055 20.012 97.038 20.5846C96.9706 21.1573 96.9931 21.7421 97.1041 22.3028C97.2152 22.8634 97.4125 23.3878 97.6836 23.8433C97.5416 24.0819 97.4195 24.3399 97.3193 24.6131L99.594 26.1745L97.1686 25.0989C96.9983 25.7641 96.9562 26.4749 97.0461 27.1669C97.136 27.859 97.3552 28.5105 97.6836 29.0625C97.313 29.6851 97.0825 30.4329 97.0183 31.2205C96.9542 32.008 97.0591 32.8035 97.321 33.516C97.5829 34.2285 97.9913 34.8293 98.4994 35.2496C99.0076 35.6699 99.595 35.8927 100.194 35.8927C100.794 35.8927 101.381 35.6699 101.889 35.2496C102.398 34.8293 102.806 34.2285 103.068 33.516C103.33 32.8035 103.435 32.008 103.371 31.2205C103.306 30.4329 103.076 29.6851 102.705 29.0625C103.148 28.3185 103.389 27.3995 103.389 26.4529C103.389 25.5064 103.148 24.5873 102.705 23.8433Z" fill="#57B894"/>
<path opacity="0.1" d="M97 26.4528C96.9989 27.3996 97.2398 28.3191 97.6836 29.0624C97.313 29.685 97.0825 30.4328 97.0183 31.2204C96.9542 32.0079 97.0591 32.8034 97.321 33.5159C97.5829 34.2284 97.9913 34.8292 98.4994 35.2494C99.0076 35.6697 99.595 35.8926 100.194 35.8926C100.794 35.8926 101.381 35.6697 101.889 35.2494C102.398 34.8292 102.806 34.2284 103.068 33.5159C103.33 32.8034 103.435 32.0079 103.371 31.2204C103.306 30.4328 103.076 29.685 102.705 29.0624C103.133 28.3443 97 25.9791 97 26.4528Z" fill="black"/>
<path d="M120.021 23.6118L118.436 25.7061L117.685 24.7139L117.393 25.1002L118.435 26.4774L120.314 23.9981L120.021 23.6118Z" fill="#57B894"/>
<path d="M125.067 18.835L123.482 20.9292L122.731 19.937L122.438 20.3233L123.481 21.7006L125.359 19.2213L125.067 18.835Z" fill="#57B894"/>
</g>
<defs>
<clipPath id="clip0_2071_2808">
<rect width="50" height="50" fill="white" transform="translate(37)"/>
</clipPath>
<clipPath id="clip1_2071_2808">
<rect width="27" height="27" fill="white" transform="translate(0 12)"/>
</clipPath>
<clipPath id="clip2_2071_2808">
<rect width="40" height="40" fill="white" transform="translate(97 5)"/>
</clipPath>
</defs>
</svg>
