<svg width="25" height="25" viewBox="0 0 25 25" fill="none" xmlns="http://www.w3.org/2000/svg">
<path d="M11.9793 20.8333L17.0418 10.6978H13.5418V4.16659L8.3335 14.302H11.9793V20.8333ZM12.5002 2.08325C15.3647 2.08325 17.8127 3.12492 19.8439 5.15617C21.8752 7.18742 22.9168 9.63534 22.9168 12.4999C22.9168 15.3645 21.8752 17.8124 19.8439 19.8437C17.8127 21.8749 15.3647 22.9166 12.5002 22.9166C9.63558 22.9166 7.18766 21.8749 5.15641 19.8437C3.12516 17.8124 2.0835 15.3645 2.0835 12.4999C2.0835 9.63534 3.12516 7.18742 5.15641 5.15617C7.18766 3.12492 9.63558 2.08325 12.5002 2.08325Z" fill="#253439"/>
</svg>
