<svg width="24" height="24" viewBox="0 0 24 24" fill="none" xmlns="http://www.w3.org/2000/svg">
<path d="M5 13L6.556 9.888C6.801 9.398 7.444 9 8 9C8.552 9 9.2 9.398 9.444 9.888L11 13M6.5 18L7.75 10H8.25L9.5 18M16.5 8L18 10H15L16.5 8ZM16.5 16L18 14H15L16.5 16ZM8 7C8.26522 7 8.51957 6.89464 8.70711 6.70711C8.89464 6.51957 9 6.26522 9 6C9 5.73478 8.89464 5.48043 8.70711 5.29289C8.51957 5.10536 8.26522 5 8 5C7.73478 5 7.48043 5.10536 7.29289 5.29289C7.10536 5.48043 7 5.73478 7 6C7 6.26522 7.10536 6.51957 7.29289 6.70711C7.48043 6.89464 7.73478 7 8 7Z" stroke="#253439" stroke-width="2" stroke-linecap="round"/>
</svg>
