<svg width="24" height="24" viewBox="0 0 24 24" fill="none" xmlns="http://www.w3.org/2000/svg">
<path fill-rule="evenodd" clip-rule="evenodd" d="M8.99989 10.9977V12.9932H10.9999V8.99576H12.9998V12.9931H14.9998V10.9977L17.5 13.5L18.914 12.0867L14.4658 7.63746C14.0968 7.24765 13.5799 6.99677 12.9998 6.99677H10.9999C10.4228 6.99677 9.90688 7.24465 9.54186 7.63647L5.08602 12.0868L6.5 13.5L8.99989 10.9977ZM22 18V20C21.9762 20 21.9433 20.0098 21.899 20.0319L21.795 20.0929C21.7732 20.1072 21.7517 20.1218 21.7305 20.1369L21.5743 20.2542C21.5451 20.2772 21.5142 20.302 21.4815 20.3286L21.2645 20.5115L20.6265 21.0765L20.4131 21.2538C19.814 21.7351 19.2875 22.0001 18.6667 22.0001C17.9982 22.0001 17.5651 21.7923 16.8648 21.2091L16.5207 20.9126L16.0688 20.5115L15.8518 20.3286L15.6763 20.1904L15.5383 20.0929L15.4343 20.0319C15.3901 20.0099 15.3571 20 15.3333 20C15.3095 20 15.2766 20.0099 15.2324 20.0319L15.1283 20.0929C15.1083 20.106 15.0868 20.1207 15.0638 20.1369L14.9076 20.2542C14.8784 20.2772 14.8475 20.302 14.8149 20.3286L14.5978 20.5115L13.9685 21.0678C13.1668 21.7591 12.7199 22 12 22C11.2801 22 10.8332 21.7591 10.0315 21.0678L9.40212 20.5115L9.18509 20.3286L9.00959 20.1904C8.96468 20.1565 8.91869 20.124 8.87169 20.0929L8.76763 20.0319C8.72342 20.0099 8.69047 20 8.66666 20C8.64284 20 8.60994 20.0099 8.56573 20.0319L8.46167 20.0929L8.32377 20.1904L8.14822 20.3286L7.93119 20.5115L7.47931 20.9126L7.13525 21.2091C6.43494 21.7923 6.00181 22 5.33337 22C4.61342 22 4.16652 21.7591 3.36481 21.0678L2.73547 20.5116L2.51844 20.3287L2.34289 20.1905C2.29799 20.1565 2.25202 20.124 2.20503 20.093L2.10097 20.032C2.07148 20.0173 2.04706 20.008 2.02691 20.0034L2 20V18C2.71991 18 3.16681 18.241 3.96852 18.9323L4.59786 19.4884L4.81489 19.6714L4.99044 19.8096C5.03535 19.8436 5.08134 19.8761 5.12834 19.9071L5.23241 19.9681C5.27656 19.9901 5.30952 20 5.33333 20C5.35714 20 5.39005 19.9901 5.4343 19.9681L5.53836 19.9071L5.67622 19.8096L5.85177 19.6714L6.0688 19.4884L6.52067 19.0874L6.86473 18.7909C7.56505 18.2078 7.99817 18 8.6667 18C9.38661 18 9.83352 18.241 10.6352 18.9323L11.2646 19.4884L11.4816 19.6714L11.6571 19.8096C11.7021 19.8436 11.748 19.8761 11.795 19.9071L11.8991 19.9681C11.9433 19.9901 11.9762 20 12 20C12.0238 20 12.0568 19.9901 12.101 19.9681L12.2051 19.9071C12.2251 19.894 12.2466 19.8793 12.2695 19.8632L12.4258 19.7458C12.455 19.7228 12.4859 19.698 12.5185 19.6714L12.7355 19.4884L13.3649 18.9323C14.1665 18.241 14.6135 18 15.3333 18C16.0017 18 16.4348 18.2078 17.1352 18.7909L17.4792 19.0874L17.9311 19.4884L18.1482 19.6714L18.3237 19.8096L18.4616 19.9071L18.5657 19.9681C18.6099 19.9901 18.6428 20 18.6666 20C18.7045 20 18.8091 19.9521 18.9748 19.8352L19.1606 19.6946L19.3328 19.5511L20.0315 18.9323C20.7758 18.2903 21.2144 18.0367 21.8496 18.0038L22 18ZM22 14V16C21.9762 16 21.9433 16.0098 21.899 16.0319L21.795 16.0929C21.7749 16.106 21.7534 16.1206 21.7305 16.1368L21.5743 16.2542C21.5451 16.2772 21.5142 16.302 21.4815 16.3286L21.2645 16.5116L20.6265 17.0765L20.4131 17.2538C19.814 17.7351 19.2875 18 18.6667 18C17.9982 18 17.5651 17.7923 16.8648 17.2091L16.5207 16.9127L16.0688 16.5116L15.8518 16.3286L15.6763 16.1905L15.5383 16.0929L15.4343 16.0319C15.3901 16.0099 15.3571 16.0001 15.3333 16.0001C15.3095 16.0001 15.2766 16.0099 15.2324 16.0319L15.1283 16.0929C15.1083 16.106 15.0868 16.1206 15.0638 16.1368L14.9076 16.2542C14.8784 16.2772 14.8475 16.302 14.8149 16.3286L14.5978 16.5116L13.9685 17.0678C13.1668 17.7591 12.7199 18 12 18C11.2801 18 10.8332 17.7591 10.0315 17.0678L9.40212 16.5116L9.18509 16.3286L9.00959 16.1905C8.96468 16.1565 8.91869 16.1239 8.87169 16.0929L8.76763 16.0319C8.72342 16.0099 8.69047 16.0001 8.66666 16.0001C8.64284 16.0001 8.60994 16.0099 8.56573 16.0319L8.46167 16.0929L8.32377 16.1905L8.14822 16.3286L7.93119 16.5116L7.47931 16.9127L7.13525 17.2091C6.43494 17.7922 6.00181 18 5.33337 18C4.61342 18 4.16652 17.7591 3.36481 17.0678L2.73547 16.5116L2.51844 16.3286L2.34289 16.1905C2.298 16.1565 2.25202 16.1239 2.20503 16.0929L2.10097 16.0319C2.07148 16.0172 2.04706 16.0079 2.02691 16.0034L2 16V14C2.71991 14 3.16681 14.2409 3.96852 14.9322L4.59786 15.4885L4.81489 15.6714L4.99044 15.8096C5.03535 15.8435 5.08134 15.8761 5.12834 15.9071L5.23241 15.9681C5.27656 15.9901 5.30952 16 5.33333 16C5.35714 16 5.39005 15.9902 5.4343 15.9681L5.53836 15.9071L5.67622 15.8096L5.85177 15.6714L6.0688 15.4885L6.52067 15.0873L6.86473 14.7909C7.56505 14.2078 7.99817 14 8.66666 14C9.38656 14 9.83347 14.2409 10.6352 14.9322L11.2646 15.4885L11.4815 15.6714L11.6571 15.8096C11.702 15.8435 11.748 15.8761 11.795 15.9071L11.8991 15.9681C11.9433 15.9901 11.9762 16 12 16C12.0238 16 12.0568 15.9902 12.101 15.9681L12.205 15.9071C12.2268 15.8929 12.2483 15.8782 12.2695 15.8632L12.4258 15.7458C12.4549 15.7228 12.4858 15.698 12.5185 15.6714L12.7355 15.4885L13.3648 14.9322C14.1665 14.2409 14.6135 14 15.3333 14C16.0018 14 16.4349 14.2077 17.1352 14.7909L17.4793 15.0873L17.9312 15.4885L18.1482 15.6714L18.3238 15.8096L18.4617 15.9071L18.5657 15.9681C18.6099 15.9901 18.6429 16 18.6667 16C18.7045 16 18.8092 15.9521 18.9749 15.8352L19.1607 15.6946L19.3328 15.5511L20.0315 14.9322C20.7759 14.2903 21.2144 14.0367 21.8497 14.0038L22 14ZM11.9998 5.99768C13.1048 5.99768 13.9998 5.10312 13.9998 3.99869C13.9998 2.89432 13.1048 1.99976 11.9998 1.99976C10.8949 1.99976 9.99988 2.89427 9.99988 3.99869C9.99988 5.10312 10.8949 5.99768 11.9998 5.99768Z" fill="#253439"/>
</svg>
