<svg width="24" height="24" viewBox="0 0 24 24" fill="none" xmlns="http://www.w3.org/2000/svg">
<g clip-path="url(#clip0_2061_3397)">
<path d="M23.82 5.78996L22.905 3.82496C22.7918 3.5832 22.6266 3.3694 22.4213 3.19879C22.2159 3.02819 21.9755 2.90498 21.717 2.83796C18.81 2.04596 15.4755 1.56146 12.0375 1.50146C8.64918 1.55468 5.28029 2.02522 2.00704 2.90246C1.75954 2.97446 1.32753 3.33746 1.09953 3.81596L0.180035 5.79146C0.062249 6.03466 0.000727812 6.30125 3.5156e-05 6.57147V7.87646L-0.00146484 7.93796C-0.00146484 8.52596 0.475535 9.00296 1.06353 9.00296L1.11303 9.00146H4.89003C5.18768 8.99441 5.47075 8.8712 5.67874 8.65817C5.88672 8.44514 6.00312 8.15919 6.00303 7.86147L6.00003 7.78197V6.50696C6.00014 6.34397 6.04112 6.1836 6.11921 6.04052C6.19729 5.89745 6.31001 5.77623 6.44703 5.68796C8.16092 4.77645 10.0966 4.36529 12.033 4.50146C13.9651 4.37152 15.8954 4.78072 17.6085 5.68347C17.823 5.83196 18.0015 6.13346 18.0015 6.47696V7.78497C17.9914 7.93824 18.0123 8.09199 18.0631 8.23698C18.1138 8.38197 18.1933 8.5152 18.2969 8.62868C18.4004 8.74216 18.5258 8.83355 18.6655 8.89735C18.8053 8.96115 18.9565 8.99606 19.11 8.99996H22.8915L22.938 9.00146C23.2205 9.00146 23.4914 8.88926 23.6911 8.68953C23.8908 8.48981 24.003 8.21892 24.003 7.93646L24.0015 7.87197V6.56997C24.001 6.29585 23.9379 6.02548 23.817 5.77946L23.82 5.78996Z" fill="#253439"/>
<path d="M18 12.45C17.0238 11.199 16.4951 9.65683 16.4985 8.07L16.5 7.944V7.5H15V9H9V7.5H7.5V7.995L7.5015 8.115C7.50366 9.70819 6.97066 11.2559 5.988 12.51L1.5 18V22.5H22.5V18L18 12.45ZM12 19.5C10.8065 19.5 9.66193 19.0259 8.81802 18.182C7.97411 17.3381 7.5 16.1935 7.5 15C7.5 13.8065 7.97411 12.6619 8.81802 11.818C9.66193 10.9741 10.8065 10.5 12 10.5C13.1935 10.5 14.3381 10.9741 15.182 11.818C16.0259 12.6619 16.5 13.8065 16.5 15C16.5 16.1935 16.0259 17.3381 15.182 18.182C14.3381 19.0259 13.1935 19.5 12 19.5Z" fill="#253439"/>
<path d="M15.0002 15C15.0092 15.3996 14.9384 15.7968 14.7918 16.1686C14.6451 16.5403 14.4257 16.879 14.1464 17.1648C13.8671 17.4506 13.5335 17.6777 13.1652 17.8328C12.7969 17.9878 12.4013 18.0678 12.0017 18.0679C11.6021 18.068 11.2065 17.9882 10.8381 17.8333C10.4698 17.6784 10.1361 17.4515 9.8566 17.1659C9.57714 16.8802 9.35756 16.5416 9.21075 16.17C9.06395 15.7983 8.99288 15.4011 9.00171 15.0015C9.01904 14.2177 9.34255 13.4718 9.90297 12.9235C10.4634 12.3752 11.2162 12.0681 12.0002 12.0679C12.7843 12.0677 13.5372 12.3744 14.0979 12.9224C14.6586 13.4705 14.9825 14.2162 15.0002 15Z" fill="#253439"/>
</g>
<defs>
<clipPath id="clip0_2061_3397">
<rect width="24" height="24" fill="white"/>
</clipPath>
</defs>
</svg>
