<svg width="24" height="24" viewBox="0 0 24 24" fill="none" xmlns="http://www.w3.org/2000/svg">
<path d="M16.1776 3.19995C15.9984 3.19995 15.4816 3.43515 15.4816 3.43515L10.1664 6.12315C9.4576 6.40315 9.1776 7.53275 9.6032 8.09755L11.1552 10.3504L4.8032 13.5968L8 15.9968L12.0032 13.5968L16.0032 15.9968L17.6064 14.3936L12.8064 7.99355L16.8976 5.54555C17.7424 5.11995 17.6064 4.41915 17.6064 3.99355C17.6 3.65755 17.0304 3.19995 16.1776 3.19995ZM19.6032 7.99995C19.2354 7.99964 18.8711 8.07177 18.5312 8.21223C18.1913 8.35269 17.8823 8.55873 17.622 8.81859C17.3617 9.07845 17.1552 9.38703 17.0141 9.72671C16.8731 10.0664 16.8003 10.4305 16.8 10.7984C16.7997 11.1662 16.8718 11.5304 17.0123 11.8704C17.1527 12.2103 17.3588 12.5192 17.6186 12.7795C17.8785 13.0398 18.1871 13.2464 18.5268 13.3874C18.8665 13.5285 19.2306 13.6012 19.5984 13.6016C20.3412 13.6022 21.0539 13.3077 21.5796 12.7829C22.1053 12.2581 22.401 11.546 22.4016 10.8032C22.4022 10.0603 22.1078 9.34769 21.583 8.82198C21.0582 8.29628 20.346 8.00059 19.6032 7.99995ZM4 16L0 18.4V20.8L4 18.4L8 20.8L12.0032 18.4L16.0032 20.8L19.2 18.4L24 20.8V18.4L19.2 16L16.0032 18.4L12.0032 16L8 18.4L4 16Z" fill="#253439"/>
</svg>
