<svg width="11" height="12" viewBox="0 0 11 12" fill="none" xmlns="http://www.w3.org/2000/svg">
<g clip-path="url(#clip0_1510_4945)">
<path d="M3.78198 3.22469C3.78197 2.89947 3.87422 2.58093 4.04803 2.30605C4.22183 2.03117 4.47006 1.81125 4.76387 1.67183C5.05769 1.5324 5.38503 1.47919 5.70787 1.51839C6.03072 1.55758 6.33582 1.68757 6.58774 1.89325C6.83965 2.09893 7.02804 2.37186 7.13103 2.68034C7.23401 2.98882 7.24737 3.32018 7.16954 3.63595C7.0917 3.95171 6.92588 4.23892 6.69133 4.4642C6.45678 4.68948 6.16313 4.84359 5.84448 4.90863V8.03719C5.84448 8.12836 5.80827 8.21579 5.7438 8.28026C5.67934 8.34472 5.5919 8.38094 5.50073 8.38094C5.40956 8.38094 5.32213 8.34472 5.25766 8.28026C5.1932 8.21579 5.15698 8.12836 5.15698 8.03719V4.90863C4.76902 4.82903 4.42039 4.61805 4.1699 4.31128C3.91942 4.00451 3.7824 3.62073 3.78198 3.22469ZM9.36792 6.77348C8.84112 6.47528 8.11667 6.24625 7.27233 6.1109C7.18213 6.09666 7.08997 6.11883 7.01612 6.17253C6.94226 6.22624 6.89277 6.30709 6.87853 6.39729C6.86428 6.48749 6.88645 6.57965 6.94016 6.6535C6.99387 6.72736 7.07471 6.77685 7.16491 6.7911C7.91858 6.91227 8.58288 7.11895 9.03061 7.37332C9.41089 7.58602 9.62573 7.82836 9.62573 8.03719C9.62573 8.61125 8.05651 9.41219 5.50073 9.41219C2.94495 9.41219 1.37573 8.61125 1.37573 8.03719C1.37573 7.82836 1.59058 7.58602 1.97085 7.3716C2.4203 7.11723 3.08288 6.91055 3.83655 6.78938C3.88216 6.78342 3.92611 6.76837 3.9658 6.74511C4.00549 6.72186 4.04011 6.69088 4.0676 6.654C4.0951 6.61713 4.11492 6.57511 4.12588 6.53044C4.13684 6.48576 4.13872 6.43934 4.13142 6.39393C4.12411 6.34851 4.10776 6.30503 4.08335 6.26605C4.05893 6.22706 4.02694 6.19338 3.98926 6.16699C3.95159 6.14059 3.909 6.12203 3.86402 6.1124C3.81904 6.10276 3.77259 6.10225 3.72741 6.1109C2.88308 6.24625 2.15862 6.47528 1.63183 6.77348C0.851943 7.2152 0.688232 7.70461 0.688232 8.03719C0.688232 9.37696 3.16796 10.0997 5.50073 10.0997C7.83351 10.0997 10.3132 9.37696 10.3132 8.03719C10.3132 7.70461 10.1495 7.2152 9.36792 6.77348Z" fill="#253439"/>
</g>
<defs>
<clipPath id="clip0_1510_4945">
<rect width="11" height="11" fill="white" transform="translate(0.000732422 0.474731)"/>
</clipPath>
</defs>
</svg>
