<svg width="11" height="12" viewBox="0 0 11 12" fill="none" xmlns="http://www.w3.org/2000/svg">
<g clip-path="url(#clip0_1510_4939)">
<path fill-rule="evenodd" clip-rule="evenodd" d="M0.917318 5.51636H0.802734C0.711566 5.51636 0.624132 5.55257 0.559666 5.61704C0.495201 5.68151 0.458984 5.76894 0.458984 5.86011C0.458984 5.95128 0.495201 6.03871 0.559666 6.10318C0.624132 6.16764 0.711566 6.20386 0.802734 6.20386H0.917318V6.36657C0.917318 6.53844 0.917318 6.63927 0.924651 6.75157C0.989734 7.77686 1.5434 8.72332 2.3464 9.34207C2.41836 9.39982 2.76486 9.61157 2.92848 9.71011C3.29805 9.89833 3.699 10.0172 4.11144 10.0607C4.22373 10.0722 4.29203 10.0745 4.40844 10.0791H4.41165C4.75082 10.0919 5.08265 10.0997 5.38607 10.0997C5.68948 10.0997 6.02132 10.0919 6.36048 10.0791H6.36369C6.48011 10.0745 6.54886 10.0722 6.66069 10.0607C7.07298 10.0171 7.47377 9.89827 7.84319 9.71011C7.99857 9.61844 8.33223 9.41723 8.42619 9.34207C9.22873 8.72332 9.78286 7.7764 9.84794 6.75157C9.85482 6.63927 9.85482 6.53844 9.85482 6.36657V6.34915C9.85482 6.32165 9.85482 6.29277 9.85298 6.26665C9.85157 6.24565 9.84943 6.22471 9.84657 6.20386H9.9694C10.0606 6.20386 10.148 6.16764 10.2125 6.10318C10.2769 6.03871 10.3132 5.95128 10.3132 5.86011C10.3132 5.76894 10.2769 5.68151 10.2125 5.61704C10.148 5.55257 10.0606 5.51636 9.9694 5.51636H0.917318Z" fill="#253439"/>
<path opacity="0.5" d="M2.34656 9.34207L2.32869 9.37324L1.87036 10.2899C1.84978 10.3303 1.8374 10.3744 1.83395 10.4197C1.8305 10.4649 1.83603 10.5104 1.85024 10.5535C1.86444 10.5966 1.88704 10.6364 1.91671 10.6707C1.94639 10.705 1.98257 10.7331 2.02316 10.7534C2.06375 10.7737 2.10795 10.7857 2.15321 10.7888C2.19847 10.7919 2.24389 10.786 2.28687 10.7715C2.32984 10.7569 2.36951 10.734 2.40359 10.7041C2.43767 10.6741 2.46549 10.6377 2.48544 10.597L2.92911 9.71011C2.76502 9.61157 2.41852 9.39982 2.34656 9.34207ZM7.84336 9.71011L8.28702 10.5974C8.30722 10.6378 8.33517 10.6738 8.36928 10.7034C8.40339 10.733 8.443 10.7556 8.48583 10.7699C8.52867 10.7842 8.5739 10.7899 8.61894 10.7867C8.66398 10.7835 8.70795 10.7714 8.74834 10.7512C8.78872 10.731 8.82474 10.7031 8.85432 10.669C8.88391 10.6349 8.90648 10.5952 8.92076 10.5524C8.93504 10.5096 8.94074 10.4643 8.93754 10.4193C8.93434 10.3743 8.9223 10.3303 8.90211 10.2899L8.44377 9.37324L8.4259 9.34207C8.3324 9.41724 7.99827 9.61891 7.84336 9.71011ZM1.60498 2.36991C1.60502 2.19577 1.6657 2.02708 1.7766 1.89283C1.8875 1.75858 2.0417 1.66713 2.21269 1.63421C2.38369 1.60129 2.56081 1.62895 2.71363 1.71244C2.86644 1.79592 2.98542 1.93002 3.05011 2.0917L3.11611 2.25578L3.73944 1.96245L3.68902 1.83641C3.56524 1.526 3.33714 1.26845 3.04397 1.10807C2.7508 0.947687 2.4109 0.894502 2.08275 0.957668C1.75461 1.02083 1.45874 1.1964 1.24606 1.45415C1.03338 1.71191 0.917187 2.03573 0.917481 2.36991V5.51636H1.60498V2.36991Z" fill="#253439"/>
<path d="M3.11567 2.25578C2.83322 2.4626 2.61415 2.74421 2.48317 3.06886C2.2974 3.52479 2.29429 4.03474 2.47446 4.49291C2.49134 4.53573 2.51665 4.57472 2.54888 4.60758C2.58111 4.64044 2.61961 4.66649 2.6621 4.68418C2.70459 4.70188 2.7502 4.71086 2.79623 4.7106C2.84226 4.71034 2.88776 4.70084 2.93005 4.68266L5.66217 3.50611C5.74418 3.47086 5.80926 3.4051 5.84365 3.32272C5.87803 3.24035 5.87903 3.14783 5.84642 3.06474C5.75906 2.83918 5.62761 2.6333 5.45975 2.45914C5.29189 2.28499 5.09099 2.14605 4.8688 2.05045C4.5122 1.89736 4.11501 1.86642 3.73901 1.96245L3.11567 2.25578Z" fill="#253439"/>
</g>
<defs>
<clipPath id="clip0_1510_4939">
<rect width="11" height="11" fill="white" transform="translate(0.000732422 0.474731)"/>
</clipPath>
</defs>
</svg>
