<svg width="11" height="12" viewBox="0 0 11 12" fill="none" xmlns="http://www.w3.org/2000/svg">
<g clip-path="url(#clip0_1510_4935)">
<path d="M9.28198 5.43118C9.06528 5.33602 8.83115 5.287 8.59448 5.28723H2.40698C2.17033 5.287 1.93622 5.33594 1.71948 5.43096C1.41316 5.56492 1.1525 5.78522 0.969354 6.06493C0.786212 6.34464 0.688525 6.67165 0.688232 7.00598V9.41223C0.688232 9.5034 0.724449 9.59083 0.788914 9.6553C0.85338 9.71977 0.940814 9.75598 1.03198 9.75598C1.12315 9.75598 1.21058 9.71977 1.27505 9.6553C1.33952 9.59083 1.37573 9.5034 1.37573 9.41223V9.24036C1.37629 9.19495 1.39458 9.15155 1.42669 9.11944C1.4588 9.08733 1.5022 9.06904 1.54761 9.06848H9.45386C9.49927 9.06904 9.54266 9.08733 9.57478 9.11944C9.60689 9.15155 9.62518 9.19495 9.62573 9.24036V9.41223C9.62573 9.5034 9.66195 9.59083 9.72641 9.6553C9.79088 9.71977 9.87831 9.75598 9.96948 9.75598C10.0607 9.75598 10.1481 9.71977 10.2126 9.6553C10.277 9.59083 10.3132 9.5034 10.3132 9.41223V7.00598C10.3129 6.67168 10.2152 6.34472 10.0321 6.06505C9.84891 5.78539 9.58827 5.56512 9.28198 5.43118ZM8.07886 2.19348H2.92261C2.60352 2.19348 2.2975 2.32024 2.07187 2.54587C1.84624 2.7715 1.71948 3.07752 1.71948 3.39661V4.94348C1.71949 4.9568 1.7226 4.96993 1.72855 4.98184C1.73451 4.99376 1.74315 5.00412 1.75379 5.01212C1.76444 5.02012 1.7768 5.02554 1.7899 5.02794C1.803 5.03035 1.81647 5.02968 1.82927 5.02598C2.01692 4.9711 2.21146 4.94331 2.40698 4.94348H2.49786C2.51907 4.94362 2.53959 4.9359 2.55545 4.92182C2.57132 4.90774 2.58141 4.88829 2.5838 4.86721C2.60255 4.69924 2.68251 4.54407 2.80842 4.43132C2.93432 4.31857 3.09735 4.25615 3.26636 4.25598H4.46948C4.6386 4.25599 4.80179 4.31834 4.92783 4.43111C5.05387 4.54387 5.13392 4.69913 5.15269 4.86721C5.15507 4.88829 5.16517 4.90774 5.18103 4.92182C5.1969 4.9359 5.21741 4.94362 5.23862 4.94348H5.76413C5.78534 4.94362 5.80585 4.9359 5.82172 4.92182C5.83759 4.90774 5.84768 4.88829 5.85007 4.86721C5.86881 4.69936 5.94868 4.54427 6.07445 4.43154C6.20022 4.3188 6.36308 4.25631 6.53198 4.25598H7.73511C7.90423 4.25599 8.06741 4.31834 8.19345 4.43111C8.31949 4.54387 8.39955 4.69913 8.41831 4.86721C8.4207 4.88829 8.43079 4.90774 8.44666 4.92182C8.46252 4.9359 8.48304 4.94362 8.50425 4.94348H8.59448C8.79001 4.94338 8.98455 4.97124 9.1722 5.0262C9.18501 5.0299 9.19851 5.03057 9.21162 5.02815C9.22474 5.02573 9.23711 5.0203 9.24776 5.01227C9.25841 5.00425 9.26705 4.99385 9.27299 4.98191C9.27893 4.96997 9.28201 4.95682 9.28198 4.94348V3.39661C9.28198 3.07752 9.15522 2.7715 8.9296 2.54587C8.70397 2.32024 8.39795 2.19348 8.07886 2.19348Z" fill="#253439"/>
</g>
<defs>
<clipPath id="clip0_1510_4935">
<rect width="11" height="11" fill="white" transform="translate(0.000732422 0.474731)"/>
</clipPath>
</defs>
</svg>
