<svg width="100" height="100" viewBox="0 0 100 100" fill="none" xmlns="http://www.w3.org/2000/svg">
<path d="M21.3222 83.3333C19.4028 83.3333 17.8014 82.6916 16.518 81.4083C15.2347 80.125 14.5916 78.5222 14.5889 76.6V23.4C14.5889 21.4806 15.2319 19.8792 16.518 18.5958C17.8041 17.3125 19.4041 16.6694 21.318 16.6667H60.1014V20.8333H21.3222C20.6805 20.8333 20.0916 21.1 19.5555 21.6333C19.0194 22.1667 18.7528 22.7556 18.7555 23.4V76.6041C18.7555 77.243 19.0222 77.8305 19.5555 78.3666C20.0889 78.9028 20.6764 79.1694 21.318 79.1666H74.5264C75.1652 79.1666 75.7527 78.9 76.2889 78.3666C76.825 77.8333 77.0916 77.2458 77.0889 76.6041V37.8208H81.2555V76.6041C81.2555 78.5208 80.6139 80.1222 79.3305 81.4083C78.0472 82.6944 76.4444 83.3361 74.5222 83.3333H21.3222ZM33.3389 68.75V64.5833H62.5055V68.75H33.3389ZM33.3389 56.25V52.0833H62.5055V56.25H33.3389ZM33.3389 43.75V39.5833H62.5055V43.75H33.3389ZM72.9222 33.3333V25H64.5889V20.8333H72.9222V12.5H77.0889V20.8333H85.4222V25H77.0889V33.3333H72.9222Z" fill="white"/>
</svg>
