<svg width="100" height="100" viewBox="0 0 100 100" fill="none" xmlns="http://www.w3.org/2000/svg">
<path d="M16.667 50V67.4167C16.667 74.475 16.667 78 17.7837 80.8209C19.5753 85.3542 23.3753 88.925 28.1878 90.6125C31.1795 91.6667 34.9295 91.6667 42.4253 91.6667C55.542 91.6667 62.1003 91.6667 67.342 89.825C75.7587 86.8667 82.4045 80.6167 85.5503 72.6875C87.5003 67.7542 87.5003 61.5792 87.5003 49.2292V38.625C87.5003 25.8334 87.5003 19.4375 83.967 14.9917C82.9466 13.7085 81.7468 12.5789 80.4045 11.6375C76.6045 8.95837 71.4587 8.43337 62.5003 8.33337" stroke="#253439" stroke-width="2" stroke-linecap="round" stroke-linejoin="round"/>
<path d="M87.5002 50C87.5002 53.6832 86.0371 57.2156 83.4327 59.82C80.8283 62.4244 77.2959 63.8876 73.6127 63.8876C70.8377 63.8876 67.5669 63.4042 64.8711 64.125C63.6936 64.4417 62.62 65.0622 61.7579 65.9244C60.8957 66.7865 59.9586 69.0375 59.9586 69.0375C59.2377 71.7334 59.7211 75.0042 59.7211 77.7792C59.7211 79.6029 59.3619 81.4088 58.6639 83.0937C57.966 84.7786 56.9431 86.3096 55.6535 87.5992C54.3639 88.8887 52.833 89.9117 51.1481 90.6096C49.4632 91.3075 47.6573 91.6667 45.8336 91.6667M17.2586 10.175C22.2877 7.12505 26.6752 8.35422 29.3127 10.3084C30.3919 11.1125 30.9336 11.5125 31.2502 11.5125C31.5669 11.5125 32.1086 11.1125 33.1877 10.3084C35.8252 8.35422 40.2127 7.12505 45.2419 10.175C51.8419 14.1709 53.3336 27.3584 38.1169 38.4875C35.2086 40.6042 33.7627 41.6667 31.2502 41.6667C28.7377 41.6667 27.2877 40.6042 24.3877 38.4875C9.16689 27.3625 10.6586 14.1667 17.2586 10.175Z" stroke="#253439" stroke-width="2" stroke-linecap="round" stroke-linejoin="round"/>
</svg>
