<?xml version="1.0" encoding="utf-8"?>
<svg height="188px" preserveAspectRatio="xMidYMid meet" version="1.0" viewBox="0 0 250 188" width="250px" xmlns="http://www.w3.org/2000/svg">
    <g fill="FF26353A">
        <path
            d="M162 139.2 l0 -37.3 -19.1 -20.5 c-10.5 -11.2 -19.5 -20.4 -19.9 -20.4 -0.5 0 -10.3 9.8 -21.9 21.7 l-21.1 21.8 0.3 30 0.2 30 32.3 0 32.2 0 0 5.8 0 5.7 -38.5 0 -38.5 0 0.1 -36.7 c0 -20.3 0.4 -37.6 0.7 -38.5 0.4 -1 11 -12.4 23.6 -25.3 l22.8 -23.5 -3.7 -4.5 c-2 -2.5 -4.2 -4.5 -4.8 -4.5 -0.7 0.1 -13 11.9 -27.5 26.3 l-26.2 26.2 0.2 40.3 0.3 40.2 -21.2 0 -21.3 0 0 -5.5 0 -5.5 15.5 0 15.5 0 0 -37.3 0 -37.4 32.5 -32.2 32.6 -32.3 8.2 8.7 8.2 8.7 11.9 -12.1 c6.6 -6.7 12.3 -12 12.7 -11.9 0.4 0.2 13.3 12.3 28.6 26.9 15.3 14.6 33.7 32.1 40.8 38.9 7.2 6.9 13.5 13.4 14.2 14.5 0.9 1.5 1.2 11.9 1.3 39.3 l0 37.2 -5.5 0 -5.5 0 0 -35.4 0 -35.4 -29.2 -27.8 c-16.1 -15.3 -32.8 -31.2 -37.1 -35.3 l-7.8 -7.5 -7.9 7.9 c-4.4 4.4 -8 8.5 -8 9.1 0 0.7 8.8 10.6 19.6 22.1 10.7 11.4 20.2 22.3 21 24.2 1.1 2.7 1.4 10.5 1.4 41 l0 37.6 -6 0 -6 0 0 -37.3z" />
    </g>
    <g fill="#b29e84">
        <path d="M105 134.5 l0 -7.5 8 0 8 0 0 7.5 0 7.5 -8 0 -8 0 0 -7.5z" />
        <path d="M130 134.5 l0 -7.5 7.5 0 7.5 0 0 7.5 0 7.5 -7.5 0 -7.5 0 0 -7.5z" />
        <path d="M105 110.5 l0 -7.5 8 0 8 0 0 7.5 0 7.5 -8 0 -8 0 0 -7.5z" />
        <path d="M130 110.5 l0 -7.5 7.5 0 7.5 0 0 7.5 0 7.5 -7.5 0 -7.5 0 0 -7.5z" />
    </g>
</svg>