<?xml version="1.0" encoding="utf-8"?>
<svg height="188px" preserveAspectRatio="xMidYMid meet" version="1.0" viewBox="0 0 250 188" width="250px" xmlns="http://www.w3.org/2000/svg">
    <g fill="#b29e84">
        <path d="M105 134.5 l0 -7.5 8 0 8 0 0 7.5 0 7.5 -8 0 -8 0 0 -7.5z" />
        <path d="M130 134.5 l0 -7.5 7.5 0 7.5 0 0 7.5 0 7.5 -7.5 0 -7.5 0 0 -7.5z" />
        <path d="M105 110.5 l0 -7.5 8 0 8 0 0 7.5 0 7.5 -8 0 -8 0 0 -7.5z" />
        <path d="M130 110.5 l0 -7.5 7.5 0 7.5 0 0 7.5 0 7.5 -7.5 0 -7.5 0 0 -7.5z" />
    </g>
</svg>