<svg width="16" height="16" viewBox="0 0 16 16" fill="none" xmlns="http://www.w3.org/2000/svg">
<path d="M5.31336 6.59035H10.6867M5.31336 9.40901H9.14536M8.00003 14.1663C9.33962 14.1661 10.6427 13.7296 11.7122 12.9229C12.7816 12.1162 13.5593 10.9832 13.9277 9.69527C14.296 8.40731 14.2349 7.03444 13.7537 5.78428C13.2724 4.53412 12.3972 3.47467 11.2603 2.76615C10.1234 2.05763 8.78672 1.73859 7.4524 1.85726C6.11808 1.97593 4.85868 2.52588 3.86469 3.42391C2.87069 4.32195 2.19615 5.51924 1.94308 6.83471C1.69001 8.15018 1.87218 9.51228 2.46203 10.715C2.53403 10.8617 2.55803 11.027 2.52137 11.1857L1.97737 13.543C1.96203 13.6092 1.96379 13.6781 1.98248 13.7434C2.00117 13.8087 2.03617 13.8682 2.08419 13.9162C2.13221 13.9642 2.19166 13.9992 2.25695 14.0179C2.32224 14.0366 2.39121 14.0384 2.45737 14.023L4.81403 13.4783C4.97315 13.4435 5.13941 13.4647 5.2847 13.5383C6.12963 13.9533 7.05872 14.1682 8.00003 14.1663Z" stroke="white" stroke-width="1.5" stroke-linecap="round" stroke-linejoin="round"/>
</svg>
