<svg width="16" height="16" viewBox="0 0 16 16" fill="none" xmlns="http://www.w3.org/2000/svg">
<g clip-path="url(#clip0_1038_2993)">
<path d="M15.127 12.2466L15.887 11.58L15.2203 10.4266L14.2537 10.7533C14.0392 10.5735 13.7957 10.4314 13.5337 10.3333L13.3337 9.33329H12.0003L11.8003 10.3266C11.5382 10.4248 11.2948 10.5668 11.0803 10.7466L10.1137 10.42L9.44699 11.5733L10.207 12.24C10.153 12.5174 10.153 12.8026 10.207 13.08L9.44699 13.7466L10.1137 14.9L11.0803 14.5733C11.2948 14.7531 11.5382 14.8951 11.8003 14.9933L12.0003 16H13.3337L13.5337 15.0066C13.7957 14.9085 14.0392 14.7665 14.2537 14.5866L15.2203 14.9133L15.887 13.76L15.127 13.0933C15.1802 12.8136 15.1802 12.5263 15.127 12.2466ZM12.667 14C12.4033 14 12.1455 13.9218 11.9262 13.7752C11.707 13.6287 11.5361 13.4205 11.4352 13.1769C11.3342 12.9332 11.3078 12.6651 11.3593 12.4065C11.4107 12.1479 11.5377 11.9103 11.7242 11.7238C11.9107 11.5373 12.1482 11.4104 12.4069 11.3589C12.6655 11.3075 12.9336 11.3339 13.1772 11.4348C13.4209 11.5357 13.6291 11.7066 13.7756 11.9259C13.9221 12.1451 14.0003 12.4029 14.0003 12.6666C13.9993 13.0199 13.8585 13.3584 13.6086 13.6083C13.3588 13.8581 13.0203 13.9989 12.667 14ZM15.3337 7.33329H0.666992V0.666626H15.3337V7.33329ZM2.00033 5.99996H14.0003V1.99996H2.00033V5.99996ZM8.66699 3.33329H2.66699V4.66663H8.66699V3.33329ZM10.667 3.33329C10.5351 3.33329 10.4062 3.37239 10.2966 3.44565C10.187 3.5189 10.1015 3.62302 10.0511 3.74484C10.0006 3.86665 9.98741 4.0007 10.0131 4.13002C10.0389 4.25934 10.1024 4.37813 10.1956 4.47136C10.2888 4.5646 10.4076 4.62809 10.5369 4.65382C10.6663 4.67954 10.8003 4.66634 10.9221 4.61588C11.0439 4.56542 11.1481 4.47997 11.2213 4.37034C11.2946 4.26071 11.3337 4.13181 11.3337 3.99996C11.3337 3.82315 11.2634 3.65358 11.1384 3.52855C11.0134 3.40353 10.8438 3.33329 10.667 3.33329ZM12.667 3.33329C12.5351 3.33329 12.4062 3.37239 12.2966 3.44565C12.187 3.5189 12.1015 3.62302 12.0511 3.74484C12.0006 3.86665 11.9874 4.0007 12.0131 4.13002C12.0389 4.25934 12.1024 4.37813 12.1956 4.47136C12.2888 4.5646 12.4076 4.62809 12.5369 4.65382C12.6663 4.67954 12.8003 4.66634 12.9221 4.61588C13.0439 4.56542 13.1481 4.47997 13.2213 4.37034C13.2946 4.26071 13.3337 4.13181 13.3337 3.99996C13.3337 3.82315 13.2634 3.65358 13.1384 3.52855C13.0134 3.40353 12.8438 3.33329 12.667 3.33329Z" fill="#253439"/>
<path d="M8.19633 14H2.00033V9.99996H8.84033C9.21808 9.45932 9.70614 9.00488 10.2723 8.66663H0.666992V15.3333H8.84033C8.55607 14.926 8.33867 14.4758 8.19633 14Z" fill="#253439"/>
<path d="M2.66699 12.6667H8.00032C8.0008 12.2151 8.06682 11.766 8.19632 11.3334H2.66699V12.6667Z" fill="#253439"/>
</g>
<defs>
<clipPath id="clip0_1038_2993">
<rect width="16" height="16" fill="white"/>
</clipPath>
</defs>
</svg>
